Gayathri-Thin.ufo
<glyph name="exclam" format="2">
	<unicode hex="0021"/>
	<advance height="2048" width="310"/>
	<outline>
		<contour>
			<point x="156" y="1381" type="curve" smooth="yes"/>
			<point x="125" y="1381"/>
			<point x="84" y="1367"/>
			<point x="85" y="1333" type="curve" smooth="yes"/>
			<point x="114" y="355" type="line" smooth="yes"/>
			<point x="115" y="328"/>
			<point x="131" y="327"/>
			<point x="155" y="327" type="curve" smooth="yes"/>
			<point x="179" y="326"/>
			<point x="195" y="328"/>
			<point x="196" y="355" type="curve" smooth="yes"/>
			<point x="225" y="1333" type="line" smooth="yes"/>
			<point x="226" y="1367"/>
			<point x="186" y="1381"/>
		</contour>
		<contour>
			<point x="155" y="126" type="curve" smooth="yes"/>
			<point x="112" y="126"/>
			<point x="80" y="88"/>
			<point x="80" y="51" type="curve" smooth="yes"/>
			<point x="80" y="14"/>
			<point x="112" y="-24"/>
			<point x="155" y="-24" type="curve" smooth="yes"/>
			<point x="198" y="-24"/>
			<point x="230" y="14"/>
			<point x="230" y="51" type="curve" smooth="yes"/>
			<point x="230" y="88"/>
			<point x="198" y="126"/>
		</contour>
	</outline>
</glyph>
<glyph name="numbersign" format="2">
	<unicode hex="0023"/>
	<advance height="2048" width="1309"/>
	<outline>
		<contour>
			<point x="230" y="883" type="curve" smooth="yes"/>
			<point x="431" y="883" type="line"/>
			<point x="405" y="743"/>
			<point x="379" y="603"/>
			<point x="353" y="463" type="curve"/>
			<point x="161" y="463" type="line" smooth="yes"/>
			<point x="142" y="463"/>
			<point x="100" y="455"/>
			<point x="100" y="428" type="curve" smooth="yes"/>
			<point x="100" y="402"/>
			<point x="142" y="393"/>
			<point x="161" y="393" type="curve" smooth="yes"/>
			<point x="340" y="393" type="line"/>
			<point x="268" y="9" type="line" smooth="yes"/>
			<point x="264" y="-13"/>
			<point x="297" y="-22"/>
			<point x="314" y="-23" type="curve"/>
			<point x="331" y="-25"/>
			<point x="366" y="-19"/>
			<point x="370" y="3" type="curve" smooth="yes"/>
			<point x="443" y="393" type="line"/>
			<point x="745" y="393" type="line"/>
			<point x="674" y="9" type="line" smooth="yes"/>
			<point x="669" y="-13"/>
			<point x="703" y="-23"/>
			<point x="719" y="-23" type="curve"/>
			<point x="737" y="-25"/>
			<point x="772" y="-19"/>
			<point x="776" y="3" type="curve" smooth="yes"/>
			<point x="849" y="393" type="line"/>
			<point x="1079" y="393" type="line" smooth="yes"/>
			<point x="1099" y="393"/>
			<point x="1141" y="402"/>
			<point x="1141" y="428" type="curve" smooth="yes"/>
			<point x="1141" y="455"/>
			<point x="1099" y="463"/>
			<point x="1079" y="463" type="curve" smooth="yes"/>
			<point x="862" y="463" type="line"/>
			<point x="940" y="883" type="line"/>
			<point x="1148" y="883" type="line" smooth="yes"/>
			<point x="1167" y="883"/>
			<point x="1209" y="892"/>
			<point x="1209" y="918" type="curve" smooth="yes"/>
			<point x="1209" y="944"/>
			<point x="1167" y="953"/>
			<point x="1148" y="953" type="curve" smooth="yes"/>
			<point x="953" y="953" type="line"/>
			<point x="1027" y="1349" type="line" smooth="yes"/>
			<point x="1031" y="1371"/>
			<point x="997" y="1380"/>
			<point x="981" y="1381" type="curve" smooth="yes"/>
			<point x="964" y="1382"/>
			<point x="929" y="1376"/>
			<point x="925" y="1355" type="curve" smooth="yes"/>
			<point x="850" y="953" type="line"/>
			<point x="547" y="953" type="line"/>
			<point x="621" y="1349" type="line" smooth="yes"/>
			<point x="625" y="1371"/>
			<point x="591" y="1380"/>
			<point x="576" y="1381" type="curve" smooth="yes"/>
			<point x="558" y="1382"/>
			<point x="523" y="1376"/>
			<point x="519" y="1355" type="curve" smooth="yes"/>
			<point x="444" y="953" type="line"/>
			<point x="230" y="953" type="line" smooth="yes"/>
			<point x="210" y="953"/>
			<point x="168" y="944"/>
			<point x="168" y="918" type="curve" smooth="yes"/>
			<point x="168" y="892"/>
			<point x="210" y="883"/>
		</contour>
		<contour>
			<point x="456" y="463" type="line"/>
			<point x="534" y="883" type="line"/>
			<point x="837" y="883" type="line"/>
			<point x="811" y="743"/>
			<point x="784" y="603"/>
			<point x="758" y="463" type="curve"/>
		</contour>
	</outline>
</glyph>
<glyph name="dollar" format="2">
	<unicode hex="0024"/>
	<advance height="2048" width="1102"/>
	<outline>
		<contour>
			<point x="262" y="1017" type="curve" smooth="yes"/>
			<point x="264" y="1099"/>
			<point x="299" y="1172"/>
			<point x="360" y="1226" type="curve" smooth="yes"/>
			<point x="410" y="1270"/>
			<point x="457" y="1286"/>
			<point x="521" y="1302" type="curve"/>
			<point x="521" y="762" type="line"/>
			<point x="452" y="781"/>
			<point x="386" y="808"/>
			<point x="332" y="857" type="curve" smooth="yes"/>
			<point x="286" y="897"/>
			<point x="260" y="955"/>
		</contour>
		<contour>
			<point x="581" y="752" type="curve"/>
			<point x="581" y="933"/>
			<point x="581" y="1123"/>
			<point x="581" y="1304" type="curve"/>
			<point x="644" y="1294"/>
			<point x="689" y="1281"/>
			<point x="738" y="1239" type="curve" smooth="yes"/>
			<point x="800" y="1185"/>
			<point x="834" y="1110"/>
			<point x="849" y="1030" type="curve" smooth="yes"/>
			<point x="854" y="1007"/>
			<point x="891" y="999"/>
			<point x="910" y="999" type="curve" smooth="yes"/>
			<point x="917" y="999"/>
			<point x="924" y="1000"/>
			<point x="930" y="1001" type="curve" smooth="yes"/>
			<point x="946" y="1004"/>
			<point x="972" y="1014"/>
			<point x="972" y="1034" type="curve" smooth="yes"/>
			<point x="972" y="1035"/>
			<point x="972" y="1036"/>
			<point x="971" y="1037" type="curve"/>
			<point x="954" y="1130"/>
			<point x="912" y="1215"/>
			<point x="840" y="1277" type="curve" smooth="yes"/>
			<point x="764" y="1343"/>
			<point x="679" y="1366"/>
			<point x="581" y="1373" type="curve"/>
			<point x="581" y="1466" type="line" smooth="yes"/>
			<point x="581" y="1477"/>
			<point x="559" y="1480"/>
			<point x="551" y="1480" type="curve" smooth="yes"/>
			<point x="543" y="1480"/>
			<point x="521" y="1477"/>
			<point x="521" y="1466" type="curve" smooth="yes"/>
			<point x="521" y="1372" type="line"/>
			<point x="422" y="1360"/>
			<point x="333" y="1331"/>
			<point x="257" y="1263" type="curve" smooth="yes"/>
			<point x="188" y="1202"/>
			<point x="145" y="1121"/>
			<point x="139" y="1027" type="curve" smooth="yes"/>
			<point x="133" y="921"/>
			<point x="180" y="823"/>
			<point x="258" y="753" type="curve" smooth="yes"/>
			<point x="333" y="687"/>
			<point x="425" y="660"/>
			<point x="521" y="639" type="curve"/>
			<point x="521" y="43" type="line"/>
			<point x="459" y="56"/>
			<point x="413" y="70"/>
			<point x="362" y="111" type="curve" smooth="yes"/>
			<point x="285" y="174"/>
			<point x="242" y="265"/>
			<point x="222" y="362" type="curve" smooth="yes"/>
			<point x="218" y="386"/>
			<point x="180" y="393"/>
			<point x="161" y="393" type="curve" smooth="yes"/>
			<point x="154" y="393"/>
			<point x="147" y="392"/>
			<point x="140" y="391" type="curve"/>
			<point x="125" y="388"/>
			<point x="100" y="377"/>
			<point x="100" y="358" type="curve" smooth="yes"/>
			<point x="100" y="357"/>
			<point x="100" y="356"/>
			<point x="100" y="354" type="curve"/>
			<point x="123" y="244"/>
			<point x="173" y="142"/>
			<point x="262" y="71" type="curve" smooth="yes"/>
			<point x="340" y="8"/>
			<point x="423" y="-17"/>
			<point x="521" y="-27" type="curve"/>
			<point x="521" y="-206" type="line" smooth="yes"/>
			<point x="521" y="-217"/>
			<point x="543" y="-220"/>
			<point x="551" y="-220" type="curve" smooth="yes"/>
			<point x="559" y="-220"/>
			<point x="581" y="-217"/>
			<point x="581" y="-206" type="curve" smooth="yes"/>
			<point x="581" y="-28" type="line"/>
			<point x="703" y="-20"/>
			<point x="807" y="17"/>
			<point x="893" y="108" type="curve" smooth="yes"/>
			<point x="960" y="179"/>
			<point x="1003" y="275"/>
			<point x="1002" y="374" type="curve" smooth="yes"/>
			<point x="1002" y="477"/>
			<point x="959" y="568"/>
			<point x="884" y="636" type="curve" smooth="yes"/>
			<point x="799" y="712"/>
			<point x="691" y="736"/>
		</contour>
		<contour>
			<point x="581" y="41" type="curve"/>
			<point x="581" y="630" type="line"/>
			<point x="662" y="615"/>
			<point x="746" y="590"/>
			<point x="810" y="533" type="curve" smooth="yes"/>
			<point x="856" y="491"/>
			<point x="880" y="432"/>
			<point x="880" y="370" type="curve"/>
			<point x="879" y="285"/>
			<point x="843" y="202"/>
			<point x="785" y="141" type="curve" smooth="yes"/>
			<point x="725" y="77"/>
			<point x="666" y="53"/>
		</contour>
	</outline>
</glyph>
<glyph name="percent" format="2">
  <advance height="2048" width="1644.0"/>
  <unicode hex="0025"/>
  <outline>
    <contour>
      <point x="494.0" y="-8.0" type="curve" smooth="yes"/>
      <point x="1224.0" y="1348.0" type="line"/>
      <point x="1225.0" y="1351.0"/>
      <point x="1228.0" y="1356.0"/>
      <point x="1228.0" y="1359.0" type="curve" smooth="yes"/>
      <point x="1228.0" y="1373.0"/>
      <point x="1207.0" y="1381.0"/>
      <point x="1187.0" y="1381.0" type="curve" smooth="yes"/>
      <point x="1171.0" y="1381.0"/>
      <point x="1156.0" y="1376.0"/>
      <point x="1150.0" y="1365.0" type="curve" smooth="yes"/>
      <point x="419.0" y="9.0" type="line"/>
      <point x="418.0" y="6.0"/>
      <point x="416.0" y="2.0"/>
      <point x="416.0" y="-1.0" type="curve" smooth="yes"/>
      <point x="416.0" y="-15.0"/>
      <point x="436.0" y="-24.0"/>
      <point x="456.0" y="-24.0" type="curve" smooth="yes"/>
      <point x="471.0" y="-24.0"/>
      <point x="488.0" y="-19.0"/>
    </contour>
    <contour>
      <point x="408.0" y="659.0" type="curve" smooth="yes"/>
      <point x="604.0" y="659.0"/>
      <point x="716.0" y="833.0"/>
      <point x="716.0" y="1020.0" type="curve" smooth="yes"/>
      <point x="716.0" y="1207.0"/>
      <point x="607.0" y="1381.0"/>
      <point x="408.0" y="1381.0" type="curve" smooth="yes"/>
      <point x="209.0" y="1381.0"/>
      <point x="100.0" y="1209.0"/>
      <point x="100.0" y="1020.0" type="curve" smooth="yes"/>
      <point x="100.0" y="831.0"/>
      <point x="212.0" y="659.0"/>
    </contour>
    <contour>
      <point x="408.0" y="728.0" type="curve" smooth="yes"/>
      <point x="266.0" y="728.0"/>
      <point x="224.0" y="902.0"/>
      <point x="223.0" y="1020.0" type="curve" smooth="yes"/>
      <point x="223.0" y="1138.0"/>
      <point x="266.0" y="1311.0"/>
      <point x="408.0" y="1312.0" type="curve" smooth="yes"/>
      <point x="550.0" y="1312.0"/>
      <point x="593.0" y="1138.0"/>
      <point x="593.0" y="1020.0" type="curve" smooth="yes"/>
      <point x="593.0" y="902.0"/>
      <point x="549.0" y="728.0"/>
    </contour>
    <contour>
      <point x="1236.0" y="-24.0" type="curve" smooth="yes"/>
      <point x="1435.0" y="-23.0"/>
      <point x="1544.0" y="148.0"/>
      <point x="1544.0" y="337.0" type="curve" smooth="yes"/>
      <point x="1544.0" y="527.0"/>
      <point x="1433.0" y="699.0"/>
      <point x="1236.0" y="699.0" type="curve" smooth="yes"/>
      <point x="1039.0" y="699.0"/>
      <point x="928.0" y="525.0"/>
      <point x="928.0" y="337.0" type="curve" smooth="yes"/>
      <point x="928.0" y="149.0"/>
      <point x="1037.0" y="-24.0"/>
    </contour>
    <contour>
      <point x="1236.0" y="46.0" type="curve" smooth="yes"/>
      <point x="1094.0" y="46.0"/>
      <point x="1051.0" y="220.0"/>
      <point x="1051.0" y="337.0" type="curve" smooth="yes"/>
      <point x="1051.0" y="455.0"/>
      <point x="1092.0" y="629.0"/>
      <point x="1235.0" y="629.0" type="curve" smooth="yes"/>
      <point x="1377.0" y="629.0"/>
      <point x="1421.0" y="455.0"/>
      <point x="1421.0" y="337.0" type="curve" smooth="yes"/>
      <point x="1421.0" y="219.0"/>
      <point x="1378.0" y="46.0"/>
    </contour>
  </outline>
</glyph>
<glyph name="ampersand" format="2">
  <advance height="2048" width="1276.0"/>
  <unicode hex="0026"/>
  <outline>
    <contour>
      <point x="1113.0" y="-24.0" type="curve" smooth="yes"/>
      <point x="1133.0" y="-24.0"/>
      <point x="1176.0" y="-14.0"/>
      <point x="1176.0" y="11.0" type="curve" smooth="yes"/>
      <point x="1176.0" y="16.0"/>
      <point x="1174.0" y="21.0"/>
      <point x="1170.0" y="26.0" type="curve" smooth="yes"/>
      <point x="966.0" y="268.0" type="line"/>
      <point x="1032.0" y="379.0"/>
      <point x="1070.0" y="509.0"/>
      <point x="1070.0" y="639.0" type="curve" smooth="yes"/>
      <point x="1070.0" y="664.0"/>
      <point x="1029.0" y="672.0"/>
      <point x="1009.0" y="673.0" type="curve" smooth="yes"/>
      <point x="990.0" y="673.0"/>
      <point x="948.0" y="664.0"/>
      <point x="948.0" y="638.0" type="curve"/>
      <point x="946.0" y="536.0"/>
      <point x="924.0" y="456.0"/>
      <point x="888.0" y="361.0" type="curve"/>
      <point x="711.0" y="575.0" type="line" smooth="yes"/>
      <point x="666.0" y="629.0"/>
      <point x="621.0" y="684.0"/>
      <point x="577.0" y="739.0" type="curve"/>
      <point x="713.0" y="822.0"/>
      <point x="860.0" y="932.0"/>
      <point x="860.0" y="1111.0" type="curve" smooth="yes"/>
      <point x="860.0" y="1291.0"/>
      <point x="705.0" y="1381.0"/>
      <point x="543.0" y="1381.0" type="curve" smooth="yes"/>
      <point x="397.0" y="1381.0"/>
      <point x="219.0" y="1297.0"/>
      <point x="219.0" y="1127.0" type="curve" smooth="yes"/>
      <point x="219.0" y="992.0"/>
      <point x="350.0" y="854.0"/>
      <point x="431.0" y="752.0" type="curve"/>
      <point x="264.0" y="651.0"/>
      <point x="100.0" y="533.0"/>
      <point x="100.0" y="315.0" type="curve" smooth="yes"/>
      <point x="100.0" y="102.0"/>
      <point x="287.0" y="-24.0"/>
      <point x="485.0" y="-24.0" type="curve" smooth="yes"/>
      <point x="658.0" y="-24.0"/>
      <point x="789.0" y="52.0"/>
      <point x="904.0" y="179.0" type="curve"/>
      <point x="956.0" y="118.0"/>
      <point x="1008.0" y="57.0"/>
      <point x="1059.0" y="-4.0" type="curve" smooth="yes"/>
      <point x="1071.0" y="-18.0"/>
      <point x="1093.0" y="-24.0"/>
    </contour>
    <contour>
      <point x="522.0" y="807.0" type="curve"/>
      <point x="453.0" y="895.0"/>
      <point x="342.0" y="1012.0"/>
      <point x="342.0" y="1127.0" type="curve" smooth="yes"/>
      <point x="342.0" y="1238.0"/>
      <point x="440.0" y="1311.0"/>
      <point x="543.0" y="1311.0" type="curve" smooth="yes"/>
      <point x="659.0" y="1311.0"/>
      <point x="737.0" y="1227.0"/>
      <point x="737.0" y="1111.0" type="curve" smooth="yes"/>
      <point x="737.0" y="968.0"/>
      <point x="630.0" y="878.0"/>
    </contour>
    <contour>
      <point x="485.0" y="46.0" type="curve" smooth="yes"/>
      <point x="330.0" y="46.0"/>
      <point x="223.0" y="169.0"/>
      <point x="223.0" y="320.0" type="curve" smooth="yes"/>
      <point x="223.0" y="496.0"/>
      <point x="352.0" y="598.0"/>
      <point x="487.0" y="684.0" type="curve"/>
      <point x="541.0" y="617.0"/>
      <point x="595.0" y="550.0"/>
      <point x="650.0" y="484.0" type="curve" smooth="yes"/>
      <point x="711.0" y="410.0"/>
      <point x="772.0" y="337.0"/>
      <point x="834.0" y="264.0" type="curve"/>
      <point x="754.0" y="145.0"/>
      <point x="632.0" y="46.0"/>
    </contour>
  </outline>
</glyph>
<glyph name="quotesingle" format="2">
	<unicode hex="0027"/>
	<advance height="2048" width="340"/>
	<outline>
		<contour>
			<point x="171" y="1090" type="curve" smooth="yes"/>
			<point x="190" y="1090"/>
			<point x="210" y="1097"/>
			<point x="211" y="1118" type="curve" smooth="yes"/>
			<point x="240" y="1561" type="line" smooth="yes"/>
			<point x="242" y="1595"/>
			<point x="206" y="1611"/>
			<point x="171" y="1611" type="curve" smooth="yes"/>
			<point x="136" y="1611"/>
			<point x="98" y="1594"/>
			<point x="100" y="1561" type="curve" smooth="yes"/>
			<point x="129" y="1118" type="line" smooth="yes"/>
			<point x="131" y="1097"/>
			<point x="151" y="1090"/>
		</contour>
	</outline>
</glyph>
<glyph name="parenleft" format="2">
	<unicode hex="0028"/>
	<advance height="2048" width="640"/>
	<outline>
		<contour>
			<point x="223" y="509" type="curve" smooth="yes"/>
			<point x="223" y="815"/>
			<point x="322" y="1123"/>
			<point x="533" y="1349" type="curve" smooth="yes"/>
			<point x="553" y="1371"/>
			<point x="528" y="1390"/>
			<point x="507" y="1396" type="curve" smooth="yes"/>
			<point x="482" y="1404"/>
			<point x="442" y="1401"/>
			<point x="424" y="1381" type="curve" smooth="yes"/>
			<point x="205" y="1146"/>
			<point x="100" y="828"/>
			<point x="100" y="509" type="curve" smooth="yes"/>
			<point x="100" y="191"/>
			<point x="205" y="-127"/>
			<point x="424" y="-363" type="curve" smooth="yes"/>
			<point x="442" y="-383"/>
			<point x="482" y="-385"/>
			<point x="507" y="-377" type="curve" smooth="yes"/>
			<point x="528" y="-371"/>
			<point x="553" y="-352"/>
			<point x="533" y="-330" type="curve" smooth="yes"/>
			<point x="322" y="-104"/>
			<point x="223" y="203"/>
		</contour>
	</outline>
</glyph>
<glyph name="asterisk" format="2">
	<unicode hex="002A"/>
	<advance height="2048" width="640"/>
	<outline>
		<contour>
			<point x="299" y="1003" type="curve" smooth="yes"/>
			<point x="284" y="784" type="line"/>
			<point x="71" y="837" type="line" smooth="yes"/>
			<point x="60" y="840"/>
			<point x="55" y="831"/>
			<point x="52" y="821" type="curve" smooth="yes"/>
			<point x="51" y="818"/>
			<point x="50" y="813"/>
			<point x="50" y="810" type="curve" smooth="yes"/>
			<point x="50" y="803"/>
			<point x="53" y="800"/>
			<point x="59" y="797" type="curve"/>
			<point x="262" y="715" type="line"/>
			<point x="146" y="530" type="line"/>
			<point x="145" y="527"/>
			<point x="143" y="525"/>
			<point x="143" y="522" type="curve" smooth="yes"/>
			<point x="143" y="516"/>
			<point x="150" y="510"/>
			<point x="155" y="506" type="curve" smooth="yes"/>
			<point x="159" y="503"/>
			<point x="165" y="500"/>
			<point x="171" y="500" type="curve" smooth="yes"/>
			<point x="174" y="500"/>
			<point x="177" y="502"/>
			<point x="179" y="505" type="curve"/>
			<point x="320" y="673" type="line"/>
			<point x="461" y="506" type="line"/>
			<point x="464" y="503"/>
			<point x="467" y="500"/>
			<point x="471" y="500" type="curve" smooth="yes"/>
			<point x="476" y="500"/>
			<point x="482" y="504"/>
			<point x="486" y="507" type="curve" smooth="yes"/>
			<point x="490" y="510"/>
			<point x="497" y="516"/>
			<point x="497" y="522" type="curve" smooth="yes"/>
			<point x="497" y="525"/>
			<point x="496" y="528"/>
			<point x="495" y="530" type="curve"/>
			<point x="378" y="716" type="line"/>
			<point x="581" y="798" type="line"/>
			<point x="587" y="800"/>
			<point x="590" y="804"/>
			<point x="590" y="810" type="curve" smooth="yes"/>
			<point x="590" y="814"/>
			<point x="589" y="818"/>
			<point x="588" y="822" type="curve"/>
			<point x="585" y="829"/>
			<point x="581" y="838"/>
			<point x="573" y="838" type="curve" smooth="yes"/>
			<point x="571" y="838"/>
			<point x="570" y="838"/>
			<point x="568" y="837" type="curve"/>
			<point x="356" y="784" type="line"/>
			<point x="340" y="1003" type="line"/>
			<point x="340" y="1015"/>
			<point x="330" y="1016"/>
			<point x="320" y="1016" type="curve" smooth="yes"/>
			<point x="309" y="1016"/>
			<point x="300" y="1014"/>
		</contour>
	</outline>
</glyph>
<glyph name="plus" format="2">
  <advance height="2048" width="1010.0"/>
  <unicode hex="002B"/>
  <outline>
    <contour>
      <point x="162.0" y="390.0" type="curve" smooth="yes"/>
      <point x="444.0" y="390.0" type="line"/>
      <point x="444.0" y="35.0" type="line" smooth="yes"/>
      <point x="444.0" y="9.0"/>
      <point x="485.0" y="0.0"/>
      <point x="505.0" y="0.0" type="curve" smooth="yes"/>
      <point x="525.0" y="0.0"/>
      <point x="566.0" y="9.0"/>
      <point x="566.0" y="35.0" type="curve" smooth="yes"/>
      <point x="566.0" y="390.0" type="line"/>
      <point x="848.0" y="390.0" type="line" smooth="yes"/>
      <point x="868.0" y="390.0"/>
      <point x="910.0" y="399.0"/>
      <point x="910.0" y="425.0" type="curve" smooth="yes"/>
      <point x="910.0" y="451.0"/>
      <point x="868.0" y="460.0"/>
      <point x="848.0" y="460.0" type="curve" smooth="yes"/>
      <point x="566.0" y="460.0" type="line"/>
      <point x="566.0" y="815.0" type="line" smooth="yes"/>
      <point x="566.0" y="841.0"/>
      <point x="525.0" y="850.0"/>
      <point x="505.0" y="850.0" type="curve" smooth="yes"/>
      <point x="485.0" y="850.0"/>
      <point x="444.0" y="841.0"/>
      <point x="444.0" y="815.0" type="curve" smooth="yes"/>
      <point x="444.0" y="460.0" type="line"/>
      <point x="162.0" y="460.0" type="line" smooth="yes"/>
      <point x="142.0" y="460.0"/>
      <point x="100.0" y="451.0"/>
      <point x="100.0" y="425.0" type="curve" smooth="yes"/>
      <point x="100.0" y="399.0"/>
      <point x="142.0" y="390.0"/>
    </contour>
  </outline>
</glyph>
<glyph name="comma" format="2">
	<unicode hex="002C"/>
	<advance height="2048" width="435"/>
	<outline>
		<contour>
			<point x="355" y="56.248" type="line" smooth="yes"/>
			<point x="355" y="156.11"/>
			<point x="299.203" y="235"/>
			<point x="193.587" y="235" type="curve" smooth="yes"/>
			<point x="127.826" y="235"/>
			<point x="79" y="183.072"/>
			<point x="79" y="117.163" type="curve" smooth="yes"/>
			<point x="79" y="51.254"/>
			<point x="129.819" y="0.071"/>
			<point x="193.587" y="0.071" type="curve" smooth="yes"/>
			<point x="213.514" y="0.071"/>
			<point x="231.449" y="5.064"/>
			<point x="246.395" y="14.051" type="curve"/>
			<point x="244.509" y="-65.296"/>
			<point x="190.937" y="-175.713"/>
			<point x="110.866" y="-197.32" type="curve" smooth="yes"/>
			<point x="103.04" y="-199.432"/>
			<point x="100.385" y="-200.761"/>
			<point x="100.385" y="-203.739" type="curve" smooth="yes"/>
			<point x="100.384" y="-229.346"/>
			<point x="136.819" y="-232.025"/>
			<point x="155.378" y="-232" type="curve" smooth="yes"/>
			<point x="285.847" y="-231.825"/>
			<point x="355" y="-55.1"/>
			<point x="355" y="56.248" type="curve" smooth="yes"/>
		</contour>
	</outline>
</glyph>
<glyph name="hyphen" format="2">
  <advance height="2048" width="773.0"/>
  <unicode hex="002D"/>
  <outline>
    <contour>
      <point x="612.0" y="450.0" type="line" smooth="yes"/>
      <point x="631.0" y="450.0"/>
      <point x="673.0" y="459.0"/>
      <point x="673.0" y="485.0" type="curve" smooth="yes"/>
      <point x="673.0" y="512.0"/>
      <point x="631.0" y="521.0"/>
      <point x="612.0" y="521.0" type="curve" smooth="yes"/>
      <point x="162.0" y="521.0" type="line" smooth="yes"/>
      <point x="142.0" y="521.0"/>
      <point x="100.0" y="512.0"/>
      <point x="100.0" y="485.0" type="curve" smooth="yes"/>
      <point x="100.0" y="459.0"/>
      <point x="142.0" y="450.0"/>
      <point x="162.0" y="450.0" type="curve" smooth="yes"/>
    </contour>
  </outline>
</glyph>
<glyph name="period" format="2">
  <advance height="2048" width="350.0"/>
  <unicode hex="002E"/>
  <outline>
    <contour>
      <point x="175.0" y="0.0" type="curve" smooth="yes"/>
      <point x="218.0" y="0.0"/>
      <point x="250.0" y="38.0"/>
      <point x="250.0" y="75.0" type="curve" smooth="yes"/>
      <point x="250.0" y="112.0"/>
      <point x="218.0" y="150.0"/>
      <point x="175.0" y="150.0" type="curve" smooth="yes"/>
      <point x="132.0" y="150.0"/>
      <point x="100.0" y="112.0"/>
      <point x="100.0" y="75.0" type="curve" smooth="yes"/>
      <point x="100.0" y="38.0"/>
      <point x="132.0" y="0.0"/>
    </contour>
  </outline>
</glyph>
<glyph name="slash" format="2">
  <advance height="2048" width="808.0"/>
  <unicode hex="002F"/>
  <outline>
    <contour>
      <point x="179.0" y="-9.0" type="curve" smooth="yes"/>
      <point x="705.0" y="1355.0" type="line" smooth="yes"/>
      <point x="706.0" y="1358.0"/>
      <point x="708.0" y="1361.0"/>
      <point x="708.0" y="1363.0" type="curve" smooth="yes"/>
      <point x="708.0" y="1374.0"/>
      <point x="688.0" y="1381.0"/>
      <point x="668.0" y="1381.0" type="curve" smooth="yes"/>
      <point x="651.0" y="1381.0"/>
      <point x="633.0" y="1376.0"/>
      <point x="629.0" y="1365.0" type="curve" smooth="yes"/>
      <point x="102.0" y="1.0" type="line"/>
      <point x="101.0" y="-1.0"/>
      <point x="100.0" y="-5.0"/>
      <point x="100.0" y="-6.0" type="curve" smooth="yes"/>
      <point x="100.0" y="-18.0"/>
      <point x="120.0" y="-24.0"/>
      <point x="140.0" y="-24.0" type="curve" smooth="yes"/>
      <point x="158.0" y="-24.0"/>
      <point x="175.0" y="-19.0"/>
    </contour>
  </outline>
</glyph>
<glyph name="zero" format="2">
	<unicode hex="0030"/>
	<advance height="2048" width="1088"/>
	<outline>
		<contour>
			<point x="544" y="-23" type="curve" smooth="yes"/>
			<point x="886" y="-23"/>
			<point x="1008" y="395"/>
			<point x="1008" y="679" type="curve" smooth="yes"/>
			<point x="1008" y="962"/>
			<point x="887" y="1381"/>
			<point x="544" y="1381" type="curve" smooth="yes"/>
			<point x="201" y="1381"/>
			<point x="80" y="962"/>
			<point x="80" y="679" type="curve" smooth="yes"/>
			<point x="80" y="395"/>
			<point x="202" y="-23"/>
		</contour>
		<contour>
			<point x="544" y="1311" type="curve" smooth="yes"/>
			<point x="817" y="1311"/>
			<point x="879" y="886"/>
			<point x="879" y="679" type="curve" smooth="yes"/>
			<point x="879" y="471"/>
			<point x="817" y="47"/>
			<point x="544" y="47" type="curve" smooth="yes"/>
			<point x="271" y="47"/>
			<point x="209" y="471"/>
			<point x="209" y="679" type="curve" smooth="yes"/>
			<point x="209" y="886"/>
			<point x="271" y="1311"/>
		</contour>
	</outline>
</glyph>
<glyph name="one" format="2">
	<unicode hex="0031"/>
	<advance height="2048" width="577"/>
	<outline>
		<contour>
			<point x="127" y="969" type="curve" smooth="yes"/>
			<point x="224" y="983"/>
			<point x="280" y="1022"/>
			<point x="354" y="1080" type="curve"/>
			<point x="354" y="12" type="line" smooth="yes"/>
			<point x="354" y="-15"/>
			<point x="395" y="-24"/>
			<point x="416" y="-24" type="curve" smooth="yes"/>
			<point x="436" y="-24"/>
			<point x="477" y="-15"/>
			<point x="477" y="12" type="curve" smooth="yes"/>
			<point x="477" y="1345" type="line" smooth="yes"/>
			<point x="477" y="1372"/>
			<point x="436" y="1381"/>
			<point x="416" y="1381" type="curve" smooth="yes"/>
			<point x="393" y="1381"/>
			<point x="356" y="1372"/>
			<point x="352" y="1344" type="curve" smooth="yes"/>
			<point x="342" y="1265"/>
			<point x="312" y="1190"/>
			<point x="259" y="1130" type="curve" smooth="yes"/>
			<point x="217" y="1083"/>
			<point x="159" y="1046"/>
			<point x="96" y="1037" type="curve" smooth="yes"/>
			<point x="79" y="1034"/>
			<point x="51" y="1024"/>
			<point x="50" y="1004" type="curve" smooth="yes"/>
			<point x="49" y="972"/>
			<point x="104" y="966"/>
		</contour>
	</outline>
</glyph>
<glyph name="two" format="2">
	<unicode hex="0032"/>
	<advance height="2048" width="1079"/>
	<outline>
		<contour>
			<point x="911" y="0" type="line" smooth="yes"/>
			<point x="931" y="0"/>
			<point x="972" y="9"/>
			<point x="972" y="35" type="curve" smooth="yes"/>
			<point x="972" y="61"/>
			<point x="931" y="70"/>
			<point x="911" y="70" type="curve" smooth="yes"/>
			<point x="224" y="70" type="line"/>
			<point x="227" y="158"/>
			<point x="237" y="249"/>
			<point x="282" y="326" type="curve" smooth="yes"/>
			<point x="334" y="415"/>
			<point x="426" y="456"/>
			<point x="514" y="500" type="curve" smooth="yes"/>
			<point x="715" y="601"/>
			<point x="979" y="732"/>
			<point x="979" y="987" type="curve" smooth="yes"/>
			<point x="979" y="1228"/>
			<point x="776" y="1381"/>
			<point x="546" y="1381" type="curve" smooth="yes"/>
			<point x="459" y="1381"/>
			<point x="374" y="1366"/>
			<point x="297" y="1323" type="curve" smooth="yes"/>
			<point x="192" y="1264"/>
			<point x="106" y="1130"/>
			<point x="106" y="1005" type="curve" smooth="yes"/>
			<point x="106" y="991"/>
			<point x="107" y="978"/>
			<point x="109" y="965" type="curve" smooth="yes"/>
			<point x="113" y="941"/>
			<point x="150" y="933"/>
			<point x="172" y="933" type="curve" smooth="yes"/>
			<point x="191" y="933"/>
			<point x="232" y="942"/>
			<point x="232" y="967" type="curve" smooth="yes"/>
			<point x="232" y="987" type="line" smooth="yes"/>
			<point x="232" y="1085"/>
			<point x="268" y="1186"/>
			<point x="345" y="1247" type="curve" smooth="yes"/>
			<point x="404" y="1293"/>
			<point x="472" y="1311"/>
			<point x="546" y="1311" type="curve" smooth="yes"/>
			<point x="725" y="1311"/>
			<point x="855" y="1164"/>
			<point x="855" y="990" type="curve" smooth="yes"/>
			<point x="855" y="762"/>
			<point x="610" y="641"/>
			<point x="432" y="552" type="curve" smooth="yes"/>
			<point x="329" y="501"/>
			<point x="228" y="454"/>
			<point x="166" y="348" type="curve" smooth="yes"/>
			<point x="112" y="256"/>
			<point x="100" y="140"/>
			<point x="100" y="35" type="curve" smooth="yes"/>
			<point x="100" y="9"/>
			<point x="142" y="0"/>
			<point x="162" y="0" type="curve" smooth="yes"/>
		</contour>
	</outline>
</glyph>
<glyph name="three" format="2">
	<unicode hex="0033"/>
	<advance height="2048" width="1069"/>
	<outline>
		<contour>
			<point x="224" y="982" type="curve" smooth="yes"/>
			<point x="214" y="1158"/>
			<point x="323" y="1312"/>
			<point x="505" y="1311" type="curve" smooth="yes"/>
			<point x="674" y="1310"/>
			<point x="808" y="1196"/>
			<point x="809" y="1019" type="curve" smooth="yes"/>
			<point x="809" y="895"/>
			<point x="733" y="800"/>
			<point x="619" y="762" type="curve" smooth="yes"/>
			<point x="570" y="745"/>
			<point x="530" y="744"/>
			<point x="480" y="741" type="curve" smooth="yes"/>
			<point x="461" y="740"/>
			<point x="421" y="731"/>
			<point x="421" y="706" type="curve" smooth="yes"/>
			<point x="421" y="680"/>
			<point x="463" y="671"/>
			<point x="482" y="671" type="curve" smooth="yes"/>
			<point x="533" y="671"/>
			<point x="574" y="675"/>
			<point x="625" y="663" type="curve" smooth="yes"/>
			<point x="765" y="628"/>
			<point x="847" y="508"/>
			<point x="847" y="365" type="curve" smooth="yes"/>
			<point x="847" y="188"/>
			<point x="727" y="46"/>
			<point x="549" y="46" type="curve" smooth="yes"/>
			<point x="357" y="46"/>
			<point x="223" y="167"/>
			<point x="223" y="366" type="curve" smooth="yes"/>
			<point x="223" y="392"/>
			<point x="181" y="400"/>
			<point x="161" y="400" type="curve" smooth="yes"/>
			<point x="142" y="400"/>
			<point x="100" y="392"/>
			<point x="100" y="366" type="curve" smooth="yes"/>
			<point x="100" y="103"/>
			<point x="311" y="-24"/>
			<point x="549" y="-24" type="curve" smooth="yes"/>
			<point x="772" y="-24"/>
			<point x="969" y="123"/>
			<point x="969" y="363" type="curve" smooth="yes"/>
			<point x="969" y="536"/>
			<point x="876" y="651"/>
			<point x="722" y="715" type="curve"/>
			<point x="845" y="776"/>
			<point x="932" y="872"/>
			<point x="931" y="1019" type="curve" smooth="yes"/>
			<point x="930" y="1257"/>
			<point x="726" y="1381"/>
			<point x="512" y="1381" type="curve" smooth="yes"/>
			<point x="278" y="1380"/>
			<point x="87" y="1232"/>
			<point x="101" y="980" type="curve" smooth="yes"/>
			<point x="103" y="954"/>
			<point x="145" y="946"/>
			<point x="164" y="946" type="curve" smooth="yes"/>
			<point x="184" y="947"/>
			<point x="225" y="956"/>
		</contour>
	</outline>
</glyph>
<glyph name="four" format="2">
  <advance height="2048" width="1116.0"/>
  <unicode hex="0034"/>
  <outline>
    <contour>
      <point x="757.0" y="-24.0" type="curve" smooth="yes"/>
      <point x="778.0" y="-24.0"/>
      <point x="819.0" y="-15.0"/>
      <point x="819.0" y="12.0" type="curve" smooth="yes"/>
      <point x="819.0" y="345.0" type="line"/>
      <point x="1004.0" y="345.0" type="line" smooth="yes"/>
      <point x="1024.0" y="345.0"/>
      <point x="1066.0" y="354.0"/>
      <point x="1066.0" y="380.0" type="curve" smooth="yes"/>
      <point x="1066.0" y="406.0"/>
      <point x="1024.0" y="415.0"/>
      <point x="1004.0" y="415.0" type="curve" smooth="yes"/>
      <point x="819.0" y="415.0" type="line"/>
      <point x="819.0" y="1345.0" type="line" smooth="yes"/>
      <point x="819.0" y="1372.0"/>
      <point x="778.0" y="1381.0"/>
      <point x="757.0" y="1381.0" type="curve" smooth="yes"/>
      <point x="736.0" y="1381.0"/>
      <point x="711.0" y="1373.0"/>
      <point x="698.0" y="1354.0" type="curve" smooth="yes"/>
      <point x="56.0" y="395.0" type="line"/>
      <point x="52.0" y="390.0"/>
      <point x="50.0" y="386.0"/>
      <point x="50.0" y="380.0" type="curve" smooth="yes"/>
      <point x="50.0" y="354.0"/>
      <point x="92.0" y="345.0"/>
      <point x="112.0" y="345.0" type="curve" smooth="yes"/>
      <point x="696.0" y="345.0" type="line"/>
      <point x="696.0" y="12.0" type="line" smooth="yes"/>
      <point x="696.0" y="-15.0"/>
      <point x="737.0" y="-24.0"/>
    </contour>
    <contour>
      <point x="696.0" y="415.0" type="line"/>
      <point x="161.0" y="415.0" type="line"/>
      <point x="696.0" y="1216.0" type="line"/>
    </contour>
  </outline>
</glyph>
<glyph name="five" format="2">
	<unicode hex="0035"/>
	<advance height="2048" width="1093"/>
	<outline>
		<contour>
			<point x="233" y="1321" type="curve" smooth="yes"/>
			<point x="144" y="638" type="line" smooth="yes"/>
			<point x="139" y="602"/>
			<point x="182" y="595"/>
			<point x="208" y="595" type="curve" smooth="yes"/>
			<point x="240" y="595"/>
			<point x="252" y="605"/>
			<point x="269" y="632" type="curve" smooth="yes"/>
			<point x="331" y="730"/>
			<point x="441" y="787"/>
			<point x="556" y="781" type="curve" smooth="yes"/>
			<point x="754" y="772"/>
			<point x="870" y="606"/>
			<point x="870" y="414" type="curve" smooth="yes"/>
			<point x="870" y="217"/>
			<point x="747" y="47"/>
			<point x="544" y="45" type="curve" smooth="yes"/>
			<point x="385" y="44"/>
			<point x="258" y="154"/>
			<point x="222" y="309" type="curve" smooth="yes"/>
			<point x="217" y="332"/>
			<point x="181" y="339"/>
			<point x="161" y="339" type="curve" smooth="yes"/>
			<point x="141" y="339"/>
			<point x="94" y="329"/>
			<point x="101" y="300" type="curve" smooth="yes"/>
			<point x="150" y="88"/>
			<point x="339" y="-26"/>
			<point x="545" y="-24" type="curve" smooth="yes"/>
			<point x="800" y="-22"/>
			<point x="993" y="148"/>
			<point x="993" y="414" type="curve" smooth="yes"/>
			<point x="993" y="670"/>
			<point x="812" y="839"/>
			<point x="565" y="851" type="curve" smooth="yes"/>
			<point x="458" y="856"/>
			<point x="383" y="832"/>
			<point x="286" y="786" type="curve"/>
			<point x="351" y="1286" type="line"/>
			<point x="887" y="1286" type="line" smooth="yes"/>
			<point x="906" y="1286"/>
			<point x="948" y="1295"/>
			<point x="948" y="1321" type="curve" smooth="yes"/>
			<point x="948" y="1347"/>
			<point x="906" y="1356"/>
			<point x="887" y="1356" type="curve" smooth="yes"/>
			<point x="294" y="1356" type="line" smooth="yes"/>
			<point x="273" y="1356"/>
			<point x="236" y="1347"/>
		</contour>
	</outline>
</glyph>
<glyph name="six" format="2">
  <advance height="2048" width="1117.0"/>
  <unicode hex="0036"/>
  <outline>
    <contour>
      <point x="581.0" y="-24.0" type="curve" smooth="yes"/>
      <point x="715.0" y="-24.0"/>
      <point x="843.0" y="27.0"/>
      <point x="927.0" y="136.0" type="curve" smooth="yes"/>
      <point x="989.0" y="216.0"/>
      <point x="1017.0" y="316.0"/>
      <point x="1017.0" y="418.0" type="curve" smooth="yes"/>
      <point x="1017.0" y="545.0"/>
      <point x="974.0" y="666.0"/>
      <point x="879.0" y="752.0" type="curve" smooth="yes"/>
      <point x="796.0" y="826.0"/>
      <point x="690.0" y="860.0"/>
      <point x="581.0" y="860.0" type="curve" smooth="yes"/>
      <point x="400.0" y="860.0"/>
      <point x="281.0" y="764.0"/>
      <point x="218.0" y="639.0" type="curve"/>
      <point x="222.0" y="747.0"/>
      <point x="227.0" y="843.0"/>
      <point x="255.0" y="949.0" type="curve" smooth="yes"/>
      <point x="300.0" y="1122.0"/>
      <point x="408.0" y="1309.0"/>
      <point x="608.0" y="1309.0" type="curve" smooth="yes"/>
      <point x="743.0" y="1309.0"/>
      <point x="839.0" y="1199.0"/>
      <point x="868.0" y="1075.0" type="curve" smooth="yes"/>
      <point x="873.0" y="1052.0"/>
      <point x="909.0" y="1044.0"/>
      <point x="929.0" y="1044.0" type="curve" smooth="yes"/>
      <point x="954.0" y="1044.0"/>
      <point x="989.0" y="1053.0"/>
      <point x="989.0" y="1080.0" type="curve" smooth="yes"/>
      <point x="989.0" y="1083.0"/>
      <point x="988.0" y="1086.0"/>
      <point x="988.0" y="1090.0" type="curve"/>
      <point x="943.0" y="1270.0"/>
      <point x="792.0" y="1379.0"/>
      <point x="608.0" y="1379.0" type="curve" smooth="yes"/>
      <point x="348.0" y="1379.0"/>
      <point x="198.0" y="1199.0"/>
      <point x="134.0" y="959.0" type="curve" smooth="yes"/>
      <point x="108.0" y="860.0"/>
      <point x="100.0" y="751.0"/>
      <point x="100.0" y="649.0" type="curve" smooth="yes"/>
      <point x="100.0" y="564.0"/>
      <point x="106.0" y="478.0"/>
      <point x="123.0" y="394.0" type="curve" smooth="yes"/>
      <point x="144.0" y="294.0"/>
      <point x="181.0" y="196.0"/>
      <point x="247.0" y="117.0" type="curve" smooth="yes"/>
      <point x="333.0" y="14.0"/>
      <point x="450.0" y="-24.0"/>
    </contour>
    <contour>
      <point x="581.0" y="46.0" type="curve" smooth="yes"/>
      <point x="378.0" y="46.0"/>
      <point x="268.0" y="229.0"/>
      <point x="268.0" y="418.0" type="curve" smooth="yes"/>
      <point x="268.0" y="607.0"/>
      <point x="378.0" y="790.0"/>
      <point x="581.0" y="790.0" type="curve" smooth="yes"/>
      <point x="784.0" y="790.0"/>
      <point x="894.0" y="607.0"/>
      <point x="894.0" y="418.0" type="curve" smooth="yes"/>
      <point x="894.0" y="229.0"/>
      <point x="784.0" y="46.0"/>
    </contour>
  </outline>
</glyph>
<glyph name="seven" format="2">
	<unicode hex="0037"/>
	<advance height="2048" width="1026"/>
	<outline>
		<contour>
			<point x="501" y="10" type="curve" smooth="yes"/>
			<point x="514" y="256"/>
			<point x="551" y="499"/>
			<point x="636" y="730" type="curve" smooth="yes"/>
			<point x="714" y="942"/>
			<point x="829" y="1129"/>
			<point x="968" y="1305" type="curve" smooth="yes"/>
			<point x="973" y="1311"/>
			<point x="976" y="1318"/>
			<point x="976" y="1323" type="curve" smooth="yes"/>
			<point x="976" y="1332"/>
			<point x="970" y="1339"/>
			<point x="960" y="1346" type="curve"/>
			<point x="946" y="1354"/>
			<point x="926" y="1357"/>
			<point x="914" y="1357" type="curve" smooth="yes"/>
			<point x="112" y="1357" type="line" smooth="yes"/>
			<point x="92" y="1357"/>
			<point x="50" y="1348"/>
			<point x="50" y="1322" type="curve" smooth="yes"/>
			<point x="50" y="1296"/>
			<point x="92" y="1287"/>
			<point x="112" y="1287" type="curve" smooth="yes"/>
			<point x="820" y="1287" type="line"/>
			<point x="693" y="1117"/>
			<point x="591" y="945"/>
			<point x="516" y="744" type="curve" smooth="yes"/>
			<point x="439" y="535"/>
			<point x="378" y="233"/>
			<point x="378" y="10" type="curve" smooth="yes"/>
			<point x="378" y="-15"/>
			<point x="417" y="-24"/>
			<point x="437" y="-24" type="curve" smooth="yes"/>
			<point x="458" y="-24"/>
			<point x="500" y="-17"/>
		</contour>
	</outline>
</glyph>
<glyph name="eight" format="2">
  <advance height="2048" width="1109.0"/>
  <unicode hex="0038"/>
  <outline>
    <contour>
      <point x="554.0" y="-24.0" type="curve" smooth="yes"/>
      <point x="782.0" y="-24.0"/>
      <point x="1009.0" y="105.0"/>
      <point x="1009.0" y="360.0" type="curve" smooth="yes"/>
      <point x="1009.0" y="540.0"/>
      <point x="905.0" y="646.0"/>
      <point x="748.0" y="711.0" type="curve"/>
      <point x="885.0" y="774.0"/>
      <point x="971.0" y="869.0"/>
      <point x="971.0" y="1028.0" type="curve" smooth="yes"/>
      <point x="971.0" y="1262.0"/>
      <point x="764.0" y="1380.0"/>
      <point x="554.0" y="1380.0" type="curve" smooth="yes"/>
      <point x="345.0" y="1380.0"/>
      <point x="138.0" y="1262.0"/>
      <point x="138.0" y="1028.0" type="curve" smooth="yes"/>
      <point x="138.0" y="869.0"/>
      <point x="224.0" y="774.0"/>
      <point x="361.0" y="711.0" type="curve"/>
      <point x="204.0" y="646.0"/>
      <point x="100.0" y="540.0"/>
      <point x="100.0" y="360.0" type="curve" smooth="yes"/>
      <point x="100.0" y="105.0"/>
      <point x="327.0" y="-24.0"/>
    </contour>
    <contour>
      <point x="555.0" y="745.0" type="curve" smooth="yes"/>
      <point x="390.0" y="745.0"/>
      <point x="261.0" y="856.0"/>
      <point x="261.0" y="1028.0" type="curve" smooth="yes"/>
      <point x="261.0" y="1200.0"/>
      <point x="390.0" y="1310.0"/>
      <point x="554.0" y="1310.0" type="curve" smooth="yes"/>
      <point x="719.0" y="1310.0"/>
      <point x="848.0" y="1200.0"/>
      <point x="848.0" y="1028.0" type="curve" smooth="yes"/>
      <point x="848.0" y="856.0"/>
      <point x="719.0" y="745.0"/>
    </contour>
    <contour>
      <point x="554.0" y="45.0" type="curve" smooth="yes"/>
      <point x="371.0" y="45.0"/>
      <point x="223.0" y="166.0"/>
      <point x="223.0" y="360.0" type="curve" smooth="yes"/>
      <point x="223.0" y="553.0"/>
      <point x="371.0" y="674.0"/>
      <point x="555.0" y="674.0" type="curve" smooth="yes"/>
      <point x="738.0" y="674.0"/>
      <point x="886.0" y="553.0"/>
      <point x="886.0" y="360.0" type="curve" smooth="yes"/>
      <point x="886.0" y="166.0"/>
      <point x="738.0" y="45.0"/>
    </contour>
  </outline>
</glyph>
<glyph name="nine" format="2">
  <advance height="2048" width="1117.0"/>
  <unicode hex="0039"/>
  <outline>
    <contour>
      <point x="536.0" y="1379.0" type="curve" smooth="yes"/>
      <point x="402.0" y="1379.0"/>
      <point x="274.0" y="1327.0"/>
      <point x="190.0" y="1219.0" type="curve" smooth="yes"/>
      <point x="128.0" y="1138.0"/>
      <point x="100.0" y="1039.0"/>
      <point x="100.0" y="937.0" type="curve" smooth="yes"/>
      <point x="100.0" y="810.0"/>
      <point x="143.0" y="688.0"/>
      <point x="238.0" y="603.0" type="curve" smooth="yes"/>
      <point x="321.0" y="528.0"/>
      <point x="427.0" y="495.0"/>
      <point x="536.0" y="495.0" type="curve" smooth="yes"/>
      <point x="717.0" y="495.0"/>
      <point x="836.0" y="591.0"/>
      <point x="899.0" y="716.0" type="curve"/>
      <point x="895.0" y="608.0"/>
      <point x="890.0" y="512.0"/>
      <point x="862.0" y="406.0" type="curve" smooth="yes"/>
      <point x="817.0" y="233.0"/>
      <point x="709.0" y="46.0"/>
      <point x="509.0" y="46.0" type="curve" smooth="yes"/>
      <point x="374.0" y="46.0"/>
      <point x="278.0" y="156.0"/>
      <point x="249.0" y="280.0" type="curve" smooth="yes"/>
      <point x="244.0" y="303.0"/>
      <point x="208.0" y="311.0"/>
      <point x="188.0" y="311.0" type="curve" smooth="yes"/>
      <point x="163.0" y="311.0"/>
      <point x="128.0" y="302.0"/>
      <point x="128.0" y="274.0" type="curve" smooth="yes"/>
      <point x="128.0" y="271.0"/>
      <point x="129.0" y="268.0"/>
      <point x="129.0" y="265.0" type="curve"/>
      <point x="174.0" y="85.0"/>
      <point x="325.0" y="-24.0"/>
      <point x="509.0" y="-24.0" type="curve" smooth="yes"/>
      <point x="769.0" y="-24.0"/>
      <point x="919.0" y="156.0"/>
      <point x="983.0" y="396.0" type="curve" smooth="yes"/>
      <point x="1009.0" y="495.0"/>
      <point x="1017.0" y="603.0"/>
      <point x="1017.0" y="706.0" type="curve" smooth="yes"/>
      <point x="1017.0" y="791.0"/>
      <point x="1011.0" y="877.0"/>
      <point x="994.0" y="961.0" type="curve" smooth="yes"/>
      <point x="973.0" y="1061.0"/>
      <point x="936.0" y="1159.0"/>
      <point x="870.0" y="1238.0" type="curve" smooth="yes"/>
      <point x="784.0" y="1341.0"/>
      <point x="667.0" y="1379.0"/>
    </contour>
    <contour>
      <point x="536.0" y="1309.0" type="curve" smooth="yes"/>
      <point x="739.0" y="1309.0"/>
      <point x="849.0" y="1126.0"/>
      <point x="849.0" y="937.0" type="curve" smooth="yes"/>
      <point x="849.0" y="748.0"/>
      <point x="739.0" y="565.0"/>
      <point x="536.0" y="565.0" type="curve" smooth="yes"/>
      <point x="333.0" y="565.0"/>
      <point x="223.0" y="748.0"/>
      <point x="223.0" y="937.0" type="curve" smooth="yes"/>
      <point x="223.0" y="1126.0"/>
      <point x="333.0" y="1309.0"/>
    </contour>
  </outline>
</glyph>
<glyph name="colon" format="2">
	<unicode hex="003A"/>
	<advance height="2048" width="435"/>
	<outline>
		<contour>
			<point x="217.5" y="149.999" type="curve" smooth="yes"/>
			<point x="282.892" y="149.999"/>
			<point x="335" y="202.108"/>
			<point x="335" y="267.5" type="curve" smooth="yes"/>
			<point x="335" y="332.891"/>
			<point x="282.892" y="385"/>
			<point x="217.5" y="385" type="curve" smooth="yes"/>
			<point x="152.109" y="385"/>
			<point x="100" y="332.891"/>
			<point x="100" y="267.5" type="curve" smooth="yes"/>
			<point x="100" y="202.108"/>
			<point x="152.109" y="149.999"/>
		</contour>
		<contour>
			<point x="217.5" y="671" type="curve" smooth="yes"/>
			<point x="282.892" y="671"/>
			<point x="335" y="723.108"/>
			<point x="335" y="788.5" type="curve" smooth="yes"/>
			<point x="335" y="853.891"/>
			<point x="282.892" y="906"/>
			<point x="217.5" y="906" type="curve" smooth="yes"/>
			<point x="152.109" y="906"/>
			<point x="100" y="853.891"/>
			<point x="100" y="788.5" type="curve" smooth="yes"/>
			<point x="100" y="723.108"/>
			<point x="152.109" y="671"/>
		</contour>
	</outline>
</glyph>
<glyph name="semicolon" format="2">
	<unicode hex="003B"/>
	<advance height="2048" width="395"/>
	<outline>
		<contour>
			<point x="193" y="497" type="curve" smooth="yes"/>
			<point x="246" y="497"/>
			<point x="285" y="544"/>
			<point x="285" y="589" type="curve" smooth="yes"/>
			<point x="285" y="635"/>
			<point x="246" y="682"/>
			<point x="193" y="682" type="curve" smooth="yes"/>
			<point x="140" y="682"/>
			<point x="100" y="635"/>
			<point x="100" y="589" type="curve" smooth="yes"/>
			<point x="100" y="544"/>
			<point x="140" y="497"/>
		</contour>
		<contour>
			<point x="185" y="-152" type="curve"/>
			<point x="219" y="-137"/>
			<point x="249" y="-102"/>
			<point x="265" y="-72" type="curve" smooth="yes"/>
			<point x="283" y="-38"/>
			<point x="295" y="2"/>
			<point x="295" y="41" type="curve" smooth="yes"/>
			<point x="295" y="74"/>
			<point x="286" y="105"/>
			<point x="264" y="129" type="curve" smooth="yes"/>
			<point x="244" y="150"/>
			<point x="219" y="160"/>
			<point x="191" y="160" type="curve" smooth="yes"/>
			<point x="142" y="160"/>
			<point x="100" y="117"/>
			<point x="100" y="67" type="curve" smooth="yes"/>
			<point x="100" y="23"/>
			<point x="138" y="-26"/>
			<point x="191" y="-26" type="curve" smooth="yes"/>
			<point x="197" y="-26"/>
			<point x="204" y="-24"/>
			<point x="210" y="-23" type="curve"/>
			<point x="207" y="-45"/>
			<point x="200" y="-66"/>
			<point x="191" y="-83" type="curve" smooth="yes"/>
			<point x="178" y="-107"/>
			<point x="160" y="-127"/>
			<point x="131" y="-139" type="curve" smooth="yes"/>
			<point x="124" y="-142"/>
			<point x="122" y="-145"/>
			<point x="122" y="-148" type="curve" smooth="yes"/>
			<point x="122" y="-157"/>
			<point x="134" y="-160"/>
			<point x="146" y="-160" type="curve" smooth="yes"/>
			<point x="162" y="-160"/>
			<point x="179" y="-154"/>
		</contour>
	</outline>
</glyph>
<glyph name="less" format="2">
  <advance height="2048" width="1156.0"/>
  <unicode hex="003C"/>
  <outline>
    <contour>
      <point x="995.0" y="80.0" type="curve" smooth="yes"/>
      <point x="1012.0" y="80.0"/>
      <point x="1028.0" y="84.0"/>
      <point x="1040.0" y="91.0" type="curve" smooth="yes"/>
      <point x="1051.0" y="98.0"/>
      <point x="1056.0" y="106.0"/>
      <point x="1056.0" y="115.0" type="curve" smooth="yes"/>
      <point x="1056.0" y="125.0"/>
      <point x="1049.0" y="134.0"/>
      <point x="1036.0" y="141.0" type="curve" smooth="yes"/>
      <point x="252.0" y="553.0" type="line"/>
      <point x="1036.0" y="964.0" type="line" smooth="yes"/>
      <point x="1049.0" y="971.0"/>
      <point x="1056.0" y="980.0"/>
      <point x="1056.0" y="990.0" type="curve" smooth="yes"/>
      <point x="1056.0" y="999.0"/>
      <point x="1051.0" y="1007.0"/>
      <point x="1040.0" y="1014.0" type="curve" smooth="yes"/>
      <point x="1028.0" y="1021.0"/>
      <point x="1011.0" y="1025.0"/>
      <point x="995.0" y="1025.0" type="curve" smooth="yes"/>
      <point x="980.0" y="1025.0"/>
      <point x="965.0" y="1022.0"/>
      <point x="953.0" y="1016.0" type="curve" smooth="yes"/>
      <point x="120.0" y="578.0" type="line" smooth="yes"/>
      <point x="110.0" y="573.0"/>
      <point x="100.0" y="565.0"/>
      <point x="100.0" y="553.0" type="curve" smooth="yes"/>
      <point x="100.0" y="541.0"/>
      <point x="110.0" y="532.0"/>
      <point x="120.0" y="527.0" type="curve" smooth="yes"/>
      <point x="953.0" y="89.0" type="line" smooth="yes"/>
      <point x="965.0" y="83.0"/>
      <point x="980.0" y="80.0"/>
    </contour>
  </outline>
</glyph>
<glyph name="equal" format="2">
  <advance height="2048" width="1028.0"/>
  <unicode hex="003D"/>
  <outline>
    <contour>
      <point x="866.0" y="720.0" type="line" smooth="yes"/>
      <point x="886.0" y="720.0"/>
      <point x="928.0" y="729.0"/>
      <point x="928.0" y="755.0" type="curve" smooth="yes"/>
      <point x="928.0" y="782.0"/>
      <point x="886.0" y="791.0"/>
      <point x="866.0" y="791.0" type="curve" smooth="yes"/>
      <point x="162.0" y="791.0" type="line" smooth="yes"/>
      <point x="142.0" y="791.0"/>
      <point x="100.0" y="782.0"/>
      <point x="100.0" y="755.0" type="curve" smooth="yes"/>
      <point x="100.0" y="729.0"/>
      <point x="142.0" y="720.0"/>
      <point x="162.0" y="720.0" type="curve" smooth="yes"/>
    </contour>
    <contour>
      <point x="866.0" y="380.0" type="line" smooth="yes"/>
      <point x="886.0" y="380.0"/>
      <point x="928.0" y="389.0"/>
      <point x="928.0" y="415.0" type="curve" smooth="yes"/>
      <point x="928.0" y="442.0"/>
      <point x="886.0" y="451.0"/>
      <point x="866.0" y="451.0" type="curve" smooth="yes"/>
      <point x="162.0" y="451.0" type="line" smooth="yes"/>
      <point x="142.0" y="451.0"/>
      <point x="100.0" y="442.0"/>
      <point x="100.0" y="415.0" type="curve" smooth="yes"/>
      <point x="100.0" y="389.0"/>
      <point x="142.0" y="380.0"/>
      <point x="162.0" y="380.0" type="curve" smooth="yes"/>
    </contour>
  </outline>
</glyph>
<glyph name="question" format="2">
  <advance height="2048" width="1056.0"/>
  <unicode hex="003F"/>
  <outline>
    <contour>
      <point x="524.0" y="235.0" type="curve" smooth="yes"/>
      <point x="544.0" y="235.0"/>
      <point x="584.0" y="245.0"/>
      <point x="584.0" y="270.0" type="curve" smooth="yes"/>
      <point x="583.0" y="341.0" type="line" smooth="yes"/>
      <point x="582.0" y="395.0"/>
      <point x="588.0" y="446.0"/>
      <point x="617.0" y="497.0" type="curve" smooth="yes"/>
      <point x="650.0" y="553.0"/>
      <point x="707.0" y="607.0"/>
      <point x="770.0" y="666.0" type="curve" smooth="yes"/>
      <point x="874.0" y="763.0"/>
      <point x="956.0" y="865.0"/>
      <point x="956.0" y="1017.0" type="curve" smooth="yes"/>
      <point x="956.0" y="1251.0"/>
      <point x="747.0" y="1381.0"/>
      <point x="537.0" y="1381.0" type="curve" smooth="yes"/>
      <point x="405.0" y="1381.0"/>
      <point x="272.0" y="1348.0"/>
      <point x="184.0" y="1240.0" type="curve" smooth="yes"/>
      <point x="127.0" y="1170.0"/>
      <point x="100.0" y="1078.0"/>
      <point x="100.0" y="988.0" type="curve" smooth="yes"/>
      <point x="100.0" y="962.0"/>
      <point x="142.0" y="954.0"/>
      <point x="164.0" y="954.0" type="curve" smooth="yes"/>
      <point x="184.0" y="954.0"/>
      <point x="223.0" y="963.0"/>
      <point x="223.0" y="988.0" type="curve" smooth="yes"/>
      <point x="224.0" y="1068.0"/>
      <point x="245.0" y="1148.0"/>
      <point x="295.0" y="1210.0" type="curve" smooth="yes"/>
      <point x="356.0" y="1284.0"/>
      <point x="445.0" y="1311.0"/>
      <point x="537.0" y="1311.0" type="curve" smooth="yes"/>
      <point x="699.0" y="1311.0"/>
      <point x="833.0" y="1187.0"/>
      <point x="833.0" y="1017.0" type="curve" smooth="yes"/>
      <point x="833.0" y="881.0"/>
      <point x="759.0" y="791.0"/>
      <point x="665.0" y="702.0" type="curve" smooth="yes"/>
      <point x="611.0" y="651.0"/>
      <point x="541.0" y="586.0"/>
      <point x="503.0" y="523.0" type="curve" smooth="yes"/>
      <point x="468.0" y="465.0"/>
      <point x="459.0" y="398.0"/>
      <point x="459.0" y="331.0" type="curve" smooth="yes"/>
      <point x="459.0" y="310.0"/>
      <point x="460.0" y="289.0"/>
      <point x="461.0" y="269.0" type="curve" smooth="yes"/>
      <point x="463.0" y="243.0"/>
      <point x="505.0" y="235.0"/>
    </contour>
    <contour>
      <point x="525.0" y="-24.0" type="curve" smooth="yes"/>
      <point x="568.0" y="-24.0"/>
      <point x="600.0" y="15.0"/>
      <point x="600.0" y="51.0" type="curve" smooth="yes"/>
      <point x="600.0" y="88.0"/>
      <point x="568.0" y="126.0"/>
      <point x="525.0" y="126.0" type="curve" smooth="yes"/>
      <point x="481.0" y="126.0"/>
      <point x="450.0" y="88.0"/>
      <point x="450.0" y="51.0" type="curve" smooth="yes"/>
      <point x="450.0" y="15.0"/>
      <point x="481.0" y="-24.0"/>
    </contour>
  </outline>
</glyph>
<glyph name="at" format="2">
	<unicode hex="0040"/>
	<advance height="2048" width="1907"/>
	<outline>
		<contour>
			<point x="915" y="913" type="curve" smooth="yes"/>
			<point x="651" y="913"/>
			<point x="516" y="668"/>
			<point x="517" y="425" type="curve" smooth="yes"/>
			<point x="518" y="179"/>
			<point x="664" y="-25"/>
			<point x="920" y="-25" type="curve" smooth="yes"/>
			<point x="1055" y="-25"/>
			<point x="1122" y="27"/>
			<point x="1203" y="131" type="curve"/>
			<point x="1239" y="15"/>
			<point x="1281" y="-25"/>
			<point x="1405" y="-24" type="curve" smooth="yes"/>
			<point x="1526" y="-22"/>
			<point x="1623" y="37"/>
			<point x="1693" y="135" type="curve" smooth="yes"/>
			<point x="1772" y="246"/>
			<point x="1807" y="392"/>
			<point x="1807" y="528" type="curve" smooth="yes"/>
			<point x="1808" y="761"/>
			<point x="1742" y="987"/>
			<point x="1572" y="1152" type="curve" smooth="yes"/>
			<point x="1414" y="1305"/>
			<point x="1198" y="1376"/>
			<point x="982" y="1377" type="curve" smooth="yes"/>
			<point x="745" y="1378"/>
			<point x="509" y="1294"/>
			<point x="341" y="1121" type="curve" smooth="yes"/>
			<point x="169" y="943"/>
			<point x="100" y="705"/>
			<point x="100" y="461" type="curve"/>
			<point x="99" y="178"/>
			<point x="200" y="-86"/>
			<point x="435" y="-252" type="curve" smooth="yes"/>
			<point x="579" y="-354"/>
			<point x="755" y="-403"/>
			<point x="930" y="-403" type="curve" smooth="yes"/>
			<point x="1026" y="-403"/>
			<point x="1121" y="-388"/>
			<point x="1212" y="-358" type="curve" smooth="yes"/>
			<point x="1225" y="-354"/>
			<point x="1243" y="-344"/>
			<point x="1243" y="-328" type="curve" smooth="yes"/>
			<point x="1243" y="-321"/>
			<point x="1239" y="-315"/>
			<point x="1235" y="-311" type="curve" smooth="yes"/>
			<point x="1222" y="-298"/>
			<point x="1199" y="-293"/>
			<point x="1182" y="-293" type="curve" smooth="yes"/>
			<point x="1172" y="-293"/>
			<point x="1161" y="-295"/>
			<point x="1151" y="-298" type="curve" smooth="yes"/>
			<point x="1079" y="-321"/>
			<point x="1004" y="-333"/>
			<point x="929" y="-333" type="curve" smooth="yes"/>
			<point x="787" y="-334"/>
			<point x="647" y="-291"/>
			<point x="530" y="-208" type="curve" smooth="yes"/>
			<point x="311" y="-54"/>
			<point x="222" y="199"/>
			<point x="222" y="461" type="curve" smooth="yes"/>
			<point x="223" y="692"/>
			<point x="286" y="919"/>
			<point x="449" y="1087" type="curve" smooth="yes"/>
			<point x="589" y="1232"/>
			<point x="783" y="1308"/>
			<point x="982" y="1307" type="curve" smooth="yes"/>
			<point x="1160" y="1307"/>
			<point x="1336" y="1243"/>
			<point x="1466" y="1117" type="curve" smooth="yes"/>
			<point x="1625" y="962"/>
			<point x="1686" y="747"/>
			<point x="1685" y="528" type="curve" smooth="yes"/>
			<point x="1684" y="400"/>
			<point x="1653" y="265"/>
			<point x="1579" y="161" type="curve" smooth="yes"/>
			<point x="1540" y="105"/>
			<point x="1477" y="45"/>
			<point x="1405" y="46" type="curve" smooth="yes"/>
			<point x="1280" y="46"/>
			<point x="1292" y="216"/>
			<point x="1305" y="301" type="curve" smooth="yes"/>
			<point x="1388" y="876" type="line"/>
			<point x="1388" y="877"/>
			<point x="1388" y="878"/>
			<point x="1388" y="878" type="curve"/>
			<point x="1388" y="903"/>
			<point x="1349" y="912"/>
			<point x="1330" y="913" type="curve"/>
			<point x="1310" y="913"/>
			<point x="1268" y="905"/>
			<point x="1266" y="879" type="curve"/>
			<point x="1243" y="717" type="line"/>
			<point x="1157" y="849"/>
			<point x="1082" y="913"/>
		</contour>
		<contour>
			<point x="917" y="45" type="curve" smooth="yes"/>
			<point x="720" y="45"/>
			<point x="643" y="258"/>
			<point x="640" y="428" type="curve" smooth="yes"/>
			<point x="638" y="592"/>
			<point x="726" y="845"/>
			<point x="921" y="843" type="curve" smooth="yes"/>
			<point x="1139" y="840"/>
			<point x="1212" y="579"/>
			<point x="1193" y="397" type="curve" smooth="yes"/>
			<point x="1177" y="247"/>
			<point x="1091" y="45"/>
		</contour>
	</outline>
</glyph>
<glyph name="A" format="2">
	<unicode hex="0041"/>
	<advance height="2048" width="1333"/>
	<outline>
		<contour>
			<point x="594" y="1356" type="curve" smooth="yes"/>
			<point x="26" y="-2" type="line"/>
			<point x="25" y="-3"/>
			<point x="25" y="-4"/>
			<point x="25" y="-5" type="curve" smooth="yes"/>
			<point x="25" y="-17"/>
			<point x="47" y="-23"/>
			<point x="55" y="-24" type="curve"/>
			<point x="57" y="-24"/>
			<point x="60" y="-24"/>
			<point x="62" y="-24" type="curve" smooth="yes"/>
			<point x="76" y="-24"/>
			<point x="97" y="-21"/>
			<point x="102" y="-9" type="curve" smooth="yes"/>
			<point x="294" y="448" type="line"/>
			<point x="979" y="448" type="line"/>
			<point x="1169" y="3" type="line" smooth="yes"/>
			<point x="1178" y="-18"/>
			<point x="1217" y="-24"/>
			<point x="1237" y="-24" type="curve" smooth="yes"/>
			<point x="1243" y="-24"/>
			<point x="1248" y="-24"/>
			<point x="1253" y="-23" type="curve"/>
			<point x="1270" y="-21"/>
			<point x="1308" y="-12"/>
			<point x="1308" y="10" type="curve" smooth="yes"/>
			<point x="1308" y="12"/>
			<point x="1307" y="15"/>
			<point x="1306" y="17" type="curve"/>
			<point x="735" y="1354" type="line" smooth="yes"/>
			<point x="725" y="1378"/>
			<point x="685" y="1381"/>
			<point x="664" y="1381" type="curve" smooth="yes"/>
			<point x="646" y="1381"/>
			<point x="602" y="1375"/>
		</contour>
		<contour>
			<point x="949" y="518" type="line"/>
			<point x="323" y="518" type="line"/>
			<point x="633" y="1259" type="line"/>
		</contour>
	</outline>
</glyph>
<glyph name="B" format="2">
	<unicode hex="0042"/>
	<advance height="2048" width="1250"/>
	<outline>
		<contour>
			<point x="722" y="1357" type="curve" smooth="yes"/>
			<point x="162" y="1357" type="line" smooth="yes"/>
			<point x="142" y="1357"/>
			<point x="100" y="1348"/>
			<point x="100" y="1322" type="curve" smooth="yes"/>
			<point x="100" y="35" type="line" smooth="yes"/>
			<point x="100" y="8"/>
			<point x="143" y="0"/>
			<point x="162" y="0" type="curve" smooth="yes"/>
			<point x="779" y="0" type="line" smooth="yes"/>
			<point x="977" y="0"/>
			<point x="1150" y="149"/>
			<point x="1150" y="357" type="curve" smooth="yes"/>
			<point x="1150" y="519"/>
			<point x="1052" y="634"/>
			<point x="909" y="692" type="curve"/>
			<point x="1018" y="763"/>
			<point x="1085" y="866"/>
			<point x="1085" y="1000" type="curve" smooth="yes"/>
			<point x="1085" y="1205"/>
			<point x="919" y="1357"/>
		</contour>
		<contour>
			<point x="223" y="643" type="line"/>
			<point x="779" y="643" type="line" smooth="yes"/>
			<point x="924" y="643"/>
			<point x="1027" y="495"/>
			<point x="1027" y="357" type="curve" smooth="yes"/>
			<point x="1027" y="219"/>
			<point x="924" y="70"/>
			<point x="779" y="70" type="curve" smooth="yes"/>
			<point x="223" y="70" type="line"/>
		</contour>
		<contour>
			<point x="722" y="714" type="curve" smooth="yes"/>
			<point x="223" y="714" type="line"/>
			<point x="223" y="1287" type="line"/>
			<point x="722" y="1287" type="line" smooth="yes"/>
			<point x="865" y="1287"/>
			<point x="962" y="1134"/>
			<point x="962" y="1000" type="curve" smooth="yes"/>
			<point x="962" y="866"/>
			<point x="865" y="714"/>
		</contour>
	</outline>
</glyph>
<glyph name="C" format="2">
	<unicode hex="0043"/>
	<advance height="2048" width="1302"/>
	<outline>
		<contour>
			<point x="1252" y="404" type="curve" smooth="yes"/>
			<point x="1252" y="427"/>
			<point x="1221" y="438"/>
			<point x="1190" y="438" type="curve" smooth="yes"/>
			<point x="1162" y="438"/>
			<point x="1133" y="428"/>
			<point x="1130" y="408" type="curve" smooth="yes"/>
			<point x="1094" y="193"/>
			<point x="890" y="46"/>
			<point x="677" y="46" type="curve" smooth="yes"/>
			<point x="324" y="46"/>
			<point x="173" y="371"/>
			<point x="173" y="682" type="curve" smooth="yes"/>
			<point x="173" y="998"/>
			<point x="341" y="1311"/>
			<point x="693" y="1311" type="curve" smooth="yes"/>
			<point x="901" y="1311"/>
			<point x="1098" y="1169"/>
			<point x="1127" y="950" type="curve" smooth="yes"/>
			<point x="1130" y="929"/>
			<point x="1159" y="918"/>
			<point x="1187" y="918" type="curve" smooth="yes"/>
			<point x="1218" y="918"/>
			<point x="1250" y="930"/>
			<point x="1250" y="952" type="curve" smooth="yes"/>
			<point x="1250" y="960"/>
			<point x="1248" y="970"/>
			<point x="1246" y="978" type="curve"/>
			<point x="1200" y="1238"/>
			<point x="939" y="1381"/>
			<point x="693" y="1381" type="curve" smooth="yes"/>
			<point x="281" y="1381"/>
			<point x="50" y="1074"/>
			<point x="50" y="682" type="curve" smooth="yes"/>
			<point x="50" y="293"/>
			<point x="260" y="-24"/>
			<point x="677" y="-24" type="curve" smooth="yes"/>
			<point x="929" y="-24"/>
			<point x="1193" y="121"/>
			<point x="1248" y="380" type="curve" smooth="yes"/>
			<point x="1250" y="389"/>
			<point x="1252" y="395"/>
		</contour>
	</outline>
</glyph>
<glyph name="D" format="2">
  <advance height="2048" width="1275.0"/>
  <unicode hex="0044"/>
  <outline>
    <contour>
      <point x="627.0" y="0.0" type="line" smooth="yes"/>
      <point x="1010.0" y="0.0"/>
      <point x="1225.0" y="308.0"/>
      <point x="1225.0" y="674.0" type="curve" smooth="yes"/>
      <point x="1225.0" y="1039.0"/>
      <point x="1011.0" y="1357.0"/>
      <point x="627.0" y="1357.0" type="curve" smooth="yes"/>
      <point x="161.0" y="1357.0" type="line" smooth="yes"/>
      <point x="142.0" y="1357.0"/>
      <point x="100.0" y="1348.0"/>
      <point x="100.0" y="1322.0" type="curve" smooth="yes"/>
      <point x="100.0" y="35.0" type="line" smooth="yes"/>
      <point x="100.0" y="9.0"/>
      <point x="142.0" y="0.0"/>
      <point x="161.0" y="0.0" type="curve" smooth="yes"/>
    </contour>
    <contour>
      <point x="627.0" y="70.0" type="curve" smooth="yes"/>
      <point x="223.0" y="70.0" type="line"/>
      <point x="223.0" y="1287.0" type="line"/>
      <point x="627.0" y="1287.0" type="line" smooth="yes"/>
      <point x="949.0" y="1287.0"/>
      <point x="1103.0" y="962.0"/>
      <point x="1103.0" y="675.0" type="curve" smooth="yes"/>
      <point x="1103.0" y="386.0"/>
      <point x="949.0" y="70.0"/>
    </contour>
  </outline>
</glyph>
<glyph name="E" format="2">
	<unicode hex="0045"/>
	<advance height="2048" width="1204"/>
	<outline>
		<contour>
			<point x="1067" y="0" type="line" smooth="yes"/>
			<point x="1087" y="0"/>
			<point x="1129" y="9"/>
			<point x="1129" y="35" type="curve" smooth="yes"/>
			<point x="1129" y="62"/>
			<point x="1087" y="70"/>
			<point x="1067" y="70" type="curve" smooth="yes"/>
			<point x="223" y="70" type="line"/>
			<point x="223" y="645" type="line"/>
			<point x="940" y="645" type="line" smooth="yes"/>
			<point x="959" y="645"/>
			<point x="1001" y="654"/>
			<point x="1001" y="680" type="curve" smooth="yes"/>
			<point x="1001" y="706"/>
			<point x="959" y="715"/>
			<point x="940" y="715" type="curve" smooth="yes"/>
			<point x="223" y="715" type="line"/>
			<point x="223" y="1288" type="line"/>
			<point x="1067" y="1288" type="line" smooth="yes"/>
			<point x="1087" y="1288"/>
			<point x="1129" y="1297"/>
			<point x="1129" y="1323" type="curve" smooth="yes"/>
			<point x="1129" y="1349"/>
			<point x="1087" y="1358"/>
			<point x="1067" y="1358" type="curve" smooth="yes"/>
			<point x="169" y="1358" type="line" smooth="yes"/>
			<point x="149" y="1358"/>
			<point x="100" y="1345"/>
			<point x="100" y="1319" type="curve" smooth="yes"/>
			<point x="100" y="39" type="line" smooth="yes"/>
			<point x="100" y="13"/>
			<point x="149" y="0"/>
			<point x="169" y="0" type="curve" smooth="yes"/>
		</contour>
	</outline>
</glyph>
<glyph name="F" format="2">
	<unicode hex="0046"/>
	<advance height="2048" width="1113"/>
	<outline>
		<contour>
			<point x="161" y="-24" type="curve" smooth="yes"/>
			<point x="181" y="-24"/>
			<point x="223" y="-15"/>
			<point x="223" y="11" type="curve" smooth="yes"/>
			<point x="223" y="637" type="line"/>
			<point x="883" y="637" type="line" smooth="yes"/>
			<point x="903" y="637"/>
			<point x="945" y="646"/>
			<point x="945" y="672" type="curve" smooth="yes"/>
			<point x="945" y="698"/>
			<point x="903" y="707"/>
			<point x="883" y="707" type="curve" smooth="yes"/>
			<point x="223" y="707" type="line"/>
			<point x="223" y="1287" type="line"/>
			<point x="1002" y="1287" type="line" smooth="yes"/>
			<point x="1021" y="1287"/>
			<point x="1063" y="1296"/>
			<point x="1063" y="1322" type="curve" smooth="yes"/>
			<point x="1063" y="1348"/>
			<point x="1021" y="1357"/>
			<point x="1002" y="1357" type="curve" smooth="yes"/>
			<point x="161" y="1357" type="line" smooth="yes"/>
			<point x="142" y="1357"/>
			<point x="100" y="1348"/>
			<point x="100" y="1322" type="curve" smooth="yes"/>
			<point x="100" y="11" type="line" smooth="yes"/>
			<point x="100" y="-15"/>
			<point x="142" y="-24"/>
		</contour>
	</outline>
</glyph>
<glyph name="G" format="2">
	<unicode hex="0047"/>
	<advance height="2048" width="1411"/>
	<outline>
		<contour>
			<point x="1140" y="105" type="curve" smooth="yes"/>
			<point x="1221" y="163"/>
			<point x="1336" y="301"/>
			<point x="1336" y="406" type="curve" smooth="yes"/>
			<point x="1336" y="638" type="line" smooth="yes"/>
			<point x="1336" y="664"/>
			<point x="1295" y="673"/>
			<point x="1275" y="673" type="curve" smooth="yes"/>
			<point x="728" y="673" type="line" smooth="yes"/>
			<point x="708" y="673"/>
			<point x="666" y="665"/>
			<point x="666" y="638" type="curve" smooth="yes"/>
			<point x="666" y="612"/>
			<point x="708" y="603"/>
			<point x="728" y="603" type="curve" smooth="yes"/>
			<point x="1214" y="603" type="line"/>
			<point x="1214" y="407" type="line" smooth="yes"/>
			<point x="1214" y="295"/>
			<point x="1128" y="209"/>
			<point x="1044" y="148" type="curve" smooth="yes"/>
			<point x="952" y="81"/>
			<point x="837" y="46"/>
			<point x="723" y="46" type="curve" smooth="yes"/>
			<point x="357" y="46"/>
			<point x="173" y="340"/>
			<point x="173" y="678" type="curve" smooth="yes"/>
			<point x="173" y="1017"/>
			<point x="375" y="1311"/>
			<point x="736" y="1311" type="curve" smooth="yes"/>
			<point x="950" y="1311"/>
			<point x="1180" y="1180"/>
			<point x="1211" y="950" type="curve" smooth="yes"/>
			<point x="1214" y="926"/>
			<point x="1253" y="918"/>
			<point x="1273" y="918" type="curve" smooth="yes"/>
			<point x="1291" y="918"/>
			<point x="1334" y="927"/>
			<point x="1334" y="953" type="curve" smooth="yes"/>
			<point x="1334" y="964"/>
			<point x="1330" y="982"/>
			<point x="1327" y="993" type="curve" smooth="yes"/>
			<point x="1269" y="1253"/>
			<point x="982" y="1381"/>
			<point x="736" y="1381" type="curve" smooth="yes"/>
			<point x="315" y="1381"/>
			<point x="50" y="1093"/>
			<point x="50" y="678" type="curve" smooth="yes"/>
			<point x="50" y="265"/>
			<point x="300" y="-24"/>
			<point x="723" y="-24" type="curve" smooth="yes"/>
			<point x="867" y="-24"/>
			<point x="1022" y="20"/>
		</contour>
	</outline>
</glyph>
<glyph name="H" format="2">
	<unicode hex="0048"/>
	<advance height="2048" width="1306"/>
	<outline>
		<contour>
			<point x="1144" y="-24" type="curve" smooth="yes"/>
			<point x="1164" y="-24"/>
			<point x="1206" y="-15"/>
			<point x="1206" y="11" type="curve" smooth="yes"/>
			<point x="1206" y="1346" type="line" smooth="yes"/>
			<point x="1206" y="1372"/>
			<point x="1164" y="1381"/>
			<point x="1144" y="1381" type="curve" smooth="yes"/>
			<point x="1125" y="1381"/>
			<point x="1083" y="1372"/>
			<point x="1083" y="1346" type="curve" smooth="yes"/>
			<point x="1083" y="713" type="line"/>
			<point x="223" y="713" type="line"/>
			<point x="223" y="1346" type="line" smooth="yes"/>
			<point x="223" y="1372"/>
			<point x="181" y="1381"/>
			<point x="162" y="1381" type="curve" smooth="yes"/>
			<point x="142" y="1381"/>
			<point x="100" y="1372"/>
			<point x="100" y="1346" type="curve" smooth="yes"/>
			<point x="100" y="11" type="line" smooth="yes"/>
			<point x="100" y="-15"/>
			<point x="142" y="-24"/>
			<point x="162" y="-24" type="curve" smooth="yes"/>
			<point x="181" y="-24"/>
			<point x="223" y="-15"/>
			<point x="223" y="11" type="curve" smooth="yes"/>
			<point x="223" y="643" type="line"/>
			<point x="1083" y="643" type="line"/>
			<point x="1083" y="11" type="line" smooth="yes"/>
			<point x="1083" y="-15"/>
			<point x="1125" y="-24"/>
		</contour>
	</outline>
</glyph>
<glyph name="I" format="2">
  <advance height="2048" width="223.0"/>
  <unicode hex="0049"/>
  <outline>
    <contour>
      <point x="111.0" y="-23.0" type="curve" smooth="yes"/>
      <point x="131.0" y="-23.0"/>
      <point x="173.0" y="-14.0"/>
      <point x="173.0" y="12.0" type="curve" smooth="yes"/>
      <point x="173.0" y="1346.0" type="line" smooth="yes"/>
      <point x="173.0" y="1372.0"/>
      <point x="131.0" y="1381.0"/>
      <point x="111.0" y="1381.0" type="curve" smooth="yes"/>
      <point x="92.0" y="1381.0"/>
      <point x="50.0" y="1372.0"/>
      <point x="50.0" y="1346.0" type="curve" smooth="yes"/>
      <point x="50.0" y="12.0" type="line" smooth="yes"/>
      <point x="50.0" y="-14.0"/>
      <point x="92.0" y="-23.0"/>
    </contour>
  </outline>
</glyph>
<glyph name="J" format="2">
	<unicode hex="004A"/>
	<advance height="2048" width="886"/>
	<outline>
		<contour>
			<point x="25" y="326" type="curve" smooth="yes"/>
			<point x="25" y="105"/>
			<point x="199" y="-25"/>
			<point x="404" y="-24" type="curve" smooth="yes"/>
			<point x="613" y="-24"/>
			<point x="786" y="108"/>
			<point x="786" y="331" type="curve" smooth="yes"/>
			<point x="786" y="1346" type="line" smooth="yes"/>
			<point x="786" y="1373"/>
			<point x="744" y="1381"/>
			<point x="724" y="1381" type="curve" smooth="yes"/>
			<point x="705" y="1381"/>
			<point x="663" y="1373"/>
			<point x="663" y="1346" type="curve" smooth="yes"/>
			<point x="663" y="331" type="line" smooth="yes"/>
			<point x="663" y="176"/>
			<point x="564" y="46"/>
			<point x="404" y="45" type="curve" smooth="yes"/>
			<point x="246" y="45"/>
			<point x="148" y="172"/>
			<point x="148" y="326" type="curve" smooth="yes"/>
			<point x="148" y="352"/>
			<point x="106" y="361"/>
			<point x="87" y="361" type="curve" smooth="yes"/>
			<point x="67" y="361"/>
			<point x="25" y="352"/>
		</contour>
	</outline>
</glyph>
<glyph name="K" format="2">
  <advance height="2048" width="1187.0"/>
  <unicode hex="004B"/>
  <outline>
    <contour>
      <point x="1084.0" y="-24.0" type="curve" smooth="yes"/>
      <point x="1093.0" y="-24.0"/>
      <point x="1102.0" y="-23.0"/>
      <point x="1110.0" y="-22.0" type="curve"/>
      <point x="1127.0" y="-19.0"/>
      <point x="1162.0" y="-6.0"/>
      <point x="1162.0" y="14.0" type="curve" smooth="yes"/>
      <point x="1162.0" y="19.0"/>
      <point x="1161.0" y="23.0"/>
      <point x="1157.0" y="28.0" type="curve" smooth="yes"/>
      <point x="589.0" y="810.0" type="line"/>
      <point x="1154.0" y="1345.0" type="line" smooth="yes"/>
      <point x="1158.0" y="1349.0"/>
      <point x="1160.0" y="1352.0"/>
      <point x="1160.0" y="1356.0" type="curve" smooth="yes"/>
      <point x="1160.0" y="1366.0"/>
      <point x="1144.0" y="1374.0"/>
      <point x="1134.0" y="1377.0" type="curve" smooth="yes"/>
      <point x="1127.0" y="1379.0"/>
      <point x="1119.0" y="1380.0"/>
      <point x="1110.0" y="1380.0" type="curve" smooth="yes"/>
      <point x="1094.0" y="1380.0"/>
      <point x="1075.0" y="1376.0"/>
      <point x="1065.0" y="1367.0" type="curve" smooth="yes"/>
      <point x="223.0" y="569.0" type="line"/>
      <point x="223.0" y="1350.0" type="line" smooth="yes"/>
      <point x="223.0" y="1374.0"/>
      <point x="178.0" y="1380.0"/>
      <point x="161.0" y="1380.0" type="curve" smooth="yes"/>
      <point x="145.0" y="1380.0"/>
      <point x="100.0" y="1374.0"/>
      <point x="100.0" y="1350.0" type="curve" smooth="yes"/>
      <point x="100.0" y="6.0" type="line" smooth="yes"/>
      <point x="100.0" y="-18.0"/>
      <point x="145.0" y="-24.0"/>
      <point x="161.0" y="-24.0" type="curve" smooth="yes"/>
      <point x="178.0" y="-24.0"/>
      <point x="223.0" y="-18.0"/>
      <point x="223.0" y="6.0" type="curve" smooth="yes"/>
      <point x="223.0" y="463.0" type="line"/>
      <point x="489.0" y="715.0" type="line"/>
      <point x="1007.0" y="2.0" type="line" smooth="yes"/>
      <point x="1021.0" y="-17.0"/>
      <point x="1055.0" y="-24.0"/>
    </contour>
  </outline>
</glyph>
<glyph name="L" format="2">
  <advance height="2048" width="1019.0"/>
  <unicode hex="004C"/>
  <outline>
    <contour>
      <point x="932.0" y="0.0" type="line" smooth="yes"/>
      <point x="952.0" y="0.0"/>
      <point x="994.0" y="9.0"/>
      <point x="994.0" y="35.0" type="curve" smooth="yes"/>
      <point x="994.0" y="61.0"/>
      <point x="952.0" y="70.0"/>
      <point x="932.0" y="70.0" type="curve" smooth="yes"/>
      <point x="223.0" y="70.0" type="line"/>
      <point x="223.0" y="1346.0" type="line" smooth="yes"/>
      <point x="223.0" y="1372.0"/>
      <point x="181.0" y="1381.0"/>
      <point x="162.0" y="1381.0" type="curve" smooth="yes"/>
      <point x="142.0" y="1381.0"/>
      <point x="100.0" y="1372.0"/>
      <point x="100.0" y="1346.0" type="curve" smooth="yes"/>
      <point x="100.0" y="35.0" type="line" smooth="yes"/>
      <point x="100.0" y="9.0"/>
      <point x="142.0" y="0.0"/>
      <point x="162.0" y="0.0" type="curve" smooth="yes"/>
    </contour>
  </outline>
</glyph>
<glyph name="M" format="2">
  <advance height="2048" width="1509.0"/>
  <unicode hex="004D"/>
  <outline>
    <contour>
      <point x="758.0" y="-24.0" type="curve" smooth="yes"/>
      <point x="777.0" y="-24.0"/>
      <point x="819.0" y="-19.0"/>
      <point x="827.0" y="2.0" type="curve" smooth="yes"/>
      <point x="1286.0" y="1166.0" type="line"/>
      <point x="1286.0" y="10.0" type="line" smooth="yes"/>
      <point x="1286.0" y="-16.0"/>
      <point x="1329.0" y="-23.0"/>
      <point x="1348.0" y="-23.0" type="curve" smooth="yes"/>
      <point x="1366.0" y="-23.0"/>
      <point x="1409.0" y="-16.0"/>
      <point x="1409.0" y="10.0" type="curve" smooth="yes"/>
      <point x="1409.0" y="1346.0" type="line" smooth="yes"/>
      <point x="1409.0" y="1374.0"/>
      <point x="1368.0" y="1381.0"/>
      <point x="1347.0" y="1381.0" type="curve" smooth="yes"/>
      <point x="1330.0" y="1381.0"/>
      <point x="1288.0" y="1374.0"/>
      <point x="1281.0" y="1356.0" type="curve" smooth="yes"/>
      <point x="786.0" y="106.0" type="line"/>
      <point x="244.0" y="1355.0" type="line" smooth="yes"/>
      <point x="235.0" y="1377.0"/>
      <point x="202.0" y="1381.0"/>
      <point x="180.0" y="1381.0" type="curve" smooth="yes"/>
      <point x="159.0" y="1381.0"/>
      <point x="100.0" y="1374.0"/>
      <point x="100.0" y="1346.0" type="curve" smooth="yes"/>
      <point x="100.0" y="-6.0" type="line" smooth="yes"/>
      <point x="100.0" y="-22.0"/>
      <point x="129.0" y="-23.0"/>
      <point x="139.0" y="-23.0" type="curve" smooth="yes"/>
      <point x="149.0" y="-23.0"/>
      <point x="178.0" y="-22.0"/>
      <point x="178.0" y="-6.0" type="curve" smooth="yes"/>
      <point x="178.0" y="1173.0" type="line"/>
      <point x="687.0" y="3.0" type="line" smooth="yes"/>
      <point x="697.0" y="-19.0"/>
      <point x="738.0" y="-24.0"/>
    </contour>
  </outline>
</glyph>
<glyph name="N" format="2">
  <advance height="2048" width="1318.0"/>
  <unicode hex="004E"/>
  <outline>
    <contour>
      <point x="1138.0" y="-24.0" type="curve" smooth="yes"/>
      <point x="1163.0" y="-24.0"/>
      <point x="1218.0" y="-15.0"/>
      <point x="1218.0" y="20.0" type="curve" smooth="yes"/>
      <point x="1218.0" y="1360.0" type="line" smooth="yes"/>
      <point x="1218.0" y="1376.0"/>
      <point x="1191.0" y="1381.0"/>
      <point x="1179.0" y="1381.0" type="curve" smooth="yes"/>
      <point x="1167.0" y="1381.0"/>
      <point x="1140.0" y="1376.0"/>
      <point x="1140.0" y="1360.0" type="curve" smooth="yes"/>
      <point x="1140.0" y="126.0" type="line"/>
      <point x="253.0" y="1355.0" type="line" smooth="yes"/>
      <point x="239.0" y="1375.0"/>
      <point x="203.0" y="1381.0"/>
      <point x="180.0" y="1381.0" type="curve" smooth="yes"/>
      <point x="153.0" y="1381.0"/>
      <point x="100.0" y="1372.0"/>
      <point x="100.0" y="1336.0" type="curve" smooth="yes"/>
      <point x="100.0" y="-4.0" type="line" smooth="yes"/>
      <point x="100.0" y="-20.0"/>
      <point x="127.0" y="-24.0"/>
      <point x="139.0" y="-24.0" type="curve" smooth="yes"/>
      <point x="151.0" y="-24.0"/>
      <point x="178.0" y="-20.0"/>
      <point x="178.0" y="-4.0" type="curve" smooth="yes"/>
      <point x="178.0" y="1231.0" type="line"/>
      <point x="1064.0" y="1.0" type="line" smooth="yes"/>
      <point x="1078.0" y="-18.0"/>
      <point x="1115.0" y="-24.0"/>
    </contour>
  </outline>
</glyph>
<glyph name="O" format="2">
  <advance height="2048" width="1406.0"/>
  <unicode hex="004F"/>
  <outline>
    <contour>
      <point x="703.0" y="-24.0" type="curve" smooth="yes"/>
      <point x="1104.0" y="-24.0"/>
      <point x="1356.0" y="283.0"/>
      <point x="1356.0" y="678.0" type="curve" smooth="yes"/>
      <point x="1356.0" y="1073.0"/>
      <point x="1104.0" y="1381.0"/>
      <point x="703.0" y="1381.0" type="curve" smooth="yes"/>
      <point x="302.0" y="1381.0"/>
      <point x="50.0" y="1073.0"/>
      <point x="50.0" y="678.0" type="curve" smooth="yes"/>
      <point x="50.0" y="283.0"/>
      <point x="302.0" y="-24.0"/>
    </contour>
    <contour>
      <point x="703.0" y="46.0" type="curve" smooth="yes"/>
      <point x="358.0" y="46.0"/>
      <point x="173.0" y="357.0"/>
      <point x="173.0" y="678.0" type="curve" smooth="yes"/>
      <point x="173.0" y="1000.0"/>
      <point x="358.0" y="1311.0"/>
      <point x="703.0" y="1311.0" type="curve" smooth="yes"/>
      <point x="1048.0" y="1311.0"/>
      <point x="1233.0" y="1000.0"/>
      <point x="1233.0" y="678.0" type="curve" smooth="yes"/>
      <point x="1233.0" y="357.0"/>
      <point x="1048.0" y="46.0"/>
    </contour>
  </outline>
</glyph>
<glyph name="P" format="2">
	<unicode hex="0050"/>
	<advance height="2048" width="1232"/>
	<outline>
		<contour>
			<point x="162" y="-24" type="curve" smooth="yes"/>
			<point x="181" y="-24"/>
			<point x="223" y="-15"/>
			<point x="223" y="11" type="curve" smooth="yes"/>
			<point x="223" y="635" type="line"/>
			<point x="791" y="635" type="line" smooth="yes"/>
			<point x="992" y="635"/>
			<point x="1182" y="781"/>
			<point x="1182" y="996" type="curve" smooth="yes"/>
			<point x="1182" y="1212"/>
			<point x="992" y="1357"/>
			<point x="791" y="1357" type="curve" smooth="yes"/>
			<point x="162" y="1357" type="line" smooth="yes"/>
			<point x="142" y="1357"/>
			<point x="100" y="1348"/>
			<point x="100" y="1322" type="curve" smooth="yes"/>
			<point x="100" y="11" type="line" smooth="yes"/>
			<point x="100" y="-15"/>
			<point x="142" y="-24"/>
		</contour>
		<contour>
			<point x="791" y="705" type="curve" smooth="yes"/>
			<point x="223" y="705" type="line"/>
			<point x="223" y="1287" type="line"/>
			<point x="791" y="1287" type="line" smooth="yes"/>
			<point x="942" y="1287"/>
			<point x="1059" y="1145"/>
			<point x="1059" y="996" type="curve" smooth="yes"/>
			<point x="1059" y="847"/>
			<point x="942" y="705"/>
		</contour>
	</outline>
</glyph>
<glyph name="Q" format="2">
	<unicode hex="0051"/>
	<advance height="2048" width="1439"/>
	<outline>
		<contour>
			<point x="703" y="1381" type="curve" smooth="yes"/>
			<point x="302" y="1381"/>
			<point x="50" y="1074"/>
			<point x="50" y="678" type="curve" smooth="yes"/>
			<point x="50" y="283"/>
			<point x="302" y="-24"/>
			<point x="703" y="-24" type="curve" smooth="yes"/>
			<point x="860" y="-24"/>
			<point x="982" y="15"/>
			<point x="1108" y="110" type="curve"/>
			<point x="1166" y="49"/>
			<point x="1215" y="12"/>
			<point x="1293" y="-18" type="curve" smooth="yes"/>
			<point x="1318" y="-28"/>
			<point x="1357" y="-27"/>
			<point x="1378" y="-9" type="curve" smooth="yes"/>
			<point x="1401" y="10"/>
			<point x="1384" y="31"/>
			<point x="1362" y="40" type="curve" smooth="yes"/>
			<point x="1285" y="69"/>
			<point x="1233" y="118"/>
			<point x="1185" y="185" type="curve"/>
			<point x="1301" y="322"/>
			<point x="1356" y="499"/>
			<point x="1356" y="678" type="curve" smooth="yes"/>
			<point x="1356" y="1074"/>
			<point x="1104" y="1381"/>
		</contour>
		<contour>
			<point x="691" y="497" type="curve" smooth="yes"/>
			<point x="902" y="474"/>
			<point x="951" y="347"/>
			<point x="1051" y="188" type="curve"/>
			<point x="954" y="92"/>
			<point x="839" y="46"/>
			<point x="703" y="46" type="curve" smooth="yes"/>
			<point x="358" y="46"/>
			<point x="173" y="357"/>
			<point x="173" y="678" type="curve" smooth="yes"/>
			<point x="173" y="1000"/>
			<point x="358" y="1311"/>
			<point x="703" y="1311" type="curve" smooth="yes"/>
			<point x="1048" y="1311"/>
			<point x="1233" y="1000"/>
			<point x="1233" y="678" type="curve" smooth="yes"/>
			<point x="1233" y="527"/>
			<point x="1198" y="412"/>
			<point x="1125" y="281" type="curve"/>
			<point x="1029" y="438"/>
			<point x="901" y="571"/>
			<point x="703" y="566" type="curve" smooth="yes"/>
			<point x="678" y="566"/>
			<point x="641" y="557"/>
			<point x="641" y="531" type="curve" smooth="yes"/>
			<point x="641" y="509"/>
			<point x="674" y="499"/>
		</contour>
	</outline>
</glyph>
<glyph name="R" format="2">
  <advance height="2048" width="1303.0"/>
  <unicode hex="0052"/>
  <outline>
    <contour>
      <point x="1192.0" y="-24.0" type="curve" smooth="yes"/>
      <point x="1208.0" y="-24.0"/>
      <point x="1225.0" y="-19.0"/>
      <point x="1237.0" y="-12.0" type="curve" smooth="yes"/>
      <point x="1248.0" y="-5.0"/>
      <point x="1253.0" y="3.0"/>
      <point x="1253.0" y="11.0" type="curve" smooth="yes"/>
      <point x="1253.0" y="21.0"/>
      <point x="1246.0" y="31.0"/>
      <point x="1233.0" y="37.0" type="curve" smooth="yes"/>
      <point x="1118.0" y="97.0"/>
      <point x="1061.0" y="226.0"/>
      <point x="1006.0" y="352.0" type="curve" smooth="yes"/>
      <point x="956.0" y="466.0"/>
      <point x="919.0" y="554.0"/>
      <point x="822.0" y="636.0" type="curve"/>
      <point x="1007.0" y="650.0"/>
      <point x="1181.0" y="798.0"/>
      <point x="1181.0" y="995.0" type="curve" smooth="yes"/>
      <point x="1181.0" y="1214.0"/>
      <point x="982.0" y="1356.0"/>
      <point x="780.0" y="1356.0" type="curve" smooth="yes"/>
      <point x="161.0" y="1356.0" type="line" smooth="yes"/>
      <point x="142.0" y="1356.0"/>
      <point x="100.0" y="1347.0"/>
      <point x="100.0" y="1321.0" type="curve" smooth="yes"/>
      <point x="100.0" y="11.0" type="line" smooth="yes"/>
      <point x="100.0" y="-16.0"/>
      <point x="142.0" y="-24.0"/>
      <point x="161.0" y="-24.0" type="curve" smooth="yes"/>
      <point x="181.0" y="-24.0"/>
      <point x="223.0" y="-16.0"/>
      <point x="223.0" y="11.0" type="curve" smooth="yes"/>
      <point x="223.0" y="635.0" type="line"/>
      <point x="602.0" y="635.0" type="line" smooth="yes"/>
      <point x="765.0" y="635.0"/>
      <point x="831.0" y="462.0"/>
      <point x="887.0" y="335.0" type="curve" smooth="yes"/>
      <point x="946.0" y="199.0"/>
      <point x="1008.0" y="60.0"/>
      <point x="1151.0" y="-15.0" type="curve" smooth="yes"/>
      <point x="1162.0" y="-21.0"/>
      <point x="1177.0" y="-24.0"/>
    </contour>
    <contour>
      <point x="780.0" y="705.0" type="curve" smooth="yes"/>
      <point x="223.0" y="705.0" type="line"/>
      <point x="223.0" y="1286.0" type="line"/>
      <point x="780.0" y="1286.0" type="line" smooth="yes"/>
      <point x="933.0" y="1286.0"/>
      <point x="1058.0" y="1148.0"/>
      <point x="1058.0" y="995.0" type="curve" smooth="yes"/>
      <point x="1058.0" y="842.0"/>
      <point x="933.0" y="705.0"/>
    </contour>
  </outline>
</glyph>
<glyph name="S" format="2">
	<unicode hex="0053"/>
	<advance height="2048" width="1300"/>
	<outline>
		<contour>
			<point x="1161" y="1045" type="curve"/>
			<point x="1104" y="1285"/>
			<point x="870" y="1385"/>
			<point x="646" y="1381" type="curve" smooth="yes"/>
			<point x="436" y="1377"/>
			<point x="130" y="1264"/>
			<point x="135" y="1007" type="curve" smooth="yes"/>
			<point x="137" y="873"/>
			<point x="203" y="778"/>
			<point x="318" y="716" type="curve" smooth="yes"/>
			<point x="426" y="659"/>
			<point x="560" y="637"/>
			<point x="680" y="625" type="curve" smooth="yes"/>
			<point x="765" y="616"/>
			<point x="860" y="597"/>
			<point x="937" y="559" type="curve" smooth="yes"/>
			<point x="1011" y="524"/>
			<point x="1077" y="468"/>
			<point x="1077" y="379" type="curve" smooth="yes"/>
			<point x="1079" y="181"/>
			<point x="866" y="57"/>
			<point x="693" y="47" type="curve" smooth="yes"/>
			<point x="468" y="33"/>
			<point x="282" y="140"/>
			<point x="222" y="368" type="curve" smooth="yes"/>
			<point x="216" y="394"/>
			<point x="174" y="400"/>
			<point x="153" y="398" type="curve" smooth="yes"/>
			<point x="135" y="396"/>
			<point x="100" y="387"/>
			<point x="100" y="363" type="curve" smooth="yes"/>
			<point x="100" y="362"/>
			<point x="100" y="360"/>
			<point x="101" y="358" type="curve"/>
			<point x="175" y="73"/>
			<point x="434" y="-39"/>
			<point x="706" y="-23" type="curve" smooth="yes"/>
			<point x="924" y="-9"/>
			<point x="1197" y="128"/>
			<point x="1200" y="381" type="curve" smooth="yes"/>
			<point x="1201" y="501"/>
			<point x="1160" y="598"/>
			<point x="1059" y="664" type="curve" smooth="yes"/>
			<point x="955" y="732"/>
			<point x="811" y="754"/>
			<point x="689" y="767" type="curve" smooth="yes"/>
			<point x="598" y="776"/>
			<point x="497" y="797"/>
			<point x="413" y="834" type="curve" smooth="yes"/>
			<point x="337" y="868"/>
			<point x="257" y="924"/>
			<point x="258" y="1017" type="curve" smooth="yes"/>
			<point x="260" y="1214"/>
			<point x="483" y="1309"/>
			<point x="649" y="1311" type="curve" smooth="yes"/>
			<point x="831" y="1314"/>
			<point x="994" y="1224"/>
			<point x="1039" y="1036" type="curve" smooth="yes"/>
			<point x="1045" y="1011"/>
			<point x="1087" y="1005"/>
			<point x="1108" y="1006" type="curve"/>
			<point x="1126" y="1008"/>
			<point x="1161" y="1017"/>
			<point x="1161" y="1041" type="curve" smooth="yes"/>
			<point x="1161" y="1042"/>
			<point x="1161" y="1044"/>
		</contour>
	</outline>
</glyph>
<glyph name="T" format="2">
  <advance height="2048" width="1185.0"/>
  <unicode hex="0054"/>
  <outline>
    <contour>
      <point x="593.0" y="-12.0" type="curve" smooth="yes"/>
      <point x="612.0" y="-12.0"/>
      <point x="654.0" y="-3.0"/>
      <point x="654.0" y="23.0" type="curve" smooth="yes"/>
      <point x="654.0" y="1299.0" type="line"/>
      <point x="1099.0" y="1299.0" type="line" smooth="yes"/>
      <point x="1118.0" y="1299.0"/>
      <point x="1160.0" y="1308.0"/>
      <point x="1160.0" y="1334.0" type="curve" smooth="yes"/>
      <point x="1160.0" y="1360.0"/>
      <point x="1118.0" y="1369.0"/>
      <point x="1099.0" y="1369.0" type="curve" smooth="yes"/>
      <point x="86.0" y="1369.0" type="line" smooth="yes"/>
      <point x="67.0" y="1369.0"/>
      <point x="25.0" y="1360.0"/>
      <point x="25.0" y="1334.0" type="curve" smooth="yes"/>
      <point x="25.0" y="1308.0"/>
      <point x="67.0" y="1299.0"/>
      <point x="86.0" y="1299.0" type="curve" smooth="yes"/>
      <point x="531.0" y="1299.0" type="line"/>
      <point x="531.0" y="23.0" type="line" smooth="yes"/>
      <point x="531.0" y="-3.0"/>
      <point x="573.0" y="-12.0"/>
    </contour>
  </outline>
</glyph>
<glyph name="U" format="2">
  <advance height="2048" width="1269.0"/>
  <unicode hex="0055"/>
  <outline>
    <contour>
      <point x="1046.0" y="1346.0" type="curve" smooth="yes"/>
      <point x="1046.0" y="424.0" type="line" smooth="yes"/>
      <point x="1046.0" y="204.0"/>
      <point x="838.0" y="46.0"/>
      <point x="633.0" y="46.0" type="curve" smooth="yes"/>
      <point x="429.0" y="46.0"/>
      <point x="223.0" y="205.0"/>
      <point x="223.0" y="424.0" type="curve" smooth="yes"/>
      <point x="223.0" y="1346.0" type="line" smooth="yes"/>
      <point x="223.0" y="1372.0"/>
      <point x="181.0" y="1381.0"/>
      <point x="161.0" y="1381.0" type="curve" smooth="yes"/>
      <point x="142.0" y="1381.0"/>
      <point x="100.0" y="1372.0"/>
      <point x="100.0" y="1346.0" type="curve" smooth="yes"/>
      <point x="100.0" y="424.0" type="line" smooth="yes"/>
      <point x="100.0" y="145.0"/>
      <point x="384.0" y="-24.0"/>
      <point x="633.0" y="-24.0" type="curve" smooth="yes"/>
      <point x="882.0" y="-24.0"/>
      <point x="1169.0" y="142.0"/>
      <point x="1169.0" y="424.0" type="curve" smooth="yes"/>
      <point x="1169.0" y="1346.0" type="line" smooth="yes"/>
      <point x="1169.0" y="1372.0"/>
      <point x="1127.0" y="1381.0"/>
      <point x="1108.0" y="1381.0" type="curve" smooth="yes"/>
      <point x="1088.0" y="1381.0"/>
      <point x="1046.0" y="1372.0"/>
    </contour>
  </outline>
</glyph>
<glyph name="V" format="2">
	<unicode hex="0056"/>
	<advance height="2048" width="1297"/>
	<outline>
		<contour>
			<point x="26" y="1342" type="curve"/>
			<point x="580" y="2" type="line" smooth="yes"/>
			<point x="589" y="-19"/>
			<point x="625" y="-24"/>
			<point x="644" y="-24" type="curve" smooth="yes"/>
			<point x="665" y="-24"/>
			<point x="701" y="-19"/>
			<point x="711" y="4" type="curve" smooth="yes"/>
			<point x="1271" y="1359" type="line"/>
			<point x="1272" y="1360"/>
			<point x="1272" y="1362"/>
			<point x="1272" y="1363" type="curve" smooth="yes"/>
			<point x="1272" y="1375"/>
			<point x="1250" y="1380"/>
			<point x="1241" y="1381" type="curve"/>
			<point x="1239" y="1381"/>
			<point x="1236" y="1381"/>
			<point x="1233" y="1381" type="curve" smooth="yes"/>
			<point x="1222" y="1381"/>
			<point x="1200" y="1378"/>
			<point x="1195" y="1366" type="curve" smooth="yes"/>
			<point x="672" y="104" type="line"/>
			<point x="156" y="1355" type="line" smooth="yes"/>
			<point x="147" y="1375"/>
			<point x="110" y="1381"/>
			<point x="91" y="1381" type="curve" smooth="yes"/>
			<point x="86" y="1381"/>
			<point x="82" y="1381"/>
			<point x="77" y="1380" type="curve"/>
			<point x="62" y="1379"/>
			<point x="25" y="1370"/>
			<point x="25" y="1349" type="curve" smooth="yes"/>
			<point x="25" y="1347"/>
			<point x="26" y="1344"/>
		</contour>
	</outline>
</glyph>
<glyph name="W" format="2">
	<unicode hex="0057"/>
	<advance height="2048" width="1837"/>
	<outline>
		<contour>
			<point x="26" y="1341" type="curve" smooth="yes"/>
			<point x="482" y="2" type="line" smooth="yes"/>
			<point x="490" y="-20"/>
			<point x="528" y="-24"/>
			<point x="548" y="-24" type="curve" smooth="yes"/>
			<point x="567" y="-24"/>
			<point x="612" y="-18"/>
			<point x="617" y="6" type="curve" smooth="yes"/>
			<point x="918" y="1200" type="line"/>
			<point x="1223" y="4" type="line" smooth="yes"/>
			<point x="1229" y="-21"/>
			<point x="1272" y="-25"/>
			<point x="1292" y="-24" type="curve" smooth="yes"/>
			<point x="1311" y="-23"/>
			<point x="1351" y="-17"/>
			<point x="1358" y="5" type="curve" smooth="yes"/>
			<point x="1811" y="1360" type="line" smooth="yes"/>
			<point x="1816" y="1374"/>
			<point x="1789" y="1380"/>
			<point x="1780" y="1381" type="curve" smooth="yes"/>
			<point x="1767" y="1382"/>
			<point x="1739" y="1379"/>
			<point x="1734" y="1365" type="curve" smooth="yes"/>
			<point x="1322" y="134" type="line"/>
			<point x="1012" y="1351" type="line" smooth="yes"/>
			<point x="1005" y="1375"/>
			<point x="967" y="1381"/>
			<point x="946" y="1381" type="curve" smooth="yes"/>
			<point x="930" y="1381"/>
			<point x="883" y="1374"/>
			<point x="878" y="1354" type="curve" smooth="yes"/>
			<point x="571" y="133" type="line"/>
			<point x="156" y="1351" type="line" smooth="yes"/>
			<point x="148" y="1376"/>
			<point x="102" y="1383"/>
			<point x="80" y="1381" type="curve" smooth="yes"/>
			<point x="62" y="1379"/>
			<point x="17" y="1367"/>
		</contour>
	</outline>
</glyph>
<glyph name="X" format="2">
	<unicode hex="0058"/>
	<advance height="2048" width="1212"/>
	<outline>
		<contour>
			<point x="69" y="-24" type="curve" smooth="yes"/>
			<point x="85" y="-24"/>
			<point x="102" y="-21"/>
			<point x="110" y="-11" type="curve" smooth="yes"/>
			<point x="592" y="600" type="line"/>
			<point x="1047" y="1" type="line" smooth="yes"/>
			<point x="1059" y="-15"/>
			<point x="1089" y="-21"/>
			<point x="1114" y="-21" type="curve" smooth="yes"/>
			<point x="1123" y="-21"/>
			<point x="1132" y="-20"/>
			<point x="1139" y="-19" type="curve"/>
			<point x="1154" y="-16"/>
			<point x="1184" y="-4"/>
			<point x="1184" y="13" type="curve" smooth="yes"/>
			<point x="1184" y="17"/>
			<point x="1182" y="21"/>
			<point x="1179" y="25" type="curve" smooth="yes"/>
			<point x="668" y="697" type="line"/>
			<point x="1184" y="1352" type="line"/>
			<point x="1186" y="1355"/>
			<point x="1187" y="1357"/>
			<point x="1187" y="1359" type="curve" smooth="yes"/>
			<point x="1187" y="1369"/>
			<point x="1169" y="1376"/>
			<point x="1160" y="1378" type="curve" smooth="yes"/>
			<point x="1155" y="1379"/>
			<point x="1149" y="1380"/>
			<point x="1143" y="1380" type="curve" smooth="yes"/>
			<point x="1127" y="1380"/>
			<point x="1110" y="1376"/>
			<point x="1102" y="1366" type="curve" smooth="yes"/>
			<point x="622" y="757" type="line"/>
			<point x="165" y="1358" type="line" smooth="yes"/>
			<point x="152" y="1374"/>
			<point x="123" y="1380"/>
			<point x="98" y="1380" type="curve" smooth="yes"/>
			<point x="89" y="1380"/>
			<point x="80" y="1379"/>
			<point x="73" y="1378" type="curve"/>
			<point x="58" y="1375"/>
			<point x="28" y="1363"/>
			<point x="28" y="1346" type="curve" smooth="yes"/>
			<point x="28" y="1342"/>
			<point x="30" y="1338"/>
			<point x="33" y="1334" type="curve" smooth="yes"/>
			<point x="545" y="660" type="line"/>
			<point x="28" y="4" type="line"/>
			<point x="26" y="1"/>
			<point x="25" y="-1"/>
			<point x="25" y="-4" type="curve" smooth="yes"/>
			<point x="25" y="-15"/>
			<point x="39" y="-20"/>
			<point x="52" y="-22" type="curve"/>
			<point x="58" y="-24"/>
			<point x="65" y="-24"/>
		</contour>
	</outline>
</glyph>
<glyph name="Y" format="2">
  <advance height="2048" width="1217.0"/>
  <unicode hex="0059"/>
  <outline>
    <contour>
      <point x="608.0" y="-24.0" type="curve" smooth="yes"/>
      <point x="628.0" y="-24.0"/>
      <point x="670.0" y="-16.0"/>
      <point x="670.0" y="10.0" type="curve" smooth="yes"/>
      <point x="670.0" y="645.0" type="line"/>
      <point x="1189.0" y="1353.0" type="line" smooth="yes"/>
      <point x="1191.0" y="1356.0"/>
      <point x="1192.0" y="1358.0"/>
      <point x="1192.0" y="1360.0" type="curve" smooth="yes"/>
      <point x="1192.0" y="1373.0"/>
      <point x="1169.0" y="1380.0"/>
      <point x="1147.0" y="1380.0" type="curve" smooth="yes"/>
      <point x="1130.0" y="1380.0"/>
      <point x="1113.0" y="1376.0"/>
      <point x="1106.0" y="1367.0" type="curve" smooth="yes"/>
      <point x="636.0" y="725.0" type="line"/>
      <point x="162.0" y="1358.0" type="line" smooth="yes"/>
      <point x="148.0" y="1376.0"/>
      <point x="114.0" y="1381.0"/>
      <point x="94.0" y="1381.0" type="curve" smooth="yes"/>
      <point x="77.0" y="1381.0"/>
      <point x="25.0" y="1371.0"/>
      <point x="25.0" y="1348.0" type="curve" smooth="yes"/>
      <point x="25.0" y="1344.0"/>
      <point x="26.0" y="1340.0"/>
      <point x="30.0" y="1335.0" type="curve" smooth="yes"/>
      <point x="547.0" y="645.0" type="line"/>
      <point x="547.0" y="10.0" type="line" smooth="yes"/>
      <point x="547.0" y="-16.0"/>
      <point x="589.0" y="-24.0"/>
    </contour>
  </outline>
</glyph>
<glyph name="Z" format="2">
	<unicode hex="005A"/>
	<advance height="2048" width="1238"/>
	<outline>
		<contour>
			<point x="1143" y="0" type="line" smooth="yes"/>
			<point x="1162" y="0"/>
			<point x="1213" y="7"/>
			<point x="1213" y="34" type="curve" smooth="yes"/>
			<point x="1213" y="61"/>
			<point x="1162" y="68"/>
			<point x="1143" y="68" type="curve" smooth="yes"/>
			<point x="198" y="68" type="line"/>
			<point x="1206" y="1309" type="line" smooth="yes"/>
			<point x="1209" y="1313"/>
			<point x="1211" y="1318"/>
			<point x="1211" y="1322" type="curve" smooth="yes"/>
			<point x="1211" y="1331"/>
			<point x="1202" y="1340"/>
			<point x="1192" y="1345" type="curve" smooth="yes"/>
			<point x="1175" y="1353"/>
			<point x="1152" y="1356"/>
			<point x="1141" y="1356" type="curve" smooth="yes"/>
			<point x="119" y="1356" type="line" smooth="yes"/>
			<point x="99" y="1356"/>
			<point x="49" y="1348"/>
			<point x="49" y="1322" type="curve" smooth="yes"/>
			<point x="49" y="1295"/>
			<point x="100" y="1287"/>
			<point x="119" y="1287" type="curve" smooth="yes"/>
			<point x="1038" y="1287" type="line"/>
			<point x="30" y="47" type="line"/>
			<point x="26" y="43"/>
			<point x="25" y="38"/>
			<point x="25" y="34" type="curve" smooth="yes"/>
			<point x="25" y="23"/>
			<point x="36" y="15"/>
			<point x="47" y="10" type="curve" smooth="yes"/>
			<point x="64" y="3"/>
			<point x="86" y="0"/>
			<point x="95" y="0" type="curve" smooth="yes"/>
		</contour>
	</outline>
</glyph>
<glyph name="bracketleft" format="2">
  <advance height="2048" width="734.0"/>
  <unicode hex="005B"/>
  <outline>
    <contour>
      <point x="572.0" y="-400.0" type="line" smooth="yes"/>
      <point x="592.0" y="-400.0"/>
      <point x="634.0" y="-391.0"/>
      <point x="634.0" y="-365.0" type="curve" smooth="yes"/>
      <point x="634.0" y="-339.0"/>
      <point x="592.0" y="-330.0"/>
      <point x="572.0" y="-330.0" type="curve" smooth="yes"/>
      <point x="223.0" y="-330.0" type="line"/>
      <point x="223.0" y="1310.0" type="line"/>
      <point x="572.0" y="1310.0" type="line" smooth="yes"/>
      <point x="592.0" y="1310.0"/>
      <point x="634.0" y="1319.0"/>
      <point x="634.0" y="1345.0" type="curve" smooth="yes"/>
      <point x="634.0" y="1371.0"/>
      <point x="592.0" y="1380.0"/>
      <point x="572.0" y="1380.0" type="curve" smooth="yes"/>
      <point x="162.0" y="1380.0" type="line" smooth="yes"/>
      <point x="142.0" y="1380.0"/>
      <point x="100.0" y="1371.0"/>
      <point x="100.0" y="1345.0" type="curve" smooth="yes"/>
      <point x="100.0" y="-365.0" type="line" smooth="yes"/>
      <point x="100.0" y="-391.0"/>
      <point x="142.0" y="-400.0"/>
      <point x="162.0" y="-400.0" type="curve" smooth="yes"/>
    </contour>
  </outline>
</glyph>
<glyph name="asciicircum" format="2">
  <advance height="2048" width="728.0"/>
  <unicode hex="005E"/>
  <outline>
    <contour>
      <point x="628.0" y="1098.0" type="curve" smooth="yes"/>
      <point x="628.0" y="1100.0"/>
      <point x="627.0" y="1102.0"/>
      <point x="626.0" y="1104.0" type="curve" smooth="yes"/>
      <point x="400.0" y="1588.0" type="line" smooth="yes"/>
      <point x="395.0" y="1599.0"/>
      <point x="374.0" y="1603.0"/>
      <point x="364.0" y="1603.0" type="curve" smooth="yes"/>
      <point x="353.0" y="1603.0"/>
      <point x="332.0" y="1600.0"/>
      <point x="327.0" y="1589.0" type="curve" smooth="yes"/>
      <point x="102.0" y="1104.0" type="line"/>
      <point x="101.0" y="1103.0"/>
      <point x="100.0" y="1100.0"/>
      <point x="100.0" y="1098.0" type="curve" smooth="yes"/>
      <point x="100.0" y="1087.0"/>
      <point x="120.0" y="1080.0"/>
      <point x="139.0" y="1080.0" type="curve" smooth="yes"/>
      <point x="154.0" y="1080.0"/>
      <point x="170.0" y="1085.0"/>
      <point x="174.0" y="1094.0" type="curve" smooth="yes"/>
      <point x="364.0" y="1502.0" type="line"/>
      <point x="554.0" y="1094.0" type="line" smooth="yes"/>
      <point x="558.0" y="1085.0"/>
      <point x="574.0" y="1080.0"/>
      <point x="589.0" y="1080.0" type="curve" smooth="yes"/>
      <point x="608.0" y="1080.0"/>
      <point x="628.0" y="1087.0"/>
    </contour>
  </outline>
</glyph>
<glyph name="underscore" format="2">
	<unicode hex="005F"/>
	<advance height="2048" width="1235"/>
	<outline>
		<contour>
			<point x="161" y="0" type="curve" smooth="yes"/>
			<point x="1074" y="0" type="line" smooth="yes"/>
			<point x="1093" y="0"/>
			<point x="1135" y="9"/>
			<point x="1135" y="36" type="curve" smooth="yes"/>
			<point x="1135" y="62"/>
			<point x="1093" y="71"/>
			<point x="1074" y="71" type="curve" smooth="yes"/>
			<point x="161" y="71" type="line" smooth="yes"/>
			<point x="142" y="71"/>
			<point x="100" y="62"/>
			<point x="100" y="36" type="curve" smooth="yes"/>
			<point x="100" y="9"/>
			<point x="142" y="0"/>
		</contour>
	</outline>
</glyph>
<glyph name="grave" format="2">
	<unicode hex="0060"/>
	<advance height="2048" width="483"/>
	<outline>
		<contour>
			<point x="438" y="1080" type="curve" smooth="yes"/>
			<point x="450" y="1080"/>
			<point x="460" y="1089"/>
			<point x="468" y="1099" type="curve" smooth="yes"/>
			<point x="476" y="1109"/>
			<point x="483" y="1119"/>
			<point x="483" y="1130" type="curve" smooth="yes"/>
			<point x="483" y="1136"/>
			<point x="480" y="1142"/>
			<point x="474" y="1148" type="curve" smooth="yes"/>
			<point x="103" y="1494" type="line" smooth="yes"/>
			<point x="96" y="1501"/>
			<point x="87" y="1504"/>
			<point x="79" y="1504" type="curve" smooth="yes"/>
			<point x="59" y="1504"/>
			<point x="37" y="1488"/>
			<point x="21" y="1468" type="curve" smooth="yes"/>
			<point x="9" y="1452"/>
			<point x="0" y="1433"/>
			<point x="0" y="1416" type="curve" smooth="yes"/>
			<point x="0" y="1404"/>
			<point x="4" y="1394"/>
			<point x="14" y="1387" type="curve" smooth="yes"/>
			<point x="422" y="1086" type="line" smooth="yes"/>
			<point x="428" y="1082"/>
			<point x="433" y="1080"/>
		</contour>
	</outline>
</glyph>
<glyph name="a" format="2">
  <advance height="2048" width="1066.0"/>
  <unicode hex="0061"/>
  <outline>
    <contour>
      <point x="979.0" y="-24.0" type="curve" smooth="yes"/>
      <point x="995.0" y="-24.0"/>
      <point x="1010.0" y="-20.0"/>
      <point x="1022.0" y="-14.0" type="curve"/>
      <point x="1034.0" y="-7.0"/>
      <point x="1041.0" y="2.0"/>
      <point x="1041.0" y="11.0" type="curve" smooth="yes"/>
      <point x="1041.0" y="20.0"/>
      <point x="1036.0" y="28.0"/>
      <point x="1024.0" y="35.0" type="curve" smooth="yes"/>
      <point x="957.0" y="75.0"/>
      <point x="948.0" y="150.0"/>
      <point x="948.0" y="222.0" type="curve" smooth="yes"/>
      <point x="948.0" y="672.0" type="line" smooth="yes"/>
      <point x="948.0" y="906.0"/>
      <point x="728.0" y="1000.0"/>
      <point x="526.0" y="1000.0" type="curve" smooth="yes"/>
      <point x="425.0" y="1000.0"/>
      <point x="314.0" y="975.0"/>
      <point x="230.0" y="917.0" type="curve" smooth="yes"/>
      <point x="165.0" y="873.0"/>
      <point x="106.0" y="800.0"/>
      <point x="105.0" y="717.0" type="curve"/>
      <point x="105.0" y="691.0"/>
      <point x="145.0" y="682.0"/>
      <point x="165.0" y="682.0" type="curve" smooth="yes"/>
      <point x="185.0" y="682.0"/>
      <point x="227.0" y="690.0"/>
      <point x="227.0" y="717.0" type="curve" smooth="yes"/>
      <point x="228.0" y="781.0"/>
      <point x="273.0" y="837.0"/>
      <point x="324.0" y="872.0" type="curve" smooth="yes"/>
      <point x="383.0" y="912.0"/>
      <point x="455.0" y="930.0"/>
      <point x="526.0" y="930.0" type="curve" smooth="yes"/>
      <point x="681.0" y="929.0"/>
      <point x="825.0" y="844.0"/>
      <point x="825.0" y="672.0" type="curve" smooth="yes"/>
      <point x="825.0" y="564.0" type="line"/>
      <point x="772.0" y="530.0"/>
      <point x="701.0" y="522.0"/>
      <point x="629.0" y="522.0" type="curve" smooth="yes"/>
      <point x="574.0" y="522.0"/>
      <point x="519.0" y="527.0"/>
      <point x="472.0" y="527.0" type="curve" smooth="yes"/>
      <point x="288.0" y="527.0"/>
      <point x="75.0" y="493.0"/>
      <point x="75.0" y="257.0" type="curve" smooth="yes"/>
      <point x="75.0" y="52.0"/>
      <point x="284.0" y="-24.0"/>
      <point x="453.0" y="-24.0" type="curve" smooth="yes"/>
      <point x="603.0" y="-24.0"/>
      <point x="744.0" y="27.0"/>
      <point x="835.0" y="134.0" type="curve"/>
      <point x="846.0" y="71.0"/>
      <point x="876.0" y="22.0"/>
      <point x="935.0" y="-13.0" type="curve" smooth="yes"/>
      <point x="947.0" y="-20.0"/>
      <point x="963.0" y="-24.0"/>
    </contour>
    <contour>
      <point x="453.0" y="47.0" type="curve" smooth="yes"/>
      <point x="324.0" y="47.0"/>
      <point x="198.0" y="108.0"/>
      <point x="198.0" y="257.0" type="curve" smooth="yes"/>
      <point x="198.0" y="423.0"/>
      <point x="317.0" y="457.0"/>
      <point x="464.0" y="457.0" type="curve" smooth="yes"/>
      <point x="522.0" y="457.0"/>
      <point x="581.0" y="453.0"/>
      <point x="639.0" y="453.0" type="curve" smooth="yes"/>
      <point x="698.0" y="453.0"/>
      <point x="757.0" y="457.0"/>
      <point x="825.0" y="472.0" type="curve"/>
      <point x="825.0" y="351.0" type="line" smooth="yes"/>
      <point x="825.0" y="160.0"/>
      <point x="617.0" y="47.0"/>
    </contour>
  </outline>
</glyph>
<glyph name="b" format="2">
  <advance height="2048" width="1094.0"/>
  <unicode hex="0062"/>
  <outline>
    <contour>
      <point x="162.0" y="-24.0" type="curve" smooth="yes"/>
      <point x="181.0" y="-24.0"/>
      <point x="223.0" y="-15.0"/>
      <point x="223.0" y="11.0" type="curve" smooth="yes"/>
      <point x="223.0" y="151.0" type="line"/>
      <point x="278.0" y="56.0"/>
      <point x="409.0" y="-23.0"/>
      <point x="572.0" y="-23.0" type="curve" smooth="yes"/>
      <point x="864.0" y="-23.0"/>
      <point x="1044.0" y="202.0"/>
      <point x="1044.0" y="489.0" type="curve" smooth="yes"/>
      <point x="1044.0" y="777.0"/>
      <point x="864.0" y="1002.0"/>
      <point x="572.0" y="1002.0" type="curve" smooth="yes"/>
      <point x="409.0" y="1002.0"/>
      <point x="284.0" y="924.0"/>
      <point x="223.0" y="828.0" type="curve"/>
      <point x="223.0" y="1347.0" type="line" smooth="yes"/>
      <point x="223.0" y="1373.0"/>
      <point x="181.0" y="1382.0"/>
      <point x="162.0" y="1382.0" type="curve" smooth="yes"/>
      <point x="142.0" y="1382.0"/>
      <point x="100.0" y="1373.0"/>
      <point x="100.0" y="1347.0" type="curve" smooth="yes"/>
      <point x="100.0" y="11.0" type="line" smooth="yes"/>
      <point x="100.0" y="-15.0"/>
      <point x="142.0" y="-24.0"/>
    </contour>
    <contour>
      <point x="572.0" y="47.0" type="curve" smooth="yes"/>
      <point x="339.0" y="47.0"/>
      <point x="223.0" y="278.0"/>
      <point x="223.0" y="489.0" type="curve" smooth="yes"/>
      <point x="223.0" y="701.0"/>
      <point x="339.0" y="932.0"/>
      <point x="572.0" y="932.0" type="curve" smooth="yes"/>
      <point x="805.0" y="932.0"/>
      <point x="921.0" y="701.0"/>
      <point x="921.0" y="489.0" type="curve" smooth="yes"/>
      <point x="921.0" y="278.0"/>
      <point x="805.0" y="47.0"/>
    </contour>
  </outline>
</glyph>
<glyph name="c" format="2">
	<unicode hex="0063"/>
	<advance height="2048" width="1144"/>
	<outline>
		<contour>
			<point x="1042" y="687" type="curve"/>
			<point x="1013" y="900"/>
			<point x="786" y="1002"/>
			<point x="596" y="1000" type="curve" smooth="yes"/>
			<point x="293" y="996"/>
			<point x="98" y="784"/>
			<point x="100" y="478" type="curve" smooth="yes"/>
			<point x="103" y="172"/>
			<point x="297" y="-25"/>
			<point x="594" y="-24" type="curve" smooth="yes"/>
			<point x="783" y="-24"/>
			<point x="1007" y="80"/>
			<point x="1043" y="289" type="curve"/>
			<point x="1044" y="290"/>
			<point x="1044" y="292"/>
			<point x="1044" y="293" type="curve" smooth="yes"/>
			<point x="1044" y="318"/>
			<point x="1001" y="327"/>
			<point x="983" y="327" type="curve" smooth="yes"/>
			<point x="963" y="327"/>
			<point x="926" y="319"/>
			<point x="921" y="295" type="curve" smooth="yes"/>
			<point x="895" y="144"/>
			<point x="742" y="46"/>
			<point x="598" y="46" type="curve" smooth="yes"/>
			<point x="352" y="46"/>
			<point x="224" y="247"/>
			<point x="223" y="482" type="curve" smooth="yes"/>
			<point x="222" y="717"/>
			<point x="351" y="927"/>
			<point x="599" y="930" type="curve" smooth="yes"/>
			<point x="745" y="932"/>
			<point x="898" y="839"/>
			<point x="919" y="681" type="curve" smooth="yes"/>
			<point x="923" y="657"/>
			<point x="961" y="649"/>
			<point x="981" y="649" type="curve" smooth="yes"/>
			<point x="1000" y="649"/>
			<point x="1042" y="658"/>
			<point x="1042" y="683" type="curve" smooth="yes"/>
			<point x="1042" y="684"/>
			<point x="1042" y="685"/>
		</contour>
	</outline>
</glyph>
<glyph name="d" format="2">
	<unicode hex="0064"/>
	<advance height="2048" width="1094"/>
	<outline>
		<contour>
			<point x="522" y="1001" type="curve" smooth="yes"/>
			<point x="685" y="1001"/>
			<point x="810" y="923"/>
			<point x="871" y="827" type="curve"/>
			<point x="871" y="1346" type="line" smooth="yes"/>
			<point x="871" y="1372"/>
			<point x="913" y="1381"/>
			<point x="932" y="1381" type="curve" smooth="yes"/>
			<point x="952" y="1381"/>
			<point x="994" y="1372"/>
			<point x="994" y="1346" type="curve" smooth="yes"/>
			<point x="994" y="10" type="line" smooth="yes"/>
			<point x="994" y="-16"/>
			<point x="952" y="-25"/>
			<point x="932" y="-25" type="curve" smooth="yes"/>
			<point x="913" y="-25"/>
			<point x="871" y="-16"/>
			<point x="871" y="10" type="curve" smooth="yes"/>
			<point x="871" y="150" type="line"/>
			<point x="816" y="55"/>
			<point x="685" y="-24"/>
			<point x="522" y="-24" type="curve" smooth="yes"/>
			<point x="230" y="-24"/>
			<point x="50" y="201"/>
			<point x="50" y="488" type="curve" smooth="yes"/>
			<point x="50" y="776"/>
			<point x="230" y="1001"/>
		</contour>
		<contour>
			<point x="522" y="931" type="curve" smooth="yes"/>
			<point x="289" y="931"/>
			<point x="173" y="700"/>
			<point x="173" y="488" type="curve" smooth="yes"/>
			<point x="173" y="277"/>
			<point x="289" y="46"/>
			<point x="522" y="46" type="curve" smooth="yes"/>
			<point x="755" y="46"/>
			<point x="871" y="277"/>
			<point x="871" y="488" type="curve" smooth="yes"/>
			<point x="871" y="700"/>
			<point x="755" y="931"/>
		</contour>
	</outline>
</glyph>
<glyph name="e" format="2">
	<unicode hex="0065"/>
	<advance height="2048" width="1207"/>
	<outline>
		<contour>
			<point x="965" y="295" type="curve" smooth="yes"/>
			<point x="957" y="221"/>
			<point x="903" y="159"/>
			<point x="844" y="119" type="curve" smooth="yes"/>
			<point x="772" y="70"/>
			<point x="683" y="45"/>
			<point x="596" y="46" type="curve" smooth="yes"/>
			<point x="350" y="49"/>
			<point x="220" y="264"/>
			<point x="223" y="497" type="curve"/>
			<point x="1046" y="497" type="line" smooth="yes"/>
			<point x="1065" y="497"/>
			<point x="1106" y="505"/>
			<point x="1107" y="532" type="curve" smooth="yes"/>
			<point x="1111" y="838"/>
			<point x="888" y="1001"/>
			<point x="605" y="1000" type="curve" smooth="yes"/>
			<point x="308" y="999"/>
			<point x="99" y="781"/>
			<point x="100" y="477" type="curve" smooth="yes"/>
			<point x="102" y="181"/>
			<point x="306" y="-21"/>
			<point x="594" y="-24" type="curve" smooth="yes"/>
			<point x="714" y="-25"/>
			<point x="839" y="6"/>
			<point x="938" y="74" type="curve" smooth="yes"/>
			<point x="1010" y="123"/>
			<point x="1078" y="200"/>
			<point x="1088" y="291" type="curve"/>
			<point x="1088" y="292"/>
			<point x="1088" y="293"/>
			<point x="1088" y="294" type="curve" smooth="yes"/>
			<point x="1088" y="319"/>
			<point x="1045" y="328"/>
			<point x="1026" y="328" type="curve" smooth="yes"/>
			<point x="1006" y="328"/>
			<point x="968" y="320"/>
		</contour>
		<contour>
			<point x="984" y="567" type="curve"/>
			<point x="230" y="567" type="line"/>
			<point x="267" y="768"/>
			<point x="394" y="929"/>
			<point x="606" y="930" type="curve" smooth="yes"/>
			<point x="829" y="931"/>
			<point x="967" y="791"/>
		</contour>
	</outline>
</glyph>
<glyph name="f" format="2">
	<unicode hex="0066"/>
	<advance height="2048" width="726"/>
	<outline>
		<contour>
			<point x="86" y="931" type="curve" smooth="yes"/>
			<point x="235" y="931" type="line"/>
			<point x="235" y="11" type="line" smooth="yes"/>
			<point x="235" y="-15"/>
			<point x="277" y="-24"/>
			<point x="297" y="-24" type="curve" smooth="yes"/>
			<point x="316" y="-24"/>
			<point x="358" y="-15"/>
			<point x="358" y="11" type="curve" smooth="yes"/>
			<point x="358" y="931" type="line"/>
			<point x="569" y="931" type="line" smooth="yes"/>
			<point x="589" y="931"/>
			<point x="631" y="940"/>
			<point x="631" y="966" type="curve" smooth="yes"/>
			<point x="631" y="992"/>
			<point x="589" y="1001"/>
			<point x="569" y="1001" type="curve" smooth="yes"/>
			<point x="358" y="1001" type="line"/>
			<point x="358" y="1118" type="line" smooth="yes"/>
			<point x="358" y="1236"/>
			<point x="410" y="1310"/>
			<point x="531" y="1311" type="curve" smooth="yes"/>
			<point x="560" y="1311"/>
			<point x="590" y="1307"/>
			<point x="618" y="1302" type="curve"/>
			<point x="625" y="1300"/>
			<point x="632" y="1300"/>
			<point x="638" y="1300" type="curve" smooth="yes"/>
			<point x="657" y="1300"/>
			<point x="686" y="1305"/>
			<point x="697" y="1323" type="curve"/>
			<point x="699" y="1327"/>
			<point x="701" y="1331"/>
			<point x="701" y="1336" type="curve" smooth="yes"/>
			<point x="701" y="1357"/>
			<point x="661" y="1367"/>
			<point x="645" y="1370" type="curve" smooth="yes"/>
			<point x="608" y="1377"/>
			<point x="570" y="1381"/>
			<point x="531" y="1381" type="curve" smooth="yes"/>
			<point x="363" y="1380"/>
			<point x="235" y="1304"/>
			<point x="235" y="1118" type="curve" smooth="yes"/>
			<point x="235" y="1001" type="line"/>
			<point x="86" y="1001" type="line" smooth="yes"/>
			<point x="67" y="1001"/>
			<point x="25" y="992"/>
			<point x="25" y="966" type="curve" smooth="yes"/>
			<point x="25" y="940"/>
			<point x="67" y="931"/>
		</contour>
	</outline>
</glyph>
<glyph name="g" format="2">
	<unicode hex="0067"/>
	<advance height="2048" width="1094"/>
	<outline>
		<contour>
			<point x="522" y="931" type="curve" smooth="yes"/>
			<point x="755" y="931"/>
			<point x="871" y="700"/>
			<point x="871" y="489" type="curve" smooth="yes"/>
			<point x="871" y="278"/>
			<point x="755" y="47"/>
			<point x="522" y="47" type="curve" smooth="yes"/>
			<point x="289" y="47"/>
			<point x="173" y="278"/>
			<point x="173" y="489" type="curve" smooth="yes"/>
			<point x="173" y="700"/>
			<point x="289" y="931"/>
		</contour>
		<contour>
			<point x="56" y="-229" type="curve"/>
			<point x="147" y="-365"/>
			<point x="371" y="-409"/>
			<point x="522" y="-404" type="curve" smooth="yes"/>
			<point x="785" y="-394"/>
			<point x="994" y="-268"/>
			<point x="994" y="19" type="curve" smooth="yes"/>
			<point x="994" y="966" type="line" smooth="yes"/>
			<point x="994" y="992"/>
			<point x="952" y="1001"/>
			<point x="932" y="1001" type="curve" smooth="yes"/>
			<point x="913" y="1001"/>
			<point x="871" y="992"/>
			<point x="871" y="966" type="curve"/>
			<point x="870" y="831" type="line"/>
			<point x="786" y="936"/>
			<point x="686" y="1001"/>
			<point x="522" y="1001" type="curve" smooth="yes"/>
			<point x="230" y="1001"/>
			<point x="50" y="776"/>
			<point x="50" y="489" type="curve" smooth="yes"/>
			<point x="50" y="202"/>
			<point x="230" y="-23"/>
			<point x="522" y="-23" type="curve" smooth="yes"/>
			<point x="685" y="-23"/>
			<point x="787" y="46"/>
			<point x="870" y="153" type="curve"/>
			<point x="870" y="19" type="line" smooth="yes"/>
			<point x="870" y="-206"/>
			<point x="733" y="-326"/>
			<point x="515" y="-334" type="curve" smooth="yes"/>
			<point x="403" y="-338"/>
			<point x="238" y="-305"/>
			<point x="170" y="-204" type="curve" smooth="yes"/>
			<point x="159" y="-187"/>
			<point x="131" y="-181"/>
			<point x="112" y="-181" type="curve" smooth="yes"/>
			<point x="105" y="-181"/>
			<point x="98" y="-182"/>
			<point x="91" y="-184" type="curve"/>
			<point x="76" y="-187"/>
			<point x="51" y="-197"/>
			<point x="51" y="-216" type="curve" smooth="yes"/>
			<point x="51" y="-221"/>
			<point x="53" y="-225"/>
		</contour>
	</outline>
</glyph>
<glyph name="h" format="2">
	<unicode hex="0068"/>
	<advance height="2048" width="1030"/>
	<outline>
		<contour>
			<point x="918" y="-24" type="curve" smooth="yes"/>
			<point x="938" y="-24"/>
			<point x="980" y="-15"/>
			<point x="980" y="11" type="curve" smooth="yes"/>
			<point x="980" y="552" type="line" smooth="yes"/>
			<point x="980" y="802"/>
			<point x="807" y="1001"/>
			<point x="551" y="1001" type="curve" smooth="yes"/>
			<point x="422" y="1001"/>
			<point x="289" y="947"/>
			<point x="223" y="825" type="curve"/>
			<point x="223" y="1347" type="line" smooth="yes"/>
			<point x="223" y="1373"/>
			<point x="181" y="1382"/>
			<point x="162" y="1382" type="curve" smooth="yes"/>
			<point x="142" y="1382"/>
			<point x="100" y="1373"/>
			<point x="100" y="1347" type="curve" smooth="yes"/>
			<point x="100" y="11" type="line" smooth="yes"/>
			<point x="100" y="-15"/>
			<point x="142" y="-24"/>
			<point x="162" y="-24" type="curve" smooth="yes"/>
			<point x="181" y="-24"/>
			<point x="223" y="-15"/>
			<point x="223" y="11" type="curve" smooth="yes"/>
			<point x="223" y="524" type="line" smooth="yes"/>
			<point x="223" y="721"/>
			<point x="330" y="928"/>
			<point x="551" y="928" type="curve" smooth="yes"/>
			<point x="756" y="928"/>
			<point x="857" y="740"/>
			<point x="857" y="551" type="curve" smooth="yes"/>
			<point x="857" y="11" type="line" smooth="yes"/>
			<point x="857" y="-15"/>
			<point x="899" y="-24"/>
		</contour>
	</outline>
</glyph>
<glyph name="i" format="2">
	<unicode hex="0069"/>
	<advance height="2048" width="350"/>
	<outline>
		<contour>
			<point x="113" y="965" type="curve" smooth="yes"/>
			<point x="113" y="11" type="line" smooth="yes"/>
			<point x="113" y="-15"/>
			<point x="155" y="-24"/>
			<point x="175" y="-24" type="curve" smooth="yes"/>
			<point x="195" y="-24"/>
			<point x="237" y="-15"/>
			<point x="237" y="11" type="curve" smooth="yes"/>
			<point x="237" y="965" type="line" smooth="yes"/>
			<point x="237" y="991"/>
			<point x="195" y="1000"/>
			<point x="175" y="1000" type="curve" smooth="yes"/>
			<point x="155" y="1000"/>
			<point x="113" y="991"/>
		</contour>
		<contour>
			<point x="175" y="1293" type="curve" smooth="yes"/>
			<point x="132" y="1293"/>
			<point x="100" y="1255"/>
			<point x="100" y="1218" type="curve" smooth="yes"/>
			<point x="100" y="1181"/>
			<point x="132" y="1143"/>
			<point x="175" y="1143" type="curve" smooth="yes"/>
			<point x="218" y="1143"/>
			<point x="250" y="1181"/>
			<point x="250" y="1218" type="curve" smooth="yes"/>
			<point x="250" y="1255"/>
			<point x="218" y="1293"/>
		</contour>
	</outline>
</glyph>
<glyph name="j" format="2">
	<unicode hex="006A"/>
	<advance height="2048" width="612"/>
	<outline>
		<contour>
			<point x="435" y="1020" type="curve" smooth="yes"/>
			<point x="416" y="1020"/>
			<point x="373" y="1011"/>
			<point x="373" y="985" type="curve" smooth="yes"/>
			<point x="373" y="-146" type="line" smooth="yes"/>
			<point x="373" y="-263"/>
			<point x="316" y="-337"/>
			<point x="195" y="-338" type="curve" smooth="yes"/>
			<point x="157" y="-338"/>
			<point x="121" y="-327"/>
			<point x="88" y="-327" type="curve" smooth="yes"/>
			<point x="68" y="-327"/>
			<point x="25" y="-335"/>
			<point x="25" y="-362" type="curve" smooth="yes"/>
			<point x="25" y="-384"/>
			<point x="63" y="-394"/>
			<point x="81" y="-397" type="curve" smooth="yes"/>
			<point x="118" y="-404"/>
			<point x="156" y="-408"/>
			<point x="195" y="-408" type="curve" smooth="yes"/>
			<point x="363" y="-408"/>
			<point x="498" y="-331"/>
			<point x="498" y="-146" type="curve" smooth="yes"/>
			<point x="498" y="985" type="line" smooth="yes"/>
			<point x="498" y="1011"/>
			<point x="455" y="1020"/>
		</contour>
		<contour>
			<point x="436" y="1139" type="curve" smooth="yes"/>
			<point x="480" y="1139"/>
			<point x="512" y="1178"/>
			<point x="512" y="1215" type="curve" smooth="yes"/>
			<point x="512" y="1252"/>
			<point x="480" y="1291"/>
			<point x="436" y="1291" type="curve" smooth="yes"/>
			<point x="392" y="1291"/>
			<point x="360" y="1252"/>
			<point x="360" y="1215" type="curve" smooth="yes"/>
			<point x="360" y="1178"/>
			<point x="392" y="1139"/>
		</contour>
	</outline>
</glyph>
<glyph name="k" format="2">
	<unicode hex="006B"/>
	<advance height="2048" width="1028"/>
	<outline>
		<contour>
			<point x="100" y="1346" type="curve" smooth="yes"/>
			<point x="100" y="11" type="line" smooth="yes"/>
			<point x="100" y="-16"/>
			<point x="142" y="-24"/>
			<point x="162" y="-24" type="curve" smooth="yes"/>
			<point x="181" y="-24"/>
			<point x="223" y="-16"/>
			<point x="223" y="11" type="curve" smooth="yes"/>
			<point x="223" y="335" type="line"/>
			<point x="403" y="492" type="line"/>
			<point x="850" y="-1" type="line" smooth="yes"/>
			<point x="872" y="-26"/>
			<point x="926" y="-28"/>
			<point x="957" y="-21" type="curve" smooth="yes"/>
			<point x="979" y="-16"/>
			<point x="1020" y="4"/>
			<point x="996" y="31" type="curve" smooth="yes"/>
			<point x="500" y="577" type="line"/>
			<point x="937" y="964" type="line" smooth="yes"/>
			<point x="954" y="979"/>
			<point x="934" y="992"/>
			<point x="919" y="996" type="curve" smooth="yes"/>
			<point x="899" y="1002"/>
			<point x="866" y="1001"/>
			<point x="850" y="987" type="curve" smooth="yes"/>
			<point x="223" y="435" type="line"/>
			<point x="223" y="1346" type="line" smooth="yes"/>
			<point x="223" y="1372"/>
			<point x="181" y="1381"/>
			<point x="162" y="1381" type="curve" smooth="yes"/>
			<point x="142" y="1381"/>
			<point x="100" y="1372"/>
		</contour>
	</outline>
</glyph>
<glyph name="l" format="2">
	<unicode hex="006C"/>
	<advance height="2048" width="273"/>
	<outline>
		<contour>
			<point x="75" y="1346" type="curve" smooth="yes"/>
			<point x="75" y="11" type="line" smooth="yes"/>
			<point x="75" y="-15"/>
			<point x="117" y="-24"/>
			<point x="136" y="-24" type="curve" smooth="yes"/>
			<point x="156" y="-24"/>
			<point x="198" y="-15"/>
			<point x="198" y="11" type="curve" smooth="yes"/>
			<point x="198" y="1346" type="line" smooth="yes"/>
			<point x="198" y="1372"/>
			<point x="156" y="1381"/>
			<point x="136" y="1381" type="curve" smooth="yes"/>
			<point x="117" y="1381"/>
			<point x="75" y="1372"/>
		</contour>
	</outline>
</glyph>
<glyph name="m" format="2">
  <advance height="2048" width="1685.0"/>
  <unicode hex="006D"/>
  <outline>
    <contour>
      <point x="1523.0" y="-24.0" type="curve" smooth="yes"/>
      <point x="1543.0" y="-24.0"/>
      <point x="1585.0" y="-15.0"/>
      <point x="1585.0" y="11.0" type="curve" smooth="yes"/>
      <point x="1585.0" y="555.0" type="line" smooth="yes"/>
      <point x="1585.0" y="803.0"/>
      <point x="1434.0" y="1000.0"/>
      <point x="1182.0" y="1000.0" type="curve" smooth="yes"/>
      <point x="1026.0" y="1000.0"/>
      <point x="907.0" y="935.0"/>
      <point x="843.0" y="809.0" type="curve"/>
      <point x="771.0" y="936.0"/>
      <point x="664.0" y="1000.0"/>
      <point x="509.0" y="1000.0" type="curve" smooth="yes"/>
      <point x="368.0" y="1000.0"/>
      <point x="268.0" y="920.0"/>
      <point x="223.0" y="823.0" type="curve"/>
      <point x="223.0" y="965.0" type="line" smooth="yes"/>
      <point x="223.0" y="991.0"/>
      <point x="181.0" y="1000.0"/>
      <point x="162.0" y="1000.0" type="curve" smooth="yes"/>
      <point x="142.0" y="1000.0"/>
      <point x="100.0" y="991.0"/>
      <point x="100.0" y="965.0" type="curve" smooth="yes"/>
      <point x="100.0" y="11.0" type="line" smooth="yes"/>
      <point x="100.0" y="-15.0"/>
      <point x="142.0" y="-24.0"/>
      <point x="162.0" y="-24.0" type="curve" smooth="yes"/>
      <point x="181.0" y="-24.0"/>
      <point x="223.0" y="-15.0"/>
      <point x="223.0" y="11.0" type="curve" smooth="yes"/>
      <point x="223.0" y="521.0" type="line" smooth="yes"/>
      <point x="223.0" y="704.0"/>
      <point x="302.0" y="927.0"/>
      <point x="509.0" y="927.0" type="curve" smooth="yes"/>
      <point x="718.0" y="927.0"/>
      <point x="782.0" y="740.0"/>
      <point x="782.0" y="555.0" type="curve" smooth="yes"/>
      <point x="782.0" y="11.0" type="line" smooth="yes"/>
      <point x="782.0" y="-15.0"/>
      <point x="824.0" y="-24.0"/>
      <point x="843.0" y="-24.0" type="curve" smooth="yes"/>
      <point x="863.0" y="-24.0"/>
      <point x="905.0" y="-15.0"/>
      <point x="905.0" y="11.0" type="curve" smooth="yes"/>
      <point x="905.0" y="555.0" type="line" smooth="yes"/>
      <point x="905.0" y="737.0"/>
      <point x="974.0" y="927.0"/>
      <point x="1182.0" y="927.0" type="curve" smooth="yes"/>
      <point x="1390.0" y="927.0"/>
      <point x="1462.0" y="740.0"/>
      <point x="1462.0" y="555.0" type="curve" smooth="yes"/>
      <point x="1462.0" y="11.0" type="line" smooth="yes"/>
      <point x="1462.0" y="-15.0"/>
      <point x="1504.0" y="-24.0"/>
    </contour>
  </outline>
</glyph>
<glyph name="n" format="2">
	<unicode hex="006E"/>
	<advance height="2048" width="1080"/>
	<outline>
		<contour>
			<point x="918" y="-24" type="curve" smooth="yes"/>
			<point x="938" y="-24"/>
			<point x="980" y="-16"/>
			<point x="980" y="11" type="curve" smooth="yes"/>
			<point x="980" y="551" type="line" smooth="yes"/>
			<point x="980" y="843"/>
			<point x="766" y="999"/>
			<point x="551" y="1000" type="curve" smooth="yes"/>
			<point x="419" y="1000"/>
			<point x="288" y="944"/>
			<point x="223" y="824" type="curve"/>
			<point x="223" y="965" type="line" smooth="yes"/>
			<point x="223" y="991"/>
			<point x="181" y="1000"/>
			<point x="162" y="1000" type="curve" smooth="yes"/>
			<point x="142" y="1000"/>
			<point x="100" y="991"/>
			<point x="100" y="965" type="curve" smooth="yes"/>
			<point x="100" y="11" type="line" smooth="yes"/>
			<point x="100" y="-16"/>
			<point x="142" y="-24"/>
			<point x="162" y="-24" type="curve" smooth="yes"/>
			<point x="181" y="-24"/>
			<point x="223" y="-16"/>
			<point x="223" y="11" type="curve" smooth="yes"/>
			<point x="223" y="523" type="line" smooth="yes"/>
			<point x="223" y="722"/>
			<point x="332" y="928"/>
			<point x="551" y="928" type="curve" smooth="yes"/>
			<point x="756" y="928"/>
			<point x="857" y="739"/>
			<point x="857" y="550" type="curve" smooth="yes"/>
			<point x="857" y="11" type="line" smooth="yes"/>
			<point x="857" y="-16"/>
			<point x="899" y="-24"/>
		</contour>
	</outline>
</glyph>
<glyph name="o" format="2">
  <advance height="2048" width="1110.0"/>
  <unicode hex="006F"/>
  <outline>
    <contour>
      <point x="555.0" y="1000.0" type="curve" smooth="yes"/>
      <point x="259.0" y="1000.0"/>
      <point x="50.0" y="792.0"/>
      <point x="50.0" y="488.0" type="curve" smooth="yes"/>
      <point x="50.0" y="184.0"/>
      <point x="259.0" y="-24.0"/>
      <point x="555.0" y="-24.0" type="curve" smooth="yes"/>
      <point x="851.0" y="-24.0"/>
      <point x="1060.0" y="184.0"/>
      <point x="1060.0" y="488.0" type="curve" smooth="yes"/>
      <point x="1060.0" y="792.0"/>
      <point x="851.0" y="1000.0"/>
    </contour>
    <contour>
      <point x="555.0" y="930.0" type="curve" smooth="yes"/>
      <point x="797.0" y="930.0"/>
      <point x="937.0" y="720.0"/>
      <point x="937.0" y="488.0" type="curve" smooth="yes"/>
      <point x="937.0" y="257.0"/>
      <point x="797.0" y="46.0"/>
      <point x="555.0" y="46.0" type="curve" smooth="yes"/>
      <point x="313.0" y="46.0"/>
      <point x="173.0" y="257.0"/>
      <point x="173.0" y="488.0" type="curve" smooth="yes"/>
      <point x="173.0" y="720.0"/>
      <point x="313.0" y="930.0"/>
    </contour>
  </outline>
</glyph>
<glyph name="p" format="2">
	<unicode hex="0070"/>
	<advance height="2048" width="1094"/>
	<outline>
		<contour>
			<point x="572" y="-24" type="curve" smooth="yes"/>
			<point x="409" y="-24"/>
			<point x="306" y="39"/>
			<point x="223" y="150" type="curve"/>
			<point x="223" y="-369" type="line" smooth="yes"/>
			<point x="223" y="-396"/>
			<point x="181" y="-404"/>
			<point x="162" y="-404" type="curve" smooth="yes"/>
			<point x="142" y="-404"/>
			<point x="100" y="-396"/>
			<point x="100" y="-369" type="curve" smooth="yes"/>
			<point x="100" y="966" type="line" smooth="yes"/>
			<point x="100" y="993"/>
			<point x="142" y="1001"/>
			<point x="162" y="1001" type="curve" smooth="yes"/>
			<point x="181" y="1001"/>
			<point x="223" y="993"/>
			<point x="223" y="966" type="curve" smooth="yes"/>
			<point x="223" y="827" type="line"/>
			<point x="304" y="936"/>
			<point x="409" y="1000"/>
			<point x="572" y="1000" type="curve" smooth="yes"/>
			<point x="864" y="1000"/>
			<point x="1044" y="776"/>
			<point x="1044" y="488" type="curve" smooth="yes"/>
			<point x="1044" y="201"/>
			<point x="864" y="-24"/>
		</contour>
		<contour>
			<point x="572" y="46" type="curve" smooth="yes"/>
			<point x="805" y="46"/>
			<point x="921" y="277"/>
			<point x="921" y="488" type="curve" smooth="yes"/>
			<point x="921" y="700"/>
			<point x="805" y="930"/>
			<point x="572" y="930" type="curve" smooth="yes"/>
			<point x="339" y="930"/>
			<point x="223" y="700"/>
			<point x="223" y="488" type="curve" smooth="yes"/>
			<point x="223" y="277"/>
			<point x="339" y="46"/>
		</contour>
	</outline>
</glyph>
<glyph name="r" format="2">
	<unicode hex="0072"/>
	<advance height="2048" width="724"/>
	<outline>
		<contour>
			<point x="100" y="965" type="curve" smooth="yes"/>
			<point x="100" y="11" type="line" smooth="yes"/>
			<point x="100" y="-15"/>
			<point x="142" y="-24"/>
			<point x="161" y="-24" type="curve" smooth="yes"/>
			<point x="181" y="-24"/>
			<point x="223" y="-15"/>
			<point x="223" y="11" type="curve" smooth="yes"/>
			<point x="223" y="491" type="line" smooth="yes"/>
			<point x="223" y="643"/>
			<point x="271" y="926"/>
			<point x="489" y="926" type="curve" smooth="yes"/>
			<point x="538" y="926"/>
			<point x="583" y="914"/>
			<point x="622" y="884" type="curve" smooth="yes"/>
			<point x="639" y="870"/>
			<point x="659" y="875"/>
			<point x="676" y="887" type="curve" smooth="yes"/>
			<point x="699" y="903"/>
			<point x="710" y="930"/>
			<point x="684" y="949" type="curve"/>
			<point x="627" y="986"/>
			<point x="572" y="1000"/>
			<point x="505" y="1000" type="curve" smooth="yes"/>
			<point x="341" y="1000"/>
			<point x="257" y="892"/>
			<point x="223" y="824" type="curve"/>
			<point x="223" y="965" type="line" smooth="yes"/>
			<point x="223" y="991"/>
			<point x="181" y="1000"/>
			<point x="161" y="1000" type="curve" smooth="yes"/>
			<point x="142" y="1000"/>
			<point x="100" y="991"/>
		</contour>
	</outline>
</glyph>
<glyph name="s" format="2">
  <advance height="2048" width="917.0"/>
  <unicode hex="0073"/>
  <outline>
    <contour>
      <point x="459.0" y="-24.0" type="curve" smooth="yes"/>
      <point x="636.0" y="-24.0"/>
      <point x="867.0" y="67.0"/>
      <point x="867.0" y="273.0" type="curve" smooth="yes"/>
      <point x="867.0" y="364.0"/>
      <point x="828.0" y="435.0"/>
      <point x="753.0" y="484.0" type="curve" smooth="yes"/>
      <point x="668.0" y="540.0"/>
      <point x="575.0" y="551.0"/>
      <point x="478.0" y="566.0" type="curve" smooth="yes"/>
      <point x="421.0" y="575.0"/>
      <point x="363.0" y="588.0"/>
      <point x="310.0" y="610.0" type="curve" smooth="yes"/>
      <point x="262.0" y="630.0"/>
      <point x="198.0" y="661.0"/>
      <point x="198.0" y="727.0" type="curve" smooth="yes"/>
      <point x="198.0" y="865.0"/>
      <point x="346.0" y="930.0"/>
      <point x="465.0" y="930.0" type="curve" smooth="yes"/>
      <point x="584.0" y="930.0"/>
      <point x="687.0" y="866.0"/>
      <point x="717.0" y="742.0" type="curve" smooth="yes"/>
      <point x="723.0" y="719.0"/>
      <point x="758.0" y="710.0"/>
      <point x="778.0" y="711.0" type="curve" smooth="yes"/>
      <point x="797.0" y="711.0"/>
      <point x="840.0" y="721.0"/>
      <point x="840.0" y="745.0" type="curve" smooth="yes"/>
      <point x="840.0" y="752.0"/>
      <point x="835.0" y="766.0"/>
      <point x="833.0" y="774.0" type="curve"/>
      <point x="783.0" y="932.0"/>
      <point x="621.0" y="1000.0"/>
      <point x="465.0" y="1000.0" type="curve" smooth="yes"/>
      <point x="303.0" y="1000.0"/>
      <point x="75.0" y="920.0"/>
      <point x="75.0" y="727.0" type="curve" smooth="yes"/>
      <point x="75.0" y="639.0"/>
      <point x="120.0" y="568.0"/>
      <point x="191.0" y="518.0" type="curve" smooth="yes"/>
      <point x="275.0" y="459.0"/>
      <point x="375.0" y="451.0"/>
      <point x="472.0" y="437.0" type="curve" smooth="yes"/>
      <point x="529.0" y="429.0"/>
      <point x="590.0" y="415.0"/>
      <point x="643.0" y="391.0" type="curve" smooth="yes"/>
      <point x="691.0" y="370.0"/>
      <point x="744.0" y="333.0"/>
      <point x="744.0" y="273.0" type="curve" smooth="yes"/>
      <point x="744.0" y="125.0"/>
      <point x="592.0" y="46.0"/>
      <point x="461.0" y="46.0" type="curve" smooth="yes"/>
      <point x="320.0" y="46.0"/>
      <point x="209.0" y="122.0"/>
      <point x="172.0" y="268.0" type="curve" smooth="yes"/>
      <point x="166.0" y="290.0"/>
      <point x="131.0" y="298.0"/>
      <point x="111.0" y="298.0" type="curve" smooth="yes"/>
      <point x="93.0" y="298.0"/>
      <point x="50.0" y="289.0"/>
      <point x="50.0" y="263.0" type="curve" smooth="yes"/>
      <point x="50.0" y="257.0"/>
      <point x="55.0" y="244.0"/>
      <point x="57.0" y="238.0" type="curve" smooth="yes"/>
      <point x="113.0" y="54.0"/>
      <point x="281.0" y="-24.0"/>
    </contour>
  </outline>
</glyph>
<glyph name="t" format="2">
	<unicode hex="0074"/>
	<advance height="2048" width="779"/>
	<outline>
		<contour>
			<point x="386" y="1346" type="line" smooth="yes"/>
			<point x="386" y="1372"/>
			<point x="344" y="1381"/>
			<point x="325" y="1381" type="curve" smooth="yes"/>
			<point x="305" y="1381"/>
			<point x="263" y="1372"/>
			<point x="263" y="1346" type="curve" smooth="yes"/>
			<point x="263" y="1000" type="line"/>
			<point x="111" y="1000" type="line" smooth="yes"/>
			<point x="92" y="1000"/>
			<point x="50" y="991"/>
			<point x="50" y="965" type="curve" smooth="yes"/>
			<point x="50" y="939"/>
			<point x="92" y="930"/>
			<point x="111" y="930" type="curve" smooth="yes"/>
			<point x="263" y="930" type="line"/>
			<point x="263" y="239" type="line" smooth="yes"/>
			<point x="263" y="53"/>
			<point x="391" y="-23"/>
			<point x="559" y="-24" type="curve" smooth="yes"/>
			<point x="598" y="-24"/>
			<point x="636" y="-20"/>
			<point x="673" y="-13" type="curve" smooth="yes"/>
			<point x="689" y="-10"/>
			<point x="729" y="0"/>
			<point x="729" y="21" type="curve" smooth="yes"/>
			<point x="729" y="26"/>
			<point x="727" y="30"/>
			<point x="725" y="34" type="curve"/>
			<point x="714" y="51"/>
			<point x="686" y="57"/>
			<point x="668" y="57" type="curve" smooth="yes"/>
			<point x="661" y="57"/>
			<point x="653" y="57"/>
			<point x="646" y="55" type="curve"/>
			<point x="618" y="50"/>
			<point x="588" y="46"/>
			<point x="559" y="46" type="curve" smooth="yes"/>
			<point x="438" y="47"/>
			<point x="386" y="121"/>
			<point x="386" y="239" type="curve" smooth="yes"/>
			<point x="386" y="930" type="line"/>
			<point x="594" y="930" type="line" smooth="yes"/>
			<point x="614" y="930"/>
			<point x="656" y="939"/>
			<point x="656" y="965" type="curve" smooth="yes"/>
			<point x="656" y="991"/>
			<point x="614" y="1000"/>
			<point x="594" y="1000" type="curve" smooth="yes"/>
			<point x="386" y="1000" type="line"/>
		</contour>
	</outline>
</glyph>
<glyph name="v" format="2">
	<unicode hex="0076"/>
	<advance height="2048" width="997"/>
	<outline>
		<contour>
			<point x="27" y="960" type="curve" smooth="yes"/>
			<point x="432" y="2" type="line" smooth="yes"/>
			<point x="440" y="-19"/>
			<point x="479" y="-24"/>
			<point x="498" y="-24" type="curve" smooth="yes"/>
			<point x="515" y="-24"/>
			<point x="559" y="-16"/>
			<point x="566" y="2" type="curve" smooth="yes"/>
			<point x="971" y="978" type="line" smooth="yes"/>
			<point x="977" y="992"/>
			<point x="951" y="999"/>
			<point x="941" y="1000" type="curve" smooth="yes"/>
			<point x="928" y="1001"/>
			<point x="900" y="999"/>
			<point x="895" y="985" type="curve"/>
			<point x="526" y="98" type="line"/>
			<point x="156" y="974" type="line" smooth="yes"/>
			<point x="146" y="997"/>
			<point x="100" y="1001"/>
			<point x="77" y="999" type="curve" smooth="yes"/>
			<point x="61" y="997"/>
			<point x="16" y="985"/>
		</contour>
	</outline>
</glyph>
<glyph name="w" format="2">
	<unicode hex="0077"/>
	<advance height="2048" width="1561"/>
	<outline>
		<contour>
			<point x="26" y="961" type="curve"/>
			<point x="398" y="3" type="line" smooth="yes"/>
			<point x="406" y="-19"/>
			<point x="443" y="-24"/>
			<point x="462" y="-24" type="curve" smooth="yes"/>
			<point x="482" y="-24"/>
			<point x="524" y="-18"/>
			<point x="531" y="6" type="curve" smooth="yes"/>
			<point x="782" y="838" type="line"/>
			<point x="1025" y="4" type="line" smooth="yes"/>
			<point x="1032" y="-19"/>
			<point x="1069" y="-24"/>
			<point x="1089" y="-24" type="curve" smooth="yes"/>
			<point x="1110" y="-24"/>
			<point x="1150" y="-18"/>
			<point x="1159" y="5" type="curve" smooth="yes"/>
			<point x="1536" y="978" type="line"/>
			<point x="1536" y="979"/>
			<point x="1536" y="980"/>
			<point x="1536" y="981" type="curve" smooth="yes"/>
			<point x="1536" y="994"/>
			<point x="1514" y="999"/>
			<point x="1505" y="1000" type="curve"/>
			<point x="1503" y="1000"/>
			<point x="1500" y="1000"/>
			<point x="1497" y="1000" type="curve" smooth="yes"/>
			<point x="1486" y="1000"/>
			<point x="1463" y="997"/>
			<point x="1459" y="985" type="curve" smooth="yes"/>
			<point x="1124" y="120" type="line"/>
			<point x="877" y="971" type="line" smooth="yes"/>
			<point x="870" y="995"/>
			<point x="832" y="999"/>
			<point x="812" y="999" type="curve" smooth="yes"/>
			<point x="793" y="999"/>
			<point x="750" y="994"/>
			<point x="743" y="971" type="curve" smooth="yes"/>
			<point x="487" y="120" type="line"/>
			<point x="156" y="973" type="line" smooth="yes"/>
			<point x="148" y="994"/>
			<point x="109" y="1000"/>
			<point x="91" y="999" type="curve"/>
			<point x="86" y="999"/>
			<point x="82" y="999"/>
			<point x="78" y="999" type="curve"/>
			<point x="62" y="997"/>
			<point x="25" y="988"/>
			<point x="25" y="967" type="curve" smooth="yes"/>
			<point x="25" y="965"/>
			<point x="25" y="963"/>
		</contour>
	</outline>
</glyph>
<glyph name="x" format="2">
	<unicode hex="0078"/>
	<advance height="2048" width="1115"/>
	<outline>
		<contour>
			<point x="105" y="953" type="curve"/>
			<point x="496" y="470" type="line"/>
			<point x="105" y="5" type="line"/>
			<point x="103" y="3"/>
			<point x="102" y="0"/>
			<point x="102" y="-3" type="curve" smooth="yes"/>
			<point x="102" y="-14"/>
			<point x="120" y="-20"/>
			<point x="129" y="-22" type="curve" smooth="yes"/>
			<point x="134" y="-23"/>
			<point x="140" y="-24"/>
			<point x="146" y="-24" type="curve" smooth="yes"/>
			<point x="158" y="-24"/>
			<point x="179" y="-21"/>
			<point x="187" y="-10" type="curve"/>
			<point x="544" y="412" type="line"/>
			<point x="880" y="-2" type="line" smooth="yes"/>
			<point x="893" y="-19"/>
			<point x="925" y="-24"/>
			<point x="945" y="-24" type="curve" smooth="yes"/>
			<point x="954" y="-24"/>
			<point x="964" y="-23"/>
			<point x="972" y="-21" type="curve" smooth="yes"/>
			<point x="987" y="-18"/>
			<point x="1015" y="-8"/>
			<point x="1015" y="11" type="curve" smooth="yes"/>
			<point x="1015" y="16"/>
			<point x="1013" y="20"/>
			<point x="1010" y="24" type="curve" smooth="yes"/>
			<point x="619" y="505" type="line"/>
			<point x="1010" y="971" type="line"/>
			<point x="1012" y="973"/>
			<point x="1013" y="975"/>
			<point x="1013" y="978" type="curve" smooth="yes"/>
			<point x="1013" y="990"/>
			<point x="995" y="996"/>
			<point x="986" y="997" type="curve"/>
			<point x="981" y="999"/>
			<point x="975" y="999"/>
			<point x="969" y="999" type="curve" smooth="yes"/>
			<point x="957" y="999"/>
			<point x="936" y="996"/>
			<point x="928" y="986" type="curve" smooth="yes"/>
			<point x="572" y="564" type="line"/>
			<point x="235" y="978" type="line" smooth="yes"/>
			<point x="222" y="995"/>
			<point x="190" y="1000"/>
			<point x="170" y="1000" type="curve" smooth="yes"/>
			<point x="161" y="1000"/>
			<point x="151" y="999"/>
			<point x="143" y="997" type="curve" smooth="yes"/>
			<point x="128" y="994"/>
			<point x="100" y="984"/>
			<point x="100" y="965" type="curve" smooth="yes"/>
			<point x="100" y="961"/>
			<point x="102" y="956"/>
		</contour>
	</outline>
</glyph>
<glyph name="y" format="2">
	<unicode hex="0079"/>
	<advance height="2048" width="1003"/>
	<outline>
		<contour>
			<point x="27" y="963" type="curve" smooth="yes"/>
			<point x="484" y="-19" type="line"/>
			<point x="430" y="-149" type="line" smooth="yes"/>
			<point x="386" y="-254"/>
			<point x="336" y="-358"/>
			<point x="206" y="-357" type="curve" smooth="yes"/>
			<point x="173" y="-357"/>
			<point x="137" y="-349"/>
			<point x="116" y="-321" type="curve" smooth="yes"/>
			<point x="109" y="-311"/>
			<point x="93" y="-308"/>
			<point x="81" y="-308" type="curve" smooth="yes"/>
			<point x="77" y="-308"/>
			<point x="72" y="-309"/>
			<point x="67" y="-310" type="curve" smooth="yes"/>
			<point x="58" y="-312"/>
			<point x="44" y="-318"/>
			<point x="44" y="-329" type="curve" smooth="yes"/>
			<point x="44" y="-332"/>
			<point x="45" y="-335"/>
			<point x="47" y="-338" type="curve"/>
			<point x="83" y="-385"/>
			<point x="152" y="-400"/>
			<point x="207" y="-400" type="curve" smooth="yes"/>
			<point x="375" y="-400"/>
			<point x="443" y="-303"/>
			<point x="503" y="-158" type="curve" smooth="yes"/>
			<point x="977" y="979" type="line"/>
			<point x="977" y="980"/>
			<point x="978" y="982"/>
			<point x="978" y="984" type="curve" smooth="yes"/>
			<point x="978" y="997"/>
			<point x="959" y="1003"/>
			<point x="949" y="1004" type="curve"/>
			<point x="946" y="1005"/>
			<point x="943" y="1005"/>
			<point x="940" y="1005" type="curve" smooth="yes"/>
			<point x="928" y="1005"/>
			<point x="909" y="1001"/>
			<point x="904" y="988" type="curve" smooth="yes"/>
			<point x="550" y="140" type="line"/>
			<point x="164" y="978" type="line" smooth="yes"/>
			<point x="155" y="999"/>
			<point x="116" y="1005"/>
			<point x="96" y="1005" type="curve" smooth="yes"/>
			<point x="90" y="1005"/>
			<point x="85" y="1005"/>
			<point x="79" y="1004" type="curve" smooth="yes"/>
			<point x="63" y="1002"/>
			<point x="25" y="992"/>
			<point x="25" y="971" type="curve" smooth="yes"/>
			<point x="25" y="968"/>
			<point x="26" y="965"/>
		</contour>
	</outline>
</glyph>
<glyph name="z" format="2">
	<unicode hex="007A"/>
	<advance height="2048" width="969"/>
	<outline>
		<contour>
			<point x="110" y="905" type="curve" smooth="yes"/>
			<point x="768" y="905" type="line"/>
			<point x="31" y="50" type="line" smooth="yes"/>
			<point x="17" y="35"/>
			<point x="30" y="20"/>
			<point x="45" y="13" type="curve" smooth="yes"/>
			<point x="59" y="6"/>
			<point x="87" y="0"/>
			<point x="102" y="0" type="curve" smooth="yes"/>
			<point x="882" y="0" type="line" smooth="yes"/>
			<point x="902" y="0"/>
			<point x="944" y="8"/>
			<point x="944" y="35" type="curve" smooth="yes"/>
			<point x="944" y="61"/>
			<point x="902" y="70"/>
			<point x="882" y="70" type="curve" smooth="yes"/>
			<point x="200" y="70" type="line"/>
			<point x="938" y="925" type="line" smooth="yes"/>
			<point x="951" y="941"/>
			<point x="938" y="955"/>
			<point x="923" y="963" type="curve" smooth="yes"/>
			<point x="908" y="971"/>
			<point x="887" y="976"/>
			<point x="870" y="976" type="curve" smooth="yes"/>
			<point x="110" y="976" type="line" smooth="yes"/>
			<point x="91" y="976"/>
			<point x="49" y="967"/>
			<point x="49" y="941" type="curve" smooth="yes"/>
			<point x="49" y="914"/>
			<point x="91" y="905"/>
		</contour>
	</outline>
</glyph>
<glyph name="braceleft" format="2">
	<unicode hex="007B"/>
	<advance height="2048" width="608"/>
	<outline>
		<contour>
			<point x="498" y="-370" type="line" smooth="yes"/>
			<point x="517" y="-370"/>
			<point x="558" y="-362"/>
			<point x="558" y="-336" type="curve" smooth="yes"/>
			<point x="558" y="-310"/>
			<point x="517" y="-301"/>
			<point x="498" y="-302" type="curve" smooth="yes"/>
			<point x="450" y="-303" type="line" smooth="yes"/>
			<point x="423" y="-303"/>
			<point x="398" y="-299"/>
			<point x="374" y="-277" type="curve" smooth="yes"/>
			<point x="352" y="-256"/>
			<point x="340" y="-227"/>
			<point x="340" y="-196" type="curve" smooth="yes"/>
			<point x="340" y="322" type="line" smooth="yes"/>
			<point x="340" y="402"/>
			<point x="334" y="479"/>
			<point x="256" y="520" type="curve"/>
			<point x="334" y="561"/>
			<point x="340" y="638"/>
			<point x="340" y="718" type="curve" smooth="yes"/>
			<point x="340" y="1236" type="line" smooth="yes"/>
			<point x="340" y="1267"/>
			<point x="352" y="1296"/>
			<point x="374" y="1317" type="curve" smooth="yes"/>
			<point x="398" y="1339"/>
			<point x="423" y="1344"/>
			<point x="450" y="1343" type="curve" smooth="yes"/>
			<point x="498" y="1342" type="line" smooth="yes"/>
			<point x="517" y="1341"/>
			<point x="558" y="1350"/>
			<point x="558" y="1376" type="curve" smooth="yes"/>
			<point x="558" y="1401"/>
			<point x="517" y="1410"/>
			<point x="498" y="1410" type="curve" smooth="yes"/>
			<point x="464" y="1410" type="line" smooth="yes"/>
			<point x="393" y="1410"/>
			<point x="329" y="1406"/>
			<point x="272" y="1352" type="curve" smooth="yes"/>
			<point x="240" y="1322"/>
			<point x="220" y="1281"/>
			<point x="220" y="1236" type="curve" smooth="yes"/>
			<point x="220" y="709" type="line" smooth="yes"/>
			<point x="220" y="631"/>
			<point x="211" y="554"/>
			<point x="109" y="554" type="curve" smooth="yes"/>
			<point x="70" y="554"/>
			<point x="50" y="537"/>
			<point x="50" y="520" type="curve" smooth="yes"/>
			<point x="50" y="503"/>
			<point x="70" y="486"/>
			<point x="109" y="486" type="curve" smooth="yes"/>
			<point x="211" y="486"/>
			<point x="220" y="409"/>
			<point x="220" y="331" type="curve" smooth="yes"/>
			<point x="220" y="-196" type="line" smooth="yes"/>
			<point x="220" y="-241"/>
			<point x="240" y="-282"/>
			<point x="272" y="-312" type="curve" smooth="yes"/>
			<point x="329" y="-366"/>
			<point x="393" y="-370"/>
			<point x="464" y="-370" type="curve" smooth="yes"/>
		</contour>
	</outline>
</glyph>
<glyph name="bar" format="2">
  <advance height="2048" width="275.0"/>
  <unicode hex="007C"/>
  <outline>
    <contour>
      <point x="137.0" y="-428.0" type="curve" smooth="yes"/>
      <point x="147.0" y="-428.0"/>
      <point x="175.0" y="-424.0"/>
      <point x="175.0" y="-410.0" type="curve" smooth="yes"/>
      <point x="175.0" y="1332.0" type="line" smooth="yes"/>
      <point x="175.0" y="1346.0"/>
      <point x="147.0" y="1350.0"/>
      <point x="137.0" y="1350.0" type="curve" smooth="yes"/>
      <point x="128.0" y="1350.0"/>
      <point x="100.0" y="1346.0"/>
      <point x="100.0" y="1332.0" type="curve" smooth="yes"/>
      <point x="100.0" y="-410.0" type="line" smooth="yes"/>
      <point x="100.0" y="-424.0"/>
      <point x="128.0" y="-428.0"/>
    </contour>
  </outline>
</glyph>
<glyph name="asciitilde" format="2">
	<unicode hex="007E"/>
	<advance height="2048" width="1235"/>
	<outline>
		<contour>
			<point x="223" y="1109" type="curve" smooth="yes"/>
			<point x="231" y="1189"/>
			<point x="273" y="1338"/>
			<point x="366" y="1342" type="curve" smooth="yes"/>
			<point x="439" y="1345"/>
			<point x="509" y="1272"/>
			<point x="559" y="1223" type="curve" smooth="yes"/>
			<point x="652" y="1132"/>
			<point x="730" y="1063"/>
			<point x="864" y="1060" type="curve" smooth="yes"/>
			<point x="945" y="1058"/>
			<point x="1015" y="1085"/>
			<point x="1065" y="1156" type="curve" smooth="yes"/>
			<point x="1101" y="1208"/>
			<point x="1136" y="1315"/>
			<point x="1135" y="1380" type="curve" smooth="yes"/>
			<point x="1135" y="1406"/>
			<point x="1096" y="1415"/>
			<point x="1077" y="1416" type="curve" smooth="yes"/>
			<point x="1057" y="1417"/>
			<point x="1015" y="1409"/>
			<point x="1012" y="1382" type="curve" smooth="yes"/>
			<point x="1004" y="1300"/>
			<point x="969" y="1131"/>
			<point x="868" y="1133" type="curve" smooth="yes"/>
			<point x="794" y="1135"/>
			<point x="729" y="1198"/>
			<point x="665" y="1260" type="curve" smooth="yes"/>
			<point x="571" y="1351"/>
			<point x="493" y="1421"/>
			<point x="357" y="1415" type="curve" smooth="yes"/>
			<point x="290" y="1412"/>
			<point x="228" y="1379"/>
			<point x="181" y="1327" type="curve" smooth="yes"/>
			<point x="130" y="1269"/>
			<point x="101" y="1192"/>
			<point x="100" y="1112" type="curve"/>
			<point x="100" y="1086"/>
			<point x="138" y="1076"/>
			<point x="157" y="1075" type="curve" smooth="yes"/>
			<point x="177" y="1074"/>
			<point x="220" y="1082"/>
		</contour>
	</outline>
</glyph>
<glyph name="exclamdown" format="2">
	<unicode hex="00A1"/>
	<advance height="2048" width="385"/>
	<outline>
		<contour>
			<point x="193" y="-24" type="curve" smooth="yes"/>
			<point x="246" y="-24"/>
			<point x="285" y="23"/>
			<point x="285" y="68" type="curve" smooth="yes"/>
			<point x="285" y="114"/>
			<point x="246" y="161"/>
			<point x="193" y="161" type="curve" smooth="yes"/>
			<point x="139" y="161"/>
			<point x="100" y="114"/>
			<point x="100" y="68" type="curve" smooth="yes"/>
			<point x="100" y="23"/>
			<point x="139" y="-24"/>
		</contour>
		<contour>
			<point x="247" y="355" type="curve" smooth="yes"/>
			<point x="285" y="1334" type="line" smooth="yes"/>
			<point x="286" y="1367"/>
			<point x="233" y="1381"/>
			<point x="194" y="1381" type="curve" smooth="yes"/>
			<point x="153" y="1381"/>
			<point x="99" y="1367"/>
			<point x="100" y="1334" type="curve" smooth="yes"/>
			<point x="138" y="355" type="line" smooth="yes"/>
			<point x="139" y="334"/>
			<point x="167" y="326"/>
			<point x="194" y="326" type="curve" smooth="yes"/>
			<point x="220" y="326"/>
			<point x="246" y="334"/>
		</contour>
	</outline>
</glyph>
<glyph name="cent" format="2">
	<unicode hex="00A2"/>
	<advance height="2048" width="1144"/>
	<outline>
		<contour>
			<point x="1044" y="482.436" type="line"/>
			<point x="1044" y="508.43"/>
			<point x="1002.01" y="517.539"/>
			<point x="983.126" y="517.539" type="curve" smooth="yes"/>
			<point x="963.13" y="517.539"/>
			<point x="926.284" y="509.497"/>
			<point x="922.029" y="485.547" type="curve" smooth="yes"/>
			<point x="895.18" y="334.426"/>
			<point x="736.073" y="236.494"/>
			<point x="592.106" y="236.494" type="curve" smooth="yes"/>
			<point x="539.423" y="236.494"/>
			<point x="492.683" y="245.581"/>
			<point x="451.665" y="262.014" type="curve"/>
			<point x="766.944" y="1079.136" type="line"/>
			<point x="845.417" y="1037.546"/>
			<point x="907.073" y="966.13"/>
			<point x="920.029" y="871.455" type="curve" smooth="yes"/>
			<point x="923.306" y="847.511"/>
			<point x="961.131" y="839.463"/>
			<point x="981.126" y="839.463" type="curve" smooth="yes"/>
			<point x="1000.01" y="839.463"/>
			<point x="1042.001" y="847.461"/>
			<point x="1042.001" y="873.455" type="curve" smooth="yes"/>
			<point x="1042.001" y="913.791"/>
			<point x="1013.53" y="977.632"/>
			<point x="990.756" y="1010.89" type="curve" smooth="yes"/>
			<point x="944.945" y="1077.79"/>
			<point x="874.405" y="1125.635"/>
			<point x="796.23" y="1155.038" type="curve"/>
			<point x="873.49" y="1355.277" type="line" smooth="yes"/>
			<point x="874.533" y="1357.979"/>
			<point x="876.04" y="1361.414"/>
			<point x="876.04" y="1363.005" type="curve" smooth="yes"/>
			<point x="876.04" y="1374.288"/>
			<point x="856.063" y="1381"/>
			<point x="836.067" y="1381" type="curve" smooth="yes"/>
			<point x="818.629" y="1381"/>
			<point x="801.175" y="1375.955"/>
			<point x="796.947" y="1365.005" type="curve" smooth="yes"/>
			<point x="724.18" y="1176.564" type="line"/>
			<point x="683.023" y="1185.875"/>
			<point x="641.218" y="1190.491"/>
			<point x="600.993" y="1190.491" type="curve" smooth="yes"/>
			<point x="294.567" y="1190.491"/>
			<point x="100" y="974.214"/>
			<point x="100" y="673.502" type="curve" smooth="yes"/>
			<point x="100" y="462.162"/>
			<point x="192.666" y="297.114"/>
			<point x="354" y="217.929" type="curve"/>
			<point x="270.346" y="1.296" type="line" smooth="yes"/>
			<point x="269.363" y="-1.251"/>
			<point x="267.962" y="-4.798"/>
			<point x="267.962" y="-6.429" type="curve" smooth="yes"/>
			<point x="267.962" y="-18.225"/>
			<point x="288.244" y="-24.001"/>
			<point x="308.339" y="-23" type="curve" smooth="yes"/>
			<point x="326.096" y="-23"/>
			<point x="343.246" y="-18.98"/>
			<point x="347.053" y="-9.114" type="curve" smooth="yes"/>
			<point x="424.02" y="190.365" type="line"/>
			<point x="474.978" y="174.779"/>
			<point x="531.178" y="166.511"/>
			<point x="592.106" y="166.511" type="curve" smooth="yes"/>
			<point x="726.55" y="166.511"/>
			<point x="875.932" y="217.82"/>
			<point x="966.198" y="319.4" type="curve" smooth="yes"/>
			<point x="1004.067" y="362.016"/>
			<point x="1044" y="424.728"/>
			<point x="1044" y="482.436" type="curve"/>
		</contour>
		<contour>
			<point x="385.076" y="298.406" type="line"/>
			<point x="275.135" y="377.04"/>
			<point x="223.082" y="521.198"/>
			<point x="223.082" y="675.501" type="curve" smooth="yes"/>
			<point x="223.082" y="907.383"/>
			<point x="347.782" y="1120.507"/>
			<point x="600.993" y="1120.507" type="curve" smooth="yes"/>
			<point x="633.243" y="1120.507"/>
			<point x="665.855" y="1115.883"/>
			<point x="697.313" y="1106.986" type="curve"/>
			<point x="385.076" y="298.406" type="line"/>
		</contour>
	</outline>
</glyph>
<glyph name="pound" format="2">
	<unicode hex="00A3"/>
	<advance height="2048" width="1195"/>
	<outline>
		<contour>
			<point x="131" y="-24" type="curve" smooth="yes"/>
			<point x="147" y="-24"/>
			<point x="163" y="-20"/>
			<point x="177" y="-12" type="curve" smooth="yes"/>
			<point x="258" y="33"/>
			<point x="348" y="70"/>
			<point x="442" y="70" type="curve" smooth="yes"/>
			<point x="575" y="70"/>
			<point x="696" y="-17"/>
			<point x="841" y="-17" type="curve" smooth="yes"/>
			<point x="940" y="-17"/>
			<point x="1040" y="16"/>
			<point x="1126" y="63" type="curve" smooth="yes"/>
			<point x="1138" y="70"/>
			<point x="1145" y="79"/>
			<point x="1145" y="88" type="curve" smooth="yes"/>
			<point x="1145" y="97"/>
			<point x="1140" y="106"/>
			<point x="1128" y="113" type="curve" smooth="yes"/>
			<point x="1116" y="120"/>
			<point x="1100" y="124"/>
			<point x="1084" y="124" type="curve" smooth="yes"/>
			<point x="1069" y="124"/>
			<point x="1053" y="120"/>
			<point x="1041" y="114" type="curve" smooth="yes"/>
			<point x="978" y="80"/>
			<point x="913" y="58"/>
			<point x="841" y="58" type="curve" smooth="yes"/>
			<point x="702" y="58"/>
			<point x="582" y="141"/>
			<point x="442" y="140" type="curve" smooth="yes"/>
			<point x="403" y="140"/>
			<point x="366" y="135"/>
			<point x="328" y="130" type="curve"/>
			<point x="408" y="229"/>
			<point x="464" y="326"/>
			<point x="464" y="460" type="curve" smooth="yes"/>
			<point x="464" y="521"/>
			<point x="452" y="576"/>
			<point x="436" y="635" type="curve"/>
			<point x="750" y="635" type="line" smooth="yes"/>
			<point x="769" y="635"/>
			<point x="811" y="643"/>
			<point x="811" y="670" type="curve" smooth="yes"/>
			<point x="811" y="696"/>
			<point x="769" y="705"/>
			<point x="750" y="705" type="curve" smooth="yes"/>
			<point x="414" y="705" type="line"/>
			<point x="384" y="799"/>
			<point x="351" y="895"/>
			<point x="351" y="995" type="curve" smooth="yes"/>
			<point x="350" y="1159"/>
			<point x="484" y="1311"/>
			<point x="651" y="1311" type="curve" smooth="yes"/>
			<point x="813" y="1311"/>
			<point x="896" y="1165"/>
			<point x="923" y="1022" type="curve" smooth="yes"/>
			<point x="928" y="999"/>
			<point x="965" y="991"/>
			<point x="983" y="991" type="curve" smooth="yes"/>
			<point x="1002" y="991"/>
			<point x="1048" y="1000"/>
			<point x="1046" y="1024" type="curve" smooth="yes"/>
			<point x="1045" y="1037"/>
			<point x="1041" y="1050"/>
			<point x="1038" y="1063" type="curve" smooth="yes"/>
			<point x="990" y="1253"/>
			<point x="854" y="1381"/>
			<point x="651" y="1381" type="curve" smooth="yes"/>
			<point x="433" y="1381"/>
			<point x="229" y="1231"/>
			<point x="229" y="996" type="curve" smooth="yes"/>
			<point x="229" y="894"/>
			<point x="259" y="800"/>
			<point x="290" y="705" type="curve"/>
			<point x="111" y="705" type="line" smooth="yes"/>
			<point x="92" y="705"/>
			<point x="50" y="696"/>
			<point x="50" y="670" type="curve" smooth="yes"/>
			<point x="50" y="643"/>
			<point x="92" y="635"/>
			<point x="111" y="635" type="curve" smooth="yes"/>
			<point x="311" y="635" type="line"/>
			<point x="328" y="577"/>
			<point x="341" y="520"/>
			<point x="341" y="460" type="curve" smooth="yes"/>
			<point x="341" y="275"/>
			<point x="215" y="140"/>
			<point x="81" y="31" type="curve" smooth="yes"/>
			<point x="73" y="25"/>
			<point x="70" y="18"/>
			<point x="70" y="12" type="curve" smooth="yes"/>
			<point x="70" y="0"/>
			<point x="82" y="-11"/>
			<point x="96" y="-17" type="curve" smooth="yes"/>
			<point x="107" y="-22"/>
			<point x="119" y="-24"/>
		</contour>
	</outline>
</glyph>
<glyph name="currency" format="2">
	<unicode hex="00A4"/>
	<advance height="2048" width="935"/>
	<outline>
		<contour>
			<point x="781.769" y="-24.001" type="line"/>
			<point x="790.982" y="-24.001"/>
			<point x="800.214" y="-22.521"/>
			<point x="807.873" y="-19.905" type="curve" smooth="yes"/>
			<point x="821.2" y="-15.354"/>
			<point x="835" y="-5.572"/>
			<point x="835" y="6.202" type="curve" smooth="yes"/>
			<point x="835" y="10.809"/>
			<point x="832.978" y="15.954"/>
			<point x="827.835" y="21.047" type="curve" smooth="yes"/>
			<point x="724.955" y="122.916" type="line"/>
			<point x="771.02" y="181.273"/>
			<point x="795.077" y="247.309"/>
			<point x="795.077" y="321.023" type="curve" smooth="yes"/>
			<point x="795.077" y="395.25"/>
			<point x="771.02" y="460.261"/>
			<point x="724.955" y="517.083" type="curve"/>
			<point x="827.835" y="619.976" type="line" smooth="yes"/>
			<point x="832.953" y="625.095"/>
			<point x="835" y="630.214"/>
			<point x="835" y="634.821" type="curve" smooth="yes"/>
			<point x="835" y="646.595"/>
			<point x="821.1" y="656.033"/>
			<point x="807.873" y="659.905" type="curve" smooth="yes"/>
			<point x="800.106" y="662.178"/>
			<point x="790.47" y="664"/>
			<point x="781.257" y="664" type="curve" smooth="yes"/>
			<point x="763.855" y="664"/>
			<point x="745.687" y="659.652"/>
			<point x="735.192" y="649.154" type="curve" smooth="yes"/>
			<point x="660.975" y="574.929" type="line"/>
			<point x="594.948" y="610.762"/>
			<point x="544.276" y="627.143"/>
			<point x="468.012" y="627.143" type="curve" smooth="yes"/>
			<point x="391.236" y="627.143"/>
			<point x="340.052" y="611.785"/>
			<point x="274.025" y="574.929" type="curve"/>
			<point x="200.32" y="649.154" type="line" smooth="yes"/>
			<point x="189.861" y="659.688"/>
			<point x="171.657" y="664"/>
			<point x="154.255" y="664" type="curve" smooth="yes"/>
			<point x="144.53" y="664"/>
			<point x="134.879" y="662.23"/>
			<point x="127.128" y="659.905" type="curve" smooth="yes"/>
			<point x="114.4" y="656.086"/>
			<point x="100" y="646.595"/>
			<point x="100" y="634.31" type="curve" smooth="yes"/>
			<point x="100" y="629.702"/>
			<point x="102.047" y="625.095"/>
			<point x="107.166" y="619.976" type="curve" smooth="yes"/>
			<point x="210.045" y="517.083" type="line"/>
			<point x="163.468" y="459.238"/>
			<point x="140.435" y="393.202"/>
			<point x="140.435" y="318.976" type="curve" smooth="yes"/>
			<point x="140.435" y="245.262"/>
			<point x="164.492" y="181.273"/>
			<point x="210.045" y="122.916" type="curve"/>
			<point x="107.166" y="21.047" type="line" smooth="yes"/>
			<point x="102.022" y="15.954"/>
			<point x="100" y="11.321"/>
			<point x="100" y="6.714" type="curve" smooth="yes"/>
			<point x="100" y="-5.572"/>
			<point x="114.291" y="-15.412"/>
			<point x="127.128" y="-19.905" type="curve" smooth="yes"/>
			<point x="134.766" y="-22.579"/>
			<point x="144.018" y="-24.001"/>
			<point x="153.743" y="-24.001" type="curve" smooth="yes"/>
			<point x="171.146" y="-24.001"/>
			<point x="189.534" y="-18.844"/>
			<point x="200.32" y="-8.131" type="curve" smooth="yes"/>
			<point x="274.025" y="65.071" type="line"/>
			<point x="340.052" y="29.238"/>
			<point x="391.236" y="12.856"/>
			<point x="468.012" y="12.856" type="curve" smooth="yes"/>
			<point x="544.276" y="12.856"/>
			<point x="594.948" y="29.238"/>
			<point x="660.975" y="65.071" type="curve"/>
			<point x="735.192" y="-8.131" type="line" smooth="yes"/>
			<point x="746.015" y="-18.806"/>
			<point x="764.367" y="-24.001"/>
			<point x="781.769" y="-24.001" type="curve"/>
		</contour>
		<contour>
			<point x="468.012" y="73.261" type="line"/>
			<point x="326.232" y="73.261"/>
			<point x="248.433" y="187.928"/>
			<point x="248.433" y="320" type="curve" smooth="yes"/>
			<point x="248.433" y="452.071"/>
			<point x="326.232" y="567.25"/>
			<point x="468.012" y="567.25" type="curve" smooth="yes"/>
			<point x="609.279" y="567.25"/>
			<point x="687.079" y="452.071"/>
			<point x="687.079" y="320" type="curve" smooth="yes"/>
			<point x="687.079" y="187.928"/>
			<point x="609.279" y="73.261"/>
			<point x="468.012" y="73.261" type="curve"/>
		</contour>
	</outline>
</glyph>
<glyph name="yen" format="2">
	<unicode hex="00A5"/>
	<advance height="2048" width="1026"/>
	<outline>
		<contour>
			<point x="575" y="10" type="curve" smooth="yes"/>
			<point x="575" y="388" type="line"/>
			<point x="876" y="388" type="line" smooth="yes"/>
			<point x="910" y="388"/>
			<point x="937" y="403"/>
			<point x="937" y="422" type="curve" smooth="yes"/>
			<point x="937" y="441"/>
			<point x="910" y="457"/>
			<point x="876" y="457" type="curve" smooth="yes"/>
			<point x="575" y="457" type="line"/>
			<point x="575" y="645" type="line"/>
			<point x="578" y="650" type="line"/>
			<point x="876" y="650" type="line" smooth="yes"/>
			<point x="910" y="650"/>
			<point x="937" y="665"/>
			<point x="937" y="684" type="curve" smooth="yes"/>
			<point x="937" y="703"/>
			<point x="910" y="719"/>
			<point x="876" y="719" type="curve" smooth="yes"/>
			<point x="616" y="719" type="line"/>
			<point x="974" y="1353" type="line"/>
			<point x="975" y="1355"/>
			<point x="976" y="1357"/>
			<point x="976" y="1360" type="curve" smooth="yes"/>
			<point x="976" y="1372"/>
			<point x="957" y="1378"/>
			<point x="948" y="1379" type="curve"/>
			<point x="932" y="1382"/>
			<point x="899" y="1382"/>
			<point x="890" y="1367" type="curve" smooth="yes"/>
			<point x="541" y="726" type="line"/>
			<point x="187" y="1358" type="line" smooth="yes"/>
			<point x="176" y="1378"/>
			<point x="140" y="1381"/>
			<point x="119" y="1381" type="curve" smooth="yes"/>
			<point x="103" y="1381"/>
			<point x="50" y="1370"/>
			<point x="50" y="1348" type="curve" smooth="yes"/>
			<point x="50" y="1343"/>
			<point x="53" y="1339"/>
			<point x="55" y="1335" type="curve"/>
			<point x="410" y="719" type="line"/>
			<point x="150" y="719" type="line" smooth="yes"/>
			<point x="116" y="719"/>
			<point x="89" y="703"/>
			<point x="89" y="684" type="curve" smooth="yes"/>
			<point x="89" y="665"/>
			<point x="116" y="650"/>
			<point x="150" y="650" type="curve" smooth="yes"/>
			<point x="450" y="650" type="line"/>
			<point x="452" y="646" type="line"/>
			<point x="452" y="457" type="line"/>
			<point x="150" y="457" type="line" smooth="yes"/>
			<point x="116" y="457"/>
			<point x="89" y="441"/>
			<point x="89" y="422" type="curve" smooth="yes"/>
			<point x="89" y="403"/>
			<point x="116" y="388"/>
			<point x="150" y="388" type="curve" smooth="yes"/>
			<point x="452" y="388" type="line"/>
			<point x="452" y="10" type="line" smooth="yes"/>
			<point x="452" y="1"/>
			<point x="459" y="-8"/>
			<point x="470" y="-14" type="curve" smooth="yes"/>
			<point x="481" y="-20"/>
			<point x="496" y="-24"/>
			<point x="513" y="-24" type="curve" smooth="yes"/>
			<point x="533" y="-24"/>
			<point x="575" y="-15"/>
		</contour>
	</outline>
</glyph>
<glyph name="brokenbar" format="2">
	<unicode hex="00A6"/>
	<advance height="2048" width="275"/>
	<outline>
		<contour>
			<point x="137.056" y="-23.995" type="curve" smooth="yes"/>
			<point x="147.041" y="-23.995"/>
			<point x="175" y="-19.996"/>
			<point x="175" y="-5.998" type="curve" smooth="yes"/>
			<point x="175" y="707.549" type="line"/>
			<point x="100" y="707.549" type="line"/>
			<point x="100" y="-5.998" type="line" smooth="yes"/>
			<point x="100" y="-19.996"/>
			<point x="127.959" y="-23.995"/>
		</contour>
		<contour>
			<point x="175" y="1024.457" type="line"/>
			<point x="175" y="1738.002" type="line" smooth="yes"/>
			<point x="175" y="1752.001"/>
			<point x="147.041" y="1756"/>
			<point x="137.056" y="1756" type="curve" smooth="yes"/>
			<point x="127.959" y="1756"/>
			<point x="100" y="1752.001"/>
			<point x="100" y="1738.002" type="curve" smooth="yes"/>
			<point x="100" y="1024.457" type="line"/>
		</contour>
	</outline>
</glyph>
<glyph name="section" format="2">
	<unicode hex="00A7"/>
	<advance height="2048" width="1112"/>
	<outline>
		<contour>
			<point x="911.717" y="555.955" type="curve"/>
			<point x="974.326" y="621.931"/>
			<point x="1012" y="707.953"/>
			<point x="1012" y="807.234" type="curve" smooth="yes"/>
			<point x="1012" y="906.724"/>
			<point x="969.615" y="996.461"/>
			<point x="895.078" y="1060.835" type="curve" smooth="yes"/>
			<point x="810.383" y="1133.981"/>
			<point x="717.719" y="1153.295"/>
			<point x="611.63" y="1172.63" type="curve" smooth="yes"/>
			<point x="529.585" y="1187.56"/>
			<point x="426.605" y="1210.002"/>
			<point x="359.778" y="1265.677" type="curve" smooth="yes"/>
			<point x="318.32" y="1300.218"/>
			<point x="290.775" y="1347.549"/>
			<point x="290.775" y="1413.814" type="curve" smooth="yes"/>
			<point x="290.775" y="1568.462"/>
			<point x="434.48" y="1686.005"/>
			<point x="581.186" y="1686.005" type="curve" smooth="yes"/>
			<point x="734.102" y="1686.005"/>
			<point x="832.174" y="1572.29"/>
			<point x="860.085" y="1427.575" type="curve" smooth="yes"/>
			<point x="864.741" y="1402.548"/>
			<point x="898.799" y="1397.032"/>
			<point x="919.416" y="1397.032" type="curve" smooth="yes"/>
			<point x="939.078" y="1397.032"/>
			<point x="982.697" y="1403.423"/>
			<point x="982.697" y="1430.475" type="curve" smooth="yes"/>
			<point x="982.697" y="1433.566"/>
			<point x="981.632" y="1437.787"/>
			<point x="980.93" y="1440.82" type="curve" smooth="yes"/>
			<point x="933.77" y="1644.474"/>
			<point x="787.777" y="1756"/>
			<point x="582.721" y="1756" type="curve" smooth="yes"/>
			<point x="382.554" y="1756"/>
			<point x="167.304" y="1627.064"/>
			<point x="167.304" y="1404.439" type="curve" smooth="yes"/>
			<point x="167.304" y="1330.093"/>
			<point x="193.232" y="1260.857"/>
			<point x="237.815" y="1204.38" type="curve"/>
			<point x="169.345" y="1144.349"/>
			<point x="126.21" y="1062.145"/>
			<point x="126.21" y="962.243" type="curve" smooth="yes"/>
			<point x="126.21" y="864.474"/>
			<point x="171.041" y="775.534"/>
			<point x="244.184" y="712.84" type="curve" smooth="yes"/>
			<point x="342.502" y="628.57"/>
			<point x="441.785" y="615.114"/>
			<point x="544.559" y="596.325" type="curve" smooth="yes"/>
			<point x="619.968" y="582.538"/>
			<point x="712.332" y="562.732"/>
			<point x="775.453" y="511.35" type="curve" smooth="yes"/>
			<point x="823.975" y="471.852"/>
			<point x="848.466" y="418.513"/>
			<point x="848.466" y="355.663" type="curve" smooth="yes"/>
			<point x="848.466" y="188.793"/>
			<point x="700.799" y="45.974"/>
			<point x="537.503" y="45.974" type="curve" smooth="yes"/>
			<point x="360.418" y="45.974"/>
			<point x="257.471" y="187.646"/>
			<point x="222.641" y="349.974" type="curve" smooth="yes"/>
			<point x="217.252" y="375.027"/>
			<point x="184.368" y="380.242"/>
			<point x="163.282" y="380.242" type="curve" smooth="yes"/>
			<point x="143.942" y="380.242"/>
			<point x="99" y="374.111"/>
			<point x="99" y="347.333" type="curve" smooth="yes"/>
			<point x="99" y="341.924"/>
			<point x="101.193" y="336.405"/>
			<point x="102.399" y="331.156" type="curve" smooth="yes"/>
			<point x="152.711" y="112.301"/>
			<point x="313.678" y="-24"/>
			<point x="536.999" y="-24" type="curve" smooth="yes"/>
			<point x="756.433" y="-24"/>
			<point x="970.906" y="128.054"/>
			<point x="970.906" y="365.038" type="curve" smooth="yes"/>
			<point x="970.906" y="433.476"/>
			<point x="949.811" y="500.402"/>
		</contour>
		<contour>
			<point x="310.471" y="1135.007" type="line"/>
			<point x="397.815" y="1070.723"/>
			<point x="487.228" y="1057.002"/>
			<point x="579.722" y="1039.936" type="curve" smooth="yes"/>
			<point x="663.21" y="1024.533"/>
			<point x="756.183" y="1005.498"/>
			<point x="822.463" y="948.282" type="curve" smooth="yes"/>
			<point x="867.437" y="909.467"/>
			<point x="889.56" y="857.423"/>
			<point x="889.56" y="797.859" type="curve" smooth="yes"/>
			<point x="889.56" y="738.662"/>
			<point x="870.342" y="681.432"/>
			<point x="838.147" y="632.732" type="curve"/>
			<point x="764.856" y="687.714"/>
			<point x="671.482" y="711.585"/>
			<point x="573.673" y="729.648" type="curve" smooth="yes"/>
			<point x="486.493" y="745.748"/>
			<point x="399.084" y="761.866"/>
			<point x="329.068" y="815.48" type="curve" smooth="yes"/>
			<point x="278.637" y="854.097"/>
			<point x="249.681" y="905.606"/>
			<point x="249.681" y="971.618" type="curve" smooth="yes"/>
			<point x="249.681" y="1032.489"/>
			<point x="272.646" y="1089.227"/>
			<point x="310.471" y="1135.007" type="curve"/>
		</contour>
	</outline>
</glyph>
<glyph name="dieresis" format="2">
	<unicode hex="00A8"/>
	<advance height="2048" width="514"/>
	<outline>
		<contour>
			<point x="155" y="1230" type="curve" smooth="yes"/>
			<point x="112" y="1230"/>
			<point x="80" y="1192"/>
			<point x="80" y="1155" type="curve" smooth="yes"/>
			<point x="80" y="1118"/>
			<point x="112" y="1080"/>
			<point x="155" y="1080" type="curve" smooth="yes"/>
			<point x="198" y="1080"/>
			<point x="230" y="1118"/>
			<point x="230" y="1155" type="curve" smooth="yes"/>
			<point x="230" y="1192"/>
			<point x="198" y="1230"/>
		</contour>
		<contour>
			<point x="359" y="1230" type="curve" smooth="yes"/>
			<point x="316" y="1230"/>
			<point x="284" y="1192"/>
			<point x="284" y="1155" type="curve" smooth="yes"/>
			<point x="284" y="1118"/>
			<point x="316" y="1080"/>
			<point x="359" y="1080" type="curve" smooth="yes"/>
			<point x="402" y="1080"/>
			<point x="434" y="1118"/>
			<point x="434" y="1155" type="curve" smooth="yes"/>
			<point x="434" y="1192"/>
			<point x="402" y="1230"/>
		</contour>
	</outline>
</glyph>
<glyph name="copyright" format="2">
	<unicode hex="00A9"/>
	<advance height="2048" width="1291"/>
	<outline>
		<contour>
			<point x="963" y="628" type="curve"/>
			<point x="963" y="627"/>
			<point x="963" y="627"/>
			<point x="963" y="626" type="curve" smooth="yes"/>
			<point x="963" y="614"/>
			<point x="946" y="604"/>
			<point x="924" y="603" type="curve" smooth="yes"/>
			<point x="901" y="602"/>
			<point x="881" y="612"/>
			<point x="879" y="625" type="curve" smooth="yes"/>
			<point x="866" y="731"/>
			<point x="768" y="803"/>
			<point x="664" y="801" type="curve" smooth="yes"/>
			<point x="491" y="799"/>
			<point x="409" y="639"/>
			<point x="410" y="484" type="curve" smooth="yes"/>
			<point x="412" y="326"/>
			<point x="493" y="173"/>
			<point x="662" y="175" type="curve" smooth="yes"/>
			<point x="765" y="176"/>
			<point x="863" y="248"/>
			<point x="881" y="352" type="curve" smooth="yes"/>
			<point x="883" y="365"/>
			<point x="903" y="374"/>
			<point x="926" y="373" type="curve" smooth="yes"/>
			<point x="948" y="372"/>
			<point x="964" y="362"/>
			<point x="964" y="350" type="curve" smooth="yes"/>
			<point x="964" y="349"/>
			<point x="964" y="348"/>
			<point x="964" y="347" type="curve"/>
			<point x="940" y="207"/>
			<point x="796" y="129"/>
			<point x="663" y="128" type="curve" smooth="yes"/>
			<point x="451" y="126"/>
			<point x="329" y="275"/>
			<point x="327" y="483" type="curve" smooth="yes"/>
			<point x="325" y="690"/>
			<point x="447" y="845"/>
			<point x="662" y="848" type="curve" smooth="yes"/>
			<point x="797" y="850"/>
			<point x="944" y="773"/>
		</contour>
		<contour>
			<point x="1096" y="488" type="curve" smooth="yes"/>
			<point x="1096" y="224"/>
			<point x="913" y="29"/>
			<point x="646" y="29" type="curve" smooth="yes"/>
			<point x="378" y="29"/>
			<point x="195" y="224"/>
			<point x="195" y="488" type="curve" smooth="yes"/>
			<point x="195" y="752"/>
			<point x="378" y="947"/>
			<point x="646" y="947" type="curve" smooth="yes"/>
			<point x="913" y="947"/>
			<point x="1096" y="752"/>
		</contour>
		<contour>
			<point x="1191" y="488" type="curve" smooth="yes"/>
			<point x="1191" y="803"/>
			<point x="950" y="1000"/>
			<point x="646" y="1000" type="curve" smooth="yes"/>
			<point x="341" y="1000"/>
			<point x="100" y="803"/>
			<point x="100" y="488" type="curve" smooth="yes"/>
			<point x="100" y="173"/>
			<point x="341" y="-24"/>
			<point x="646" y="-24" type="curve" smooth="yes"/>
			<point x="950" y="-24"/>
			<point x="1191" y="173"/>
		</contour>
	</outline>
</glyph>
<glyph name="feminineordinal" format="2">
	<unicode hex="00AA"/>
	<advance height="2048" width="839"/>
	<outline>
		<contour>
			<point x="697.997" y="1060" type="line"/>
			<point x="708.579" y="1060"/>
			<point x="718.544" y="1062.414"/>
			<point x="726.361" y="1066.609" type="curve" smooth="yes"/>
			<point x="734.423" y="1070.937"/>
			<point x="739" y="1077.185"/>
			<point x="739" y="1083.208" type="curve" smooth="yes"/>
			<point x="739" y="1089.083"/>
			<point x="735.604" y="1094.344"/>
			<point x="727.684" y="1099.071" type="curve" smooth="yes"/>
			<point x="683.432" y="1125.484"/>
			<point x="677.422" y="1175.012"/>
			<point x="677.422" y="1222.603" type="curve" smooth="yes"/>
			<point x="677.422" y="1520.196" type="line" smooth="yes"/>
			<point x="677.422" y="1674.558"/>
			<point x="532.24" y="1737"/>
			<point x="398.338" y="1737" type="curve" smooth="yes"/>
			<point x="331.469" y="1737"/>
			<point x="258.088" y="1720.401"/>
			<point x="202.434" y="1682.211" type="curve" smooth="yes"/>
			<point x="159.622" y="1652.834"/>
			<point x="120.288" y="1604.803"/>
			<point x="119.84" y="1549.867" type="curve" smooth="yes"/>
			<point x="119.7" y="1532.682"/>
			<point x="146.294" y="1526.805"/>
			<point x="159.52" y="1526.805" type="curve" smooth="yes"/>
			<point x="172.747" y="1526.805"/>
			<point x="200.35" y="1532.094"/>
			<point x="200.523" y="1549.867" type="curve" smooth="yes"/>
			<point x="200.937" y="1592.172"/>
			<point x="230.833" y="1629.349"/>
			<point x="264.6" y="1652.393" type="curve" smooth="yes"/>
			<point x="303.581" y="1678.996"/>
			<point x="351.31" y="1690.915"/>
			<point x="398.338" y="1690.731" type="curve" smooth="yes"/>
			<point x="500.772" y="1690.328"/>
			<point x="596.004" y="1633.885"/>
			<point x="596.004" y="1520.196" type="curve" smooth="yes"/>
			<point x="596.004" y="1448.809" type="line"/>
			<point x="561.026" y="1426.335"/>
			<point x="513.998" y="1421.047"/>
			<point x="466.382" y="1421.047" type="curve" smooth="yes"/>
			<point x="430.081" y="1421.047"/>
			<point x="393.634" y="1424.278"/>
			<point x="362.625" y="1424.278" type="curve" smooth="yes"/>
			<point x="240.792" y="1424.278"/>
			<point x="100" y="1401.805"/>
			<point x="100" y="1245.811" type="curve" smooth="yes"/>
			<point x="100" y="1110.235"/>
			<point x="238.146" y="1060"/>
			<point x="349.986" y="1060" type="curve" smooth="yes"/>
			<point x="449.187" y="1060"/>
			<point x="542.509" y="1093.784"/>
			<point x="602.618" y="1164.436" type="curve"/>
			<point x="609.966" y="1122.867"/>
			<point x="629.748" y="1090.308"/>
			<point x="668.898" y="1067.197" type="curve" smooth="yes"/>
			<point x="676.777" y="1062.546"/>
			<point x="687.416" y="1060"/>
			<point x="697.997" y="1060" type="curve"/>
		</contour>
		<contour>
			<point x="349.986" y="1107.003" type="line" smooth="yes"/>
			<point x="264.6" y="1107.003"/>
			<point x="181.271" y="1147.25"/>
			<point x="181.271" y="1245.811" type="curve" smooth="yes"/>
			<point x="181.271" y="1355.536"/>
			<point x="260.044" y="1378.009"/>
			<point x="357.334" y="1378.009" type="curve" smooth="yes"/>
			<point x="395.935" y="1378.009"/>
			<point x="434.441" y="1375.365"/>
			<point x="472.995" y="1375.365" type="curve" smooth="yes"/>
			<point x="512.088" y="1375.365"/>
			<point x="551.033" y="1378.009"/>
			<point x="596.004" y="1387.997" type="curve"/>
			<point x="596.004" y="1307.944" type="line" smooth="yes"/>
			<point x="596.004" y="1181.622"/>
			<point x="458.445" y="1107.003"/>
			<point x="349.986" y="1107.003" type="curve" smooth="yes"/>
		</contour>
	</outline>
</glyph>
<glyph name="guillemotleft" format="2">
	<unicode hex="00AB"/>
	<advance height="2048" width="902"/>
	<outline>
		<contour>
			<point x="797" y="413" type="curve" smooth="yes"/>
			<point x="494" y="707" type="line"/>
			<point x="797" y="1001" type="line" smooth="yes"/>
			<point x="800" y="1004"/>
			<point x="802" y="1008"/>
			<point x="802" y="1012" type="curve" smooth="yes"/>
			<point x="802" y="1022"/>
			<point x="792" y="1028"/>
			<point x="784" y="1031" type="curve" smooth="yes"/>
			<point x="778" y="1033"/>
			<point x="771" y="1034"/>
			<point x="765" y="1034" type="curve" smooth="yes"/>
			<point x="754" y="1034"/>
			<point x="741" y="1031"/>
			<point x="733" y="1023" type="curve" smooth="yes"/>
			<point x="419" y="719" type="line" smooth="yes"/>
			<point x="416" y="716"/>
			<point x="414" y="711"/>
			<point x="414" y="707" type="curve" smooth="yes"/>
			<point x="414" y="702"/>
			<point x="416" y="699"/>
			<point x="419" y="696" type="curve" smooth="yes"/>
			<point x="733" y="391" type="line" smooth="yes"/>
			<point x="741" y="383"/>
			<point x="754" y="380"/>
			<point x="765" y="380" type="curve" smooth="yes"/>
			<point x="771" y="380"/>
			<point x="778" y="381"/>
			<point x="784" y="383" type="curve" smooth="yes"/>
			<point x="792" y="386"/>
			<point x="802" y="392"/>
			<point x="802" y="402" type="curve" smooth="yes"/>
			<point x="802" y="406"/>
			<point x="800" y="410"/>
		</contour>
		<contour>
			<point x="483" y="413" type="curve" smooth="yes"/>
			<point x="181" y="707" type="line"/>
			<point x="483" y="1001" type="line" smooth="yes"/>
			<point x="486" y="1004"/>
			<point x="488" y="1008"/>
			<point x="488" y="1012" type="curve" smooth="yes"/>
			<point x="488" y="1022"/>
			<point x="478" y="1028"/>
			<point x="470" y="1031" type="curve" smooth="yes"/>
			<point x="464" y="1033"/>
			<point x="457" y="1034"/>
			<point x="451" y="1034" type="curve" smooth="yes"/>
			<point x="440" y="1034"/>
			<point x="427" y="1031"/>
			<point x="419" y="1023" type="curve" smooth="yes"/>
			<point x="106" y="719" type="line"/>
			<point x="102" y="716"/>
			<point x="100" y="711"/>
			<point x="100" y="707" type="curve" smooth="yes"/>
			<point x="100" y="702"/>
			<point x="102" y="699"/>
			<point x="105" y="696" type="curve" smooth="yes"/>
			<point x="419" y="391" type="line" smooth="yes"/>
			<point x="427" y="383"/>
			<point x="440" y="380"/>
			<point x="451" y="380" type="curve" smooth="yes"/>
			<point x="457" y="380"/>
			<point x="464" y="381"/>
			<point x="470" y="383" type="curve" smooth="yes"/>
			<point x="478" y="386"/>
			<point x="488" y="392"/>
			<point x="488" y="402" type="curve" smooth="yes"/>
			<point x="488" y="406"/>
			<point x="486" y="410"/>
		</contour>
	</outline>
</glyph>
<glyph name="logicalnot" format="2">
	<unicode hex="00AC"/>
	<advance height="2048" width="908"/>
	<outline>
		<contour>
			<point x="161.499" y="369.182" type="line"/>
			<point x="127.534" y="369.182"/>
			<point x="100" y="384.588"/>
			<point x="100" y="403.591" type="curve" smooth="yes"/>
			<point x="100" y="422.595"/>
			<point x="127.534" y="438"/>
			<point x="161.499" y="438" type="curve" smooth="yes"/>
			<point x="746.501" y="438" type="line" smooth="yes"/>
			<point x="780.466" y="438"/>
			<point x="808" y="422.595"/>
			<point x="808" y="403.591" type="curve" smooth="yes"/>
			<point x="808" y="10.409" type="line" smooth="yes"/>
			<point x="808" y="-8.595"/>
			<point x="780.466" y="-24"/>
			<point x="746.501" y="-24" type="curve" smooth="yes"/>
			<point x="712.536" y="-24"/>
			<point x="685.002" y="-8.595"/>
			<point x="685.002" y="10.409" type="curve" smooth="yes"/>
			<point x="685.002" y="369.182" type="line"/>
			<point x="161.499" y="369.182" type="line"/>
		</contour>
	</outline>
</glyph>
<glyph name="registered" format="2">
  <advance height="2048" width="1291.0"/>
  <unicode hex="00AE"/>
  <outline>
    <contour>
      <point x="646.0" y="-24.0" type="curve" smooth="yes"/>
      <point x="950.0" y="-24.0"/>
      <point x="1191.0" y="173.0"/>
      <point x="1191.0" y="488.0" type="curve" smooth="yes"/>
      <point x="1191.0" y="803.0"/>
      <point x="950.0" y="1000.0"/>
      <point x="646.0" y="1000.0" type="curve" smooth="yes"/>
      <point x="341.0" y="1000.0"/>
      <point x="100.0" y="803.0"/>
      <point x="100.0" y="488.0" type="curve" smooth="yes"/>
      <point x="100.0" y="173.0"/>
      <point x="341.0" y="-24.0"/>
    </contour>
    <contour>
      <point x="646.0" y="30.0" type="curve" smooth="yes"/>
      <point x="379.0" y="30.0"/>
      <point x="195.0" y="224.0"/>
      <point x="195.0" y="488.0" type="curve" smooth="yes"/>
      <point x="195.0" y="752.0"/>
      <point x="379.0" y="947.0"/>
      <point x="646.0" y="947.0" type="curve" smooth="yes"/>
      <point x="912.0" y="947.0"/>
      <point x="1096.0" y="752.0"/>
      <point x="1096.0" y="488.0" type="curve" smooth="yes"/>
      <point x="1096.0" y="224.0"/>
      <point x="912.0" y="30.0"/>
    </contour>
    <contour>
      <point x="404.0" y="163.0" type="curve" smooth="yes"/>
      <point x="425.0" y="163.0"/>
      <point x="442.0" y="173.0"/>
      <point x="442.0" y="185.0" type="curve" smooth="yes"/>
      <point x="442.0" y="469.0" type="line"/>
      <point x="612.0" y="469.0" type="line" smooth="yes"/>
      <point x="677.0" y="469.0"/>
      <point x="706.0" y="402.0"/>
      <point x="736.0" y="334.0" type="curve" smooth="yes"/>
      <point x="765.0" y="270.0"/>
      <point x="794.0" y="204.0"/>
      <point x="863.0" y="169.0" type="curve" smooth="yes"/>
      <point x="870.0" y="165.0"/>
      <point x="879.0" y="164.0"/>
      <point x="888.0" y="164.0" type="curve" smooth="yes"/>
      <point x="899.0" y="164.0"/>
      <point x="909.0" y="166.0"/>
      <point x="917.0" y="171.0" type="curve" smooth="yes"/>
      <point x="924.0" y="175.0"/>
      <point x="927.0" y="180.0"/>
      <point x="927.0" y="185.0" type="curve" smooth="yes"/>
      <point x="927.0" y="191.0"/>
      <point x="923.0" y="197.0"/>
      <point x="915.0" y="201.0" type="curve" smooth="yes"/>
      <point x="863.0" y="227.0"/>
      <point x="836.0" y="287.0"/>
      <point x="811.0" y="344.0" type="curve" smooth="yes"/>
      <point x="789.0" y="393.0"/>
      <point x="768.0" y="440.0"/>
      <point x="730.0" y="471.0" type="curve"/>
      <point x="816.0" y="484.0"/>
      <point x="893.0" y="549.0"/>
      <point x="893.0" y="641.0" type="curve" smooth="yes"/>
      <point x="893.0" y="747.0"/>
      <point x="794.0" y="813.0"/>
      <point x="695.0" y="813.0" type="curve" smooth="yes"/>
      <point x="404.0" y="813.0" type="line" smooth="yes"/>
      <point x="383.0" y="813.0"/>
      <point x="366.0" y="803.0"/>
      <point x="366.0" y="792.0" type="curve" smooth="yes"/>
      <point x="366.0" y="185.0" type="line" smooth="yes"/>
      <point x="366.0" y="173.0"/>
      <point x="383.0" y="163.0"/>
    </contour>
    <contour>
      <point x="695.0" y="511.0" type="curve" smooth="yes"/>
      <point x="442.0" y="511.0" type="line"/>
      <point x="442.0" y="770.0" type="line"/>
      <point x="695.0" y="770.0" type="line" smooth="yes"/>
      <point x="763.0" y="770.0"/>
      <point x="817.0" y="707.0"/>
      <point x="817.0" y="641.0" type="curve" smooth="yes"/>
      <point x="817.0" y="575.0"/>
      <point x="763.0" y="511.0"/>
    </contour>
  </outline>
</glyph>
<glyph name="degree" format="2">
	<unicode hex="00B0"/>
	<advance height="2048" width="553"/>
	<outline>
		<contour>
			<point x="553" y="1267" type="curve" smooth="yes"/>
			<point x="553" y="1434"/>
			<point x="429" y="1535"/>
			<point x="276" y="1535" type="curve" smooth="yes"/>
			<point x="124" y="1535"/>
			<point x="0" y="1434"/>
			<point x="0" y="1267" type="curve" smooth="yes"/>
			<point x="0" y="1101"/>
			<point x="124" y="1000"/>
			<point x="277" y="1000" type="curve" smooth="yes"/>
			<point x="429" y="1000"/>
			<point x="553" y="1101"/>
		</contour>
		<contour>
			<point x="460" y="1267" type="curve" smooth="yes"/>
			<point x="460" y="1154"/>
			<point x="391" y="1054"/>
			<point x="277" y="1054" type="curve" smooth="yes"/>
			<point x="162" y="1054"/>
			<point x="93" y="1154"/>
			<point x="93" y="1267" type="curve" smooth="yes"/>
			<point x="93" y="1381"/>
			<point x="162" y="1481"/>
			<point x="276" y="1481" type="curve" smooth="yes"/>
			<point x="391" y="1481"/>
			<point x="460" y="1381"/>
		</contour>
	</outline>
</glyph>
<glyph name="plusminus" format="2">
	<unicode hex="00B1"/>
	<advance height="2048" width="1010"/>
	<outline>
		<contour>
			<point x="161.983" y="539.904" type="line"/>
			<point x="443.906" y="539.904" type="line"/>
			<point x="443.906" y="185.112" type="line" smooth="yes"/>
			<point x="443.906" y="159.119"/>
			<point x="485.006" y="150.011"/>
			<point x="505" y="150.011" type="curve" smooth="yes"/>
			<point x="524.995" y="150.011"/>
			<point x="566.095" y="159.119"/>
			<point x="566.095" y="185.112" type="curve" smooth="yes"/>
			<point x="566.095" y="539.904" type="line"/>
			<point x="848.018" y="539.904" type="line" smooth="yes"/>
			<point x="868.012" y="539.904"/>
			<point x="910" y="549.013"/>
			<point x="910" y="575.005" type="curve" smooth="yes"/>
			<point x="910" y="600.998"/>
			<point x="868.012" y="610.107"/>
			<point x="848.018" y="610.107" type="curve" smooth="yes"/>
			<point x="566.095" y="610.107" type="line"/>
			<point x="566.095" y="964.899" type="line" smooth="yes"/>
			<point x="566.095" y="990.892"/>
			<point x="524.995" y="1000"/>
			<point x="505" y="1000" type="curve" smooth="yes"/>
			<point x="485.006" y="1000"/>
			<point x="443.906" y="990.892"/>
			<point x="443.906" y="964.899" type="curve" smooth="yes"/>
			<point x="443.906" y="610.107" type="line"/>
			<point x="161.983" y="610.107" type="line" smooth="yes"/>
			<point x="141.988" y="610.107"/>
			<point x="100" y="600.998"/>
			<point x="100" y="575.005" type="curve" smooth="yes"/>
			<point x="100" y="549.013"/>
			<point x="141.988" y="539.904"/>
			<point x="161.983" y="539.904" type="curve"/>
		</contour>
		<contour>
			<point x="849.128" y="-23.719" type="line" smooth="yes"/>
			<point x="868.012" y="-23.719"/>
			<point x="909" y="-14.611"/>
			<point x="909" y="11.382" type="curve" smooth="yes"/>
			<point x="909" y="38.486"/>
			<point x="868.012" y="47.372"/>
			<point x="849.128" y="47.372" type="curve" smooth="yes"/>
			<point x="161.983" y="47.372" type="line" smooth="yes"/>
			<point x="141.989" y="47.372"/>
			<point x="99" y="38.486"/>
			<point x="99" y="11.382" type="curve" smooth="yes"/>
			<point x="99" y="-14.611"/>
			<point x="141.988" y="-23.719"/>
			<point x="161.983" y="-23.719" type="curve" smooth="yes"/>
		</contour>
	</outline>
</glyph>
<glyph name="two_super" format="2">
	<unicode hex="00B2"/>
	<advance height="2048" width="428"/>
	<outline>
		<contour>
			<point x="84" y="1455" type="curve" smooth="yes"/>
			<point x="84" y="1503"/>
			<point x="94" y="1549"/>
			<point x="134" y="1580" type="curve" smooth="yes"/>
			<point x="159" y="1600"/>
			<point x="186" y="1607"/>
			<point x="217" y="1607" type="curve" smooth="yes"/>
			<point x="284" y="1607"/>
			<point x="337" y="1553"/>
			<point x="346" y="1487" type="curve" smooth="yes"/>
			<point x="363" y="1370"/>
			<point x="242" y="1310"/>
			<point x="157" y="1267" type="curve" smooth="yes"/>
			<point x="108" y="1242"/>
			<point x="60" y="1221"/>
			<point x="31" y="1170" type="curve" smooth="yes"/>
			<point x="6" y="1127"/>
			<point x="0" y="1073"/>
			<point x="0" y="1023" type="curve" smooth="yes"/>
			<point x="0" y="1006"/>
			<point x="27" y="1000"/>
			<point x="40" y="1000" type="curve" smooth="yes"/>
			<point x="385" y="1000" type="line" smooth="yes"/>
			<point x="398" y="1000"/>
			<point x="425" y="1006"/>
			<point x="425" y="1023" type="curve" smooth="yes"/>
			<point x="425" y="1040"/>
			<point x="398" y="1046"/>
			<point x="385" y="1046" type="curve" smooth="yes"/>
			<point x="80" y="1046" type="line"/>
			<point x="83" y="1084"/>
			<point x="87" y="1123"/>
			<point x="106" y="1156" type="curve" smooth="yes"/>
			<point x="130" y="1195"/>
			<point x="171" y="1214"/>
			<point x="210" y="1233" type="curve" smooth="yes"/>
			<point x="311" y="1284"/>
			<point x="446" y="1353"/>
			<point x="426" y="1490" type="curve" smooth="yes"/>
			<point x="411" y="1596"/>
			<point x="315" y="1653"/>
			<point x="217" y="1653" type="curve" smooth="yes"/>
			<point x="174" y="1653"/>
			<point x="132" y="1645"/>
			<point x="94" y="1624" type="curve" smooth="yes"/>
			<point x="39" y="1593"/>
			<point x="-6" y="1519"/>
			<point x="4" y="1453" type="curve" smooth="yes"/>
			<point x="7" y="1437"/>
			<point x="32" y="1432"/>
			<point x="45" y="1432" type="curve" smooth="yes"/>
			<point x="57" y="1432"/>
			<point x="84" y="1438"/>
		</contour>
	</outline>
</glyph>
<glyph name="three_super" format="2">
	<unicode hex="00B3"/>
	<advance height="2048" width="432"/>
	<outline>
		<contour>
			<point x="82" y="1482" type="curve" smooth="yes"/>
			<point x="80" y="1520"/>
			<point x="89" y="1558"/>
			<point x="112" y="1588" type="curve" smooth="yes"/>
			<point x="135" y="1616"/>
			<point x="166" y="1631"/>
			<point x="202" y="1630" type="curve" smooth="yes"/>
			<point x="277" y="1630"/>
			<point x="333" y="1576"/>
			<point x="333" y="1499" type="curve" smooth="yes"/>
			<point x="333" y="1444"/>
			<point x="300" y="1401"/>
			<point x="250" y="1384" type="curve" smooth="yes"/>
			<point x="229" y="1377"/>
			<point x="210" y="1376"/>
			<point x="189" y="1375" type="curve" smooth="yes"/>
			<point x="177" y="1374"/>
			<point x="151" y="1368"/>
			<point x="151" y="1352" type="curve" smooth="yes"/>
			<point x="151" y="1334"/>
			<point x="178" y="1328"/>
			<point x="192" y="1328" type="curve" smooth="yes"/>
			<point x="213" y="1328"/>
			<point x="232" y="1330"/>
			<point x="254" y="1325" type="curve" smooth="yes"/>
			<point x="316" y="1309"/>
			<point x="351" y="1254"/>
			<point x="351" y="1190" type="curve" smooth="yes"/>
			<point x="351" y="1114"/>
			<point x="301" y="1047"/>
			<point x="223" y="1047" type="curve" smooth="yes"/>
			<point x="137" y="1047"/>
			<point x="81" y="1104"/>
			<point x="81" y="1191" type="curve" smooth="yes"/>
			<point x="81" y="1208"/>
			<point x="54" y="1214"/>
			<point x="41" y="1214" type="curve" smooth="yes"/>
			<point x="28" y="1214"/>
			<point x="0" y="1208"/>
			<point x="0" y="1191" type="curve" smooth="yes"/>
			<point x="0" y="1061"/>
			<point x="107" y="1000"/>
			<point x="223" y="1000" type="curve" smooth="yes"/>
			<point x="332" y="1000"/>
			<point x="432" y="1070"/>
			<point x="432" y="1189" type="curve" smooth="yes"/>
			<point x="432" y="1269"/>
			<point x="391" y="1322"/>
			<point x="324" y="1356" type="curve"/>
			<point x="378" y="1388"/>
			<point x="414" y="1432"/>
			<point x="414" y="1499" type="curve" smooth="yes"/>
			<point x="414" y="1618"/>
			<point x="310" y="1677"/>
			<point x="205" y="1677" type="curve" smooth="yes"/>
			<point x="152" y="1677"/>
			<point x="96" y="1661"/>
			<point x="55" y="1624" type="curve" smooth="yes"/>
			<point x="14" y="1587"/>
			<point x="-2" y="1536"/>
			<point x="1" y="1481" type="curve" smooth="yes"/>
			<point x="2" y="1463"/>
			<point x="29" y="1458"/>
			<point x="42" y="1458" type="curve"/>
			<point x="56" y="1459"/>
			<point x="83" y="1464"/>
		</contour>
	</outline>
</glyph>
<glyph name="acute" format="2">
  <advance height="2048" width="563.0"/>
  <unicode hex="00B4"/>
  <outline>
    <contour>
      <point x="125.0" y="1080.0" type="curve" smooth="yes"/>
      <point x="130.0" y="1080.0"/>
      <point x="135.0" y="1082.0"/>
      <point x="141.0" y="1086.0" type="curve" smooth="yes"/>
      <point x="549.0" y="1387.0" type="line" smooth="yes"/>
      <point x="559.0" y="1394.0"/>
      <point x="563.0" y="1404.0"/>
      <point x="563.0" y="1416.0" type="curve" smooth="yes"/>
      <point x="563.0" y="1433.0"/>
      <point x="554.0" y="1452.0"/>
      <point x="542.0" y="1468.0" type="curve" smooth="yes"/>
      <point x="526.0" y="1488.0"/>
      <point x="504.0" y="1504.0"/>
      <point x="484.0" y="1504.0" type="curve" smooth="yes"/>
      <point x="476.0" y="1504.0"/>
      <point x="467.0" y="1501.0"/>
      <point x="460.0" y="1494.0" type="curve" smooth="yes"/>
      <point x="89.0" y="1148.0" type="line" smooth="yes"/>
      <point x="83.0" y="1142.0"/>
      <point x="80.0" y="1136.0"/>
      <point x="80.0" y="1130.0" type="curve" smooth="yes"/>
      <point x="80.0" y="1119.0"/>
      <point x="87.0" y="1109.0"/>
      <point x="95.0" y="1099.0" type="curve" smooth="yes"/>
      <point x="103.0" y="1089.0"/>
      <point x="113.0" y="1080.0"/>
    </contour>
  </outline>
</glyph>
